<?xml  version="1.0" encoding="UTF-8"?>
<!DOCTYPE svg PUBLIC "-//W3C//DTD SVG 1.0//EN" "http://www.w3.org/TR/2001/REC-SVG-20010904/DTD/svg10.dtd" >
<svg xmlns="http://www.w3.org/2000/svg" >
<metadata>
<version>1.0</version>
<id><![CDATA[Trade Gothic W01 Obl]]></id>
<vendor>Monotype Imaging Inc.</vendor>
<credits>
<name>Fonts.com WebFonts</name>
<URL>http://webfonts.fonts.com</URL>
<role>Home of the Web fonts</role>
</credits>
<license>
<URL>http://webfonts.fonts.com/Legal</URL>
</license>
<copyright><![CDATA[Part of the digitally encoded machine readable outline data for producing the Typefaces provided is copyrighted © 2002 - 2007 Linotype GmbH, www.linotype.com. All rights reserved. This software is the property of Linotype GmbH, and may not be reproduced, used, displayed, modified, disclosed or transferred without the express written approval of Linotype GmbH.  The digitally encoded machine readable software for producing the Typefaces licensed to you is copyrighted (c) 1989, 1992 Adobe Systems. All Rights Reserved. This software is the property of Adobe Systems Incorporated and its licensors, and may not be reproduced, used, displayed, modified, disclosed or transferred without the express written approval of Adobe. Trade Gothic is a trademark of Linotype GmbH and may be registered in certain jurisdictions. This typeface is original artwork of Jackson Burke. The design may be protected in certain jurisdictions.]]></copyright>
<trademark><![CDATA[Trade Gothic is a trademark of Linotype GmbH and may be registered in certain jurisdictions.]]></trademark>
<licensee>
<name></name>
</licensee>
</metadata>
<defs >
<font horiz-adv-x="526" id="09f52831-e1cf-48be-9c1e-2d1577e420b7">
<font-face font-family="" panose-1="2 11 5 3 4 3 3 9 0 4" ascent="960" descent="-224" units-per-em="1000" alphabetic="0">
</font-face>
<missing-glyph horiz-adv-x="0" />

<glyph unicode="&#xA;" />
<glyph unicode="&#xD;" horiz-adv-x="0" />
<glyph unicode=" " horiz-adv-x="305" />
<glyph unicode="!" horiz-adv-x="333" d="M238 110L215 0H117L140 110H238ZM375 722L247 228H183L269 722H375Z"  />
<glyph unicode="&quot;" horiz-adv-x="333" d="M351 722H413L354 452H292L351 722ZM232 722H294L235 452H173L232 722Z"  />
<glyph unicode="#" horiz-adv-x="611" d="M291 286H426L480 438H344L291 286ZM191 0H129L209 230H110L122 286H229L282 438H183L195 494H302L383 722H445L364 494H500L580 722H642L562 494H656L644 438H542L488 286H583L571 230H468L388 0H326L406 230H271L191 0Z"  />
<glyph unicode="$" horiz-adv-x="611" d="M417 660H412Q354 660 314 630T264 550Q260 534 260 518Q260 494 269 477T292 448T326 429T365 417L417 660ZM356 62Q383 63 410 72T461 97T500 135T522 184Q525 199 525 213Q525 238 515 255T489 285T453 306T412 322L356 62ZM447 799H515L499 722Q529 720 554 709T600 681T634 644T658 604L597 562Q583 598 554 625T485 660L429 399Q512 370 556 334T601 235Q601 224 600 213T596 190Q587 148 562 113T503 53T427 14T343 0L316 -124H248L275 0Q239 1 210 13T157 44T115 86T83 131L150 175Q158 157 171 138T202 103T241 75T288 62L348 341Q325 347 297 357T244 387T202 433T185 499Q185 519 189 538Q199 584 224 619T282 676T354 710T431 722L447 799Z"  />
<glyph unicode="%" horiz-adv-x="889" d="M324 452Q369 452 405 480T452 556Q455 568 455 580Q455 617 431 638T369 660Q324 660 288 632T242 556Q239 542 239 531Q239 495 262 474T324 452ZM675 62Q720 62 756 90T802 166Q805 179 805 191Q805 227 782 248T720 270Q675 270 639 242T592 166Q589 154 589 142Q589 105 613 84T675 62ZM780 732H839L263 -10H204L780 732ZM311 390Q281 390 256 399T214 426T186 467T176 519Q176 539 180 556Q187 591 207 621T254 674T315 709T383 722Q444 722 481 686T518 592Q518 573 514 556Q506 521 487 491T440 438T379 403T311 390ZM662 0Q601 0 564 36T526 130Q526 138 527 147T530 166Q538 201 557 231T604 284T665 319T733 332Q763 332 788 323T830 296T858 255T868 203Q868 183 864 166Q856 131 837 101T791 48T730 13T662 0Z"  />
<glyph unicode="&amp;" horiz-adv-x="667" d="M350 585Q347 568 347 552Q347 524 353 499T364 456Q385 468 408 484T450 518T484 556T503 597Q504 602 504 605T505 613Q505 640 488 655T447 670Q427 670 411 663T382 643T362 616T350 585ZM165 192Q163 184 162 177T161 161Q161 135 171 116T199 83T237 64T282 58Q330 58 369 75T441 118Q403 175 370 236T311 360Q286 346 263 330T221 295T187 250T165 192ZM671 348Q660 320 645 290T613 232T578 178T543 133Q552 121 566 110T595 90T624 77T649 72L634 0H608Q594 0 578 5T544 21T510 44T481 72Q436 33 382 12T257 -10Q220 -10 188 1T132 33T95 84T81 152Q81 163 82 174T86 197Q94 234 114 266T163 325T225 374T290 415Q279 438 273 470T266 537Q266 551 267 563T271 588Q278 619 295 645T337 690T394 721T464 732Q518 732 552 706T587 630Q587 613 583 598Q576 566 556 538T507 486T448 440T388 400Q410 335 442 280T504 182Q515 193 528 212T556 255T583 307T608 364L671 348Z"  />
<glyph unicode="&apos;" horiz-adv-x="222" d="M236 722H298L239 452H177L236 722Z"  />
<glyph unicode="(" horiz-adv-x="333" d="M439 732Q393 684 356 637T290 539T241 435T207 321Q199 287 196 255T193 192Q193 117 211 50T261 -84H187Q120 39 120 184Q120 255 136 326Q160 437 217 540T361 732H439Z"  />
<glyph unicode=")" horiz-adv-x="333" d="M33 -84Q79 -36 116 11T182 109T231 213T265 327Q273 361 276 393T279 456Q279 531 261 598T211 732H285Q352 609 352 464Q352 393 336 322Q312 211 255 108T111 -84H33Z"  />
<glyph unicode="*" horiz-adv-x="500" d="M196 567L228 632L351 567L358 571L369 722H436L386 573L391 567L538 636L549 569L393 538L388 530L471 424L408 382L364 516H356L255 384L211 423L340 537L339 544L196 567Z"  />
<glyph unicode="+" horiz-adv-x="600" d="M381 520H443L393 291H622L609 229H380L331 0H269L318 229H89L102 291H331L381 520Z"  />
<glyph unicode="&#x2c;" horiz-adv-x="305" d="M201 0L105 -148H63L143 0H103L126 110H224L201 0Z"  />
<glyph unicode="-" horiz-adv-x="333" d="M89 229L102 291H354L341 229H89Z"  />
<glyph unicode="." horiz-adv-x="305" d="M224 110L201 0H103L126 110H224Z"  />
<glyph unicode="/" horiz-adv-x="278" d="M444 732L49 -10H-10L383 732H444Z"  />
<glyph unicode="0" horiz-adv-x="611" d="M204 361Q185 275 185 211Q185 127 218 90T316 52Q404 52 465 124T562 361Q581 447 581 511Q581 595 548 632T450 670Q362 670 301 598T204 361ZM128 361Q149 459 182 529T257 644T352 710T463 732Q555 732 606 680T657 514Q657 447 638 361Q617 263 584 193T508 78T413 12T302 -10Q211 -10 160 41T109 206Q109 239 113 277T128 361Z"  />
<glyph unicode="1" horiz-adv-x="611" d="M155 0L168 62H293L420 649L278 635L288 682Q328 693 369 705T438 732H510L365 62H488L475 0H155Z"  />
<glyph unicode="2" horiz-adv-x="611" d="M535 0H66L82 76Q127 139 178 184T280 265T380 329T469 388T537 453T576 538Q580 555 580 573Q580 620 549 645T459 670Q420 670 387 656T328 619T284 568T255 513L187 529Q204 566 228 602T286 668T367 714T474 732Q513 732 546 723T604 694T643 648T657 584Q657 565 652 540Q640 485 607 442T529 363T431 293T327 225T231 151T155 62H548L535 0Z"  />
<glyph unicode="3" horiz-adv-x="611" d="M129 172Q158 116 201 84T301 52Q381 52 434 89T501 192Q503 204 504 214T506 236Q506 293 465 323T332 354H261L275 416H318Q426 416 482 450T553 551Q556 564 556 576Q556 620 525 645T447 670Q414 670 388 663T339 643T295 612T251 570L201 610Q248 661 310 696T460 732Q543 732 588 697T634 597Q634 586 633 575T629 552Q622 519 607 493T571 448T528 414T482 392Q542 366 563 328T585 249Q585 236 583 224T579 200Q569 154 544 116T480 49T393 6T287 -10Q235 -10 197 4T131 40T87 86T62 132L129 172Z"  />
<glyph unicode="4" horiz-adv-x="611" d="M164 232H420L509 646H506L164 232ZM478 170L442 0H370L406 170H74L88 232L492 722H598L492 232H616L602 170H478Z"  />
<glyph unicode="5" horiz-adv-x="611" d="M643 660H333L265 429Q308 461 348 474T426 488Q465 488 498 477T557 444T596 388T611 309Q611 294 610 278T604 244Q595 203 573 158T512 76T421 14T299 -10Q253 -10 220 1T164 32T126 77T99 128L172 162Q187 113 222 83T315 52Q351 52 384 63T446 97T496 156T528 244Q534 271 534 296Q534 355 502 390T406 426Q353 426 308 397T230 317L170 331L287 722H657L643 660Z"  />
<glyph unicode="6" horiz-adv-x="611" d="M522 220Q525 233 526 244T527 267Q527 298 518 321T492 360T454 384T408 392Q375 392 340 380T275 346T221 297T189 238Q187 227 186 217T185 197Q185 166 194 140T220 94T263 63T323 52Q361 52 394 64T453 99T496 152T522 220ZM617 629Q596 649 571 659T503 670Q460 670 417 652T334 597T264 503T215 368Q235 385 257 400T306 428T363 447T432 454Q467 454 498 444T554 412T592 358T606 283Q606 253 599 222Q586 164 557 121T489 48T405 5T315 -10Q270 -10 233 1T170 37T129 100T114 195Q114 253 130 324Q148 409 183 483T267 613T379 700T514 732Q573 732 610 719T661 690L617 629Z"  />
<glyph unicode="7" horiz-adv-x="611" d="M216 660L230 722H688L678 678L227 0H143L582 660H216Z"  />
<glyph unicode="8" horiz-adv-x="611" d="M582 556Q585 568 585 579Q585 603 574 620T544 648T501 664T450 670Q420 670 391 664T336 643T293 608T268 556Q267 551 267 547T266 537Q266 512 279 493T311 458T353 433T395 417Q426 424 457 437T514 467T558 507T582 556ZM158 188Q155 176 155 164Q155 143 164 123T192 87T242 62T316 52Q365 52 403 64T468 95T511 139T532 188Q535 200 535 212Q535 238 523 258T488 295T435 325T368 352Q332 338 297 323T234 288T185 244T158 188ZM608 188Q599 147 575 111T513 48T421 6T302 -10Q244 -10 202 1T132 34T91 83T77 146Q77 165 82 188Q89 222 108 251T154 305T214 349T283 384V386Q237 405 212 438T187 517Q187 536 191 552Q201 596 226 630T287 686T368 720T463 732Q507 732 543 723T606 697T647 653T662 592Q662 575 657 552Q645 495 602 452T493 386V384Q544 364 578 325T612 228Q612 207 608 188Z"  />
<glyph unicode="9" horiz-adv-x="611" d="M244 502Q241 489 240 478T239 455Q239 424 248 401T274 362T312 338T358 330Q391 330 422 340T480 368T531 410T571 464Q574 481 576 496T578 526Q578 594 544 632T444 670Q406 670 373 658T314 623T270 570T244 502ZM150 93Q170 73 196 63T264 52Q307 52 349 71T430 128T500 222T551 354Q531 337 509 322T460 294T403 275T335 268Q300 268 269 278T213 310T175 363T161 438Q161 469 168 500Q180 558 209 601T277 674T361 717T451 732Q496 732 533 721T596 685T637 621T652 526Q652 471 637 398Q618 312 583 238T499 109T387 22T252 -10Q193 -10 156 3T105 32L150 93Z"  />
<glyph unicode=":" horiz-adv-x="305" d="M165 290L189 400H287L263 290H165ZM103 0L126 110H224L201 0H103Z"  />
<glyph unicode=";" horiz-adv-x="305" d="M165 290L189 400H287L263 290H165ZM201 0L105 -148H63L143 0H103L126 110H224L201 0Z"  />
<glyph unicode="&lt;" horiz-adv-x="600" d="M554 0L96 232L108 288L666 520L653 458L174 260L567 62L554 0Z"  />
<glyph unicode="=" horiz-adv-x="600" d="M587 127H67L80 189H600L587 127ZM631 331H111L125 393H645L631 331Z"  />
<glyph unicode="&gt;" horiz-adv-x="600" d="M538 260L145 458L158 520L616 289L603 231L46 0L59 62L538 260Z"  />
<glyph unicode="?" horiz-adv-x="444" d="M256 110L233 0H135L158 110H256ZM201 228L213 283Q221 321 238 349T277 402T323 446T368 487T405 531T428 584Q430 589 430 595Q430 601 430 606Q430 631 415 650T363 670Q328 670 300 653T241 593L187 622Q224 676 272 704T374 732Q401 732 425 725T468 702T496 665T507 615Q507 596 503 580Q496 547 479 521T439 470T391 425T343 381T304 335T281 284L269 228H201Z"  />
<glyph unicode="@" horiz-adv-x="800" d="M336 308Q334 298 333 289T332 271Q332 243 344 227T383 210Q417 210 451 229T513 279T561 344T588 409Q591 425 591 439Q591 472 575 486T536 501Q500 501 467 482T406 435T361 372T336 308ZM671 554H738L599 279Q592 265 586 253T578 230Q577 227 577 222Q577 205 595 205Q623 205 652 224T708 273T753 340T781 414Q788 443 788 473Q788 520 771 556T723 617T650 655T559 668Q493 668 433 644T324 578T241 480T193 358Q185 320 185 288Q185 236 202 193T252 119T328 71T426 54Q501 54 572 81T697 162H773Q740 119 698 87T609 34T512 1T412 -10Q345 -10 290 12T195 72T134 164T112 279Q112 317 121 358Q138 437 182 505T288 624T423 703T573 732Q634 732 685 715T774 665T833 589T854 489Q854 456 847 425Q831 352 797 299T720 210T634 157T556 140Q529 140 514 155T498 193Q498 195 498 197T499 202L497 201Q471 178 435 159T365 140Q311 140 281 174T250 260Q250 269 251 278T254 298Q265 348 292 397T356 484T440 547T535 571Q576 571 602 554T638 494L671 554Z"  />
<glyph unicode="A" horiz-adv-x="611" d="M259 294H478L455 666H444L259 294ZM24 0L402 722H521L587 0H503L483 226H224L108 0H24Z"  />
<glyph unicode="B" horiz-adv-x="667" d="M277 412H417Q462 412 496 422T554 450T592 490T611 535Q613 545 614 554T615 572Q615 654 501 654H329L277 412ZM202 68H352Q441 68 491 99T556 198Q558 206 559 214T560 231Q560 285 518 314T400 344H262L202 68ZM264 722H530Q612 722 654 682T697 582Q697 573 696 564T693 544Q680 484 643 443T535 378L536 376Q584 363 612 327T640 238Q640 219 635 194Q626 153 606 118T549 57T459 15T332 0H187H108L264 722Z"  />
<glyph unicode="C" horiz-adv-x="611" d="M618 216Q595 166 566 125T499 53T416 7T315 -10Q218 -10 161 47T104 224Q104 254 108 288T120 361Q139 449 172 518T251 634T354 707T476 732Q577 732 624 677T674 522L596 500Q594 538 587 568T563 620T519 652T451 664Q412 664 374 646T303 591T243 496T200 361Q185 290 185 237Q185 144 225 101T336 58Q378 58 410 72T468 111T514 166T549 230L618 216Z"  />
<glyph unicode="D" horiz-adv-x="667" d="M194 68H302Q427 68 506 141T618 361Q630 419 630 465Q630 565 577 609T433 654H321L194 68ZM256 722H450Q572 722 641 660T711 473Q711 420 698 361Q681 281 646 215T558 101T439 27T290 0H180H100L256 722Z"  />
<glyph unicode="E" horiz-adv-x="611" d="M697 722L682 654H329L277 412H528L513 344H262L202 68H575L561 0H187H108L264 722H697Z"  />
<glyph unicode="F" horiz-adv-x="556" d="M684 722L669 654H321L269 412H527L512 344H254L180 0H100L256 722H684Z"  />
<glyph unicode="G" horiz-adv-x="667" d="M662 347L587 0H521L535 66H533Q497 28 442 9T327 -10Q228 -10 169 48T110 227Q110 288 126 361Q146 456 182 526T265 641T369 709T488 732Q534 732 571 721T636 684T681 618T702 520L623 505Q615 591 578 627T477 664Q437 664 397 649T321 599T255 506T206 361Q191 290 191 239Q191 188 203 154T237 98T286 68T346 58Q390 58 425 70T487 105T530 156T554 218L567 279H404L419 347H662Z"  />
<glyph unicode="H" horiz-adv-x="722" d="M770 722L614 0H534L608 344H262L188 0H108L264 722H344L277 412H623L690 722H770Z"  />
<glyph unicode="I" horiz-adv-x="333" d="M362 722L206 0H126L282 722H362Z"  />
<glyph unicode="J" horiz-adv-x="444" d="M500 722L384 186Q361 83 309 37T175 -10Q143 -10 120 -3T79 18T48 48T25 83L94 122Q105 94 129 76T188 58Q225 58 255 80T299 165L420 722H500Z"  />
<glyph unicode="K" horiz-adv-x="667" d="M196 0H116L272 722H352L271 347H273L653 722H748L465 450L619 0H528L396 384L248 242L196 0Z"  />
<glyph unicode="L" horiz-adv-x="556" d="M108 0L264 722H344L202 68H544L530 0H108Z"  />
<glyph unicode="M" horiz-adv-x="833" d="M653 0L795 660H792L448 0H386L325 660H322L180 0H108L264 722H388L445 138H447L755 722H881L725 0H653Z"  />
<glyph unicode="N" horiz-adv-x="722" d="M108 0L264 722H379L573 166H577L698 722H770L614 0H548L321 644H319L180 0H108Z"  />
<glyph unicode="O" horiz-adv-x="667" d="M209 361Q201 325 197 293T193 234Q193 144 232 101T345 58Q441 58 510 132T613 361Q628 431 628 486Q628 577 589 620T476 664Q381 664 312 590T209 361ZM129 361Q168 542 263 637T491 732Q597 732 653 672T709 496Q709 434 693 361Q653 179 559 85T330 -10Q224 -10 169 50T113 225Q113 255 117 289T129 361Z"  />
<glyph unicode="P" horiz-adv-x="611" d="M264 390H400Q450 390 485 398T545 423T584 465T605 522Q607 532 608 541T609 560Q609 654 475 654H321L264 390ZM100 0L256 722H508Q605 722 648 681T691 574Q691 548 685 520Q665 430 589 376T377 322H249L180 0H100Z"  />
<glyph unicode="Q" horiz-adv-x="667" d="M412 234Q460 227 487 211T531 160Q584 231 613 361Q628 431 628 486Q628 577 589 620T476 664Q381 664 312 590T209 361Q201 325 197 293T193 234Q193 144 232 101T345 58Q415 58 471 98Q459 125 443 138T395 157L412 234ZM637 -58Q603 -58 581 -52T543 -34T518 -5T498 37Q424 -10 330 -10Q224 -10 169 50T113 225Q113 255 117 289T129 361Q168 542 263 637T491 732Q597 732 653 672T709 496Q709 434 693 361Q654 181 559 86Q570 51 593 36T654 20L637 -58Z"  />
<glyph unicode="R" horiz-adv-x="667" d="M265 396H410Q493 396 542 427T607 528Q611 545 611 563Q611 615 572 634T465 654H321L265 396ZM100 0L256 722H488Q590 722 641 685T693 578Q693 567 692 556T688 532Q671 455 622 410T503 344L582 0H495L419 328H250L180 0H100Z"  />
<glyph unicode="S" horiz-adv-x="611" d="M564 538Q563 564 554 587T528 627T484 654T423 664Q360 664 319 635T264 552Q263 547 263 543T262 533Q262 501 287 480T349 441T430 407T511 368T573 316T598 239Q598 219 594 202Q585 163 565 125T510 57T425 9T305 -10Q246 -10 207 7T144 52T108 112T88 178L167 204Q171 175 181 149T210 103T256 70T324 58Q404 58 451 95T511 188Q514 200 514 212Q514 249 489 273T427 315T347 349T266 386T204 436T179 510Q179 529 183 546Q191 585 214 619T271 678T348 717T440 732Q525 732 577 688T639 554L564 538Z"  />
<glyph unicode="T" horiz-adv-x="556" d="M459 654L318 0H238L379 654H163L178 722H690L675 654H459Z"  />
<glyph unicode="U" horiz-adv-x="722" d="M344 722L233 212Q229 196 229 177Q229 126 264 92T373 58Q415 58 450 70T511 103T555 152T579 212L690 722H770L661 218Q649 164 622 122T554 50T464 6T358 -10Q261 -10 205 35T149 162Q149 188 155 218L264 722H344Z"  />
<glyph unicode="V" horiz-adv-x="556" d="M174 722H254L304 130H306L613 722H694L314 0H241L174 722Z"  />
<glyph unicode="W" horiz-adv-x="833" d="M184 722H260L269 146H271L536 722H607L626 146H628L885 722H961L634 0H563L541 584H539L273 0H202L184 722Z"  />
<glyph unicode="X" horiz-adv-x="556" d="M106 0H14L311 377L184 722H276L373 457L583 722H675L403 377L542 0H450L340 298L106 0Z"  />
<glyph unicode="Y" horiz-adv-x="556" d="M303 304L172 722H260L362 391L608 722H696L383 304L318 0H238L303 304Z"  />
<glyph unicode="Z" horiz-adv-x="556" d="M511 0H45L57 58L548 654H219L234 722H663L652 670L153 68H525L511 0Z"  />
<glyph unicode="[" horiz-adv-x="333" d="M232 722H436L427 680H295L141 -32H273L263 -74H130H59L232 722Z"  />
<glyph unicode="\" horiz-adv-x="278" d="M211 732L283 -10H223L150 732H211Z"  />
<glyph unicode="]" horiz-adv-x="333" d="M240 -74H168H36L46 -32H178L332 680H200L209 722H413L240 -74Z"  />
<glyph unicode="^" horiz-adv-x="600" d="M107 279L427 722H485L613 279H550L440 654L171 279H107Z"  />
<glyph unicode="_" horiz-adv-x="500" d="M-27 -125L-16 -75H483L472 -125H-27Z"  />
<glyph unicode="`" horiz-adv-x="278" d="M271 722L329 580H262L162 722H271Z"  />
<glyph unicode="a" horiz-adv-x="500" d="M420 281Q166 238 142 132Q140 122 140 117Q140 87 162 70T211 52Q230 52 253 58T300 77T346 104T389 138L420 281ZM147 420Q182 465 237 497T366 530Q395 530 422 524T470 503T504 467T517 413Q517 397 512 374L456 112Q448 80 446 59T443 20Q443 15 443 10T444 0H370L377 72Q343 42 295 16T187 -10Q135 -10 101 16T66 97Q66 116 70 133Q79 176 103 208T171 266T279 311T434 345L440 373Q443 388 443 400Q443 437 419 452T354 468Q324 468 300 461T257 441T225 415T203 387L147 420Z"  />
<glyph unicode="b" horiz-adv-x="556" d="M186 122Q216 84 241 68T302 52Q370 52 420 104T493 256Q498 282 501 303T504 343Q504 377 496 401T473 440T438 461T392 468Q360 468 321 448T245 396L186 122ZM316 722L261 470L266 472Q301 497 339 513T415 530Q443 530 471 521T523 489T561 432T576 346Q576 306 566 260Q549 182 518 130T448 47T369 3T294 -10Q247 -10 216 8T158 55L134 0H84Q95 29 100 57T112 114L244 722H316Z"  />
<glyph unicode="c" horiz-adv-x="500" d="M455 365Q450 413 426 440T354 468Q287 468 238 414T168 260Q158 217 158 179Q158 118 185 85T264 52Q289 52 309 56T349 72T388 101T428 148L480 122Q453 89 429 64T377 23T320 -2T250 -10Q171 -10 128 37T85 170Q85 208 96 260Q109 323 135 373T196 458T274 511T367 530Q407 530 435 520T481 490T510 445T527 389L455 365Z"  />
<glyph unicode="d" horiz-adv-x="556" d="M481 396Q459 428 429 448T366 468Q334 468 305 457T251 421T206 356T173 256Q164 214 164 180Q164 117 193 85T276 52Q293 52 309 56T343 68T379 90T422 122L481 396ZM624 722L492 114Q486 85 480 57T472 0H406L407 51Q383 26 343 8T256 -10Q227 -10 198 -1T145 29T106 84T91 170Q91 207 102 260Q118 336 149 387T218 470T296 516T369 530Q406 530 437 514T494 472L497 470L552 722H624Z"  />
<glyph unicode="e" horiz-adv-x="500" d="M444 308Q450 336 450 362Q450 411 426 439T355 468Q289 468 245 424T180 308H444ZM490 111Q472 89 451 68T403 29T342 1T263 -10Q227 -10 195 1T138 34T100 92T86 175Q86 216 96 260Q109 323 135 373T196 458T275 511T366 530Q399 530 427 521T477 493T510 444T522 372Q522 337 513 294L503 246H165Q159 216 159 190Q159 127 191 90T277 52Q325 52 366 75T440 140L490 111Z"  />
<glyph unicode="f" horiz-adv-x="333" d="M115 0L214 458H126L139 520H227L240 579Q250 625 264 654T297 701T342 725T400 732Q416 732 431 731T463 727L449 663Q436 665 424 667T399 670Q362 670 344 655T315 596L299 520H412L399 458H286L187 0H115Z"  />
<glyph unicode="g" horiz-adv-x="500" d="M401 -55Q402 -52 402 -48Q402 -45 402 -42Q402 -10 364 6T237 22Q195 22 165 14T116 -7T86 -35T73 -65Q71 -75 71 -79Q71 -91 77 -100T101 -116T149 -126T227 -130Q259 -130 288 -126T341 -112T380 -88T401 -55ZM442 344Q446 360 446 379Q446 421 420 444T337 468Q275 468 236 434T185 348Q182 334 182 322Q182 280 211 254T293 228Q324 228 349 237T393 263T424 300T442 344ZM581 468Q558 468 536 465T498 454Q504 444 509 426T515 384Q515 365 511 348Q503 309 481 276T427 219T358 180T281 166Q249 166 231 170T192 180Q149 168 141 132Q140 129 140 123Q140 109 149 102T176 94Q258 94 314 88T406 67T457 32T473 -19Q473 -36 469 -52Q463 -81 444 -106T391 -150T310 -181T202 -192Q103 -192 53 -168T2 -91Q2 -80 5 -66Q13 -27 41 -5T116 40Q92 48 79 64T66 101Q66 104 66 107Q66 111 67 114Q75 148 98 166T156 203Q133 223 123 249T112 305Q112 316 113 326T117 348Q126 389 148 422T202 480T272 517T353 530Q395 530 424 521T474 494Q501 511 534 524T596 540L581 468Z"  />
<glyph unicode="h" horiz-adv-x="556" d="M317 722L258 450H260Q298 485 342 507T431 530Q456 530 478 524T516 506T543 473T553 423Q553 412 552 402T548 378L467 0H395L476 376Q480 393 480 409Q480 441 462 454T411 468Q391 468 368 461T323 442T280 416T245 389L161 0H89L245 722H317Z"  />
<glyph unicode="i" horiz-adv-x="278" d="M333 732L314 646H242L261 732H333ZM215 520H287L175 0H103L215 520Z"  />
<glyph unicode="j" horiz-adv-x="278" d="M328 646H256L275 732H347L328 646ZM301 520L171 -83Q160 -131 125 -161T40 -192Q2 -192 -16 -180L-4 -121Q3 -125 11 -127T31 -130Q62 -130 77 -119T100 -78L229 520H301Z"  />
<glyph unicode="k" horiz-adv-x="500" d="M240 722H312L211 257H213L480 520H567L372 328L475 0H390L309 266L189 156L156 0H84L240 722Z"  />
<glyph unicode="l" horiz-adv-x="278" d="M331 722L175 0H103L259 722H331Z"  />
<glyph unicode="m" horiz-adv-x="833" d="M82 0L194 520H266L251 451L256 455Q298 492 341 511T423 530Q474 530 503 507T538 448Q581 485 628 507T721 530Q743 530 763 526T800 509T826 477T836 426Q836 402 830 372L750 0H678L758 372Q762 389 762 406Q762 440 745 454T698 468Q674 468 653 461T611 443T572 417T535 388L452 0H380L460 372Q464 389 464 406Q464 440 447 454T400 468Q376 468 355 461T313 443T274 417T237 388L154 0H82Z"  />
<glyph unicode="n" horiz-adv-x="556" d="M273 520L258 450H260Q298 485 342 507T431 530Q456 530 478 524T516 506T543 473T553 423Q553 412 552 402T548 378L467 0H395L476 376Q480 393 480 409Q480 441 462 454T411 468Q391 468 368 461T323 442T280 416T245 389L161 0H89L201 520H273Z"  />
<glyph unicode="o" horiz-adv-x="500" d="M447 260Q456 305 456 340Q456 403 429 435T351 468Q286 468 237 415T165 260Q156 215 156 180Q156 117 183 85T261 52Q326 52 375 105T447 260ZM519 260Q507 204 483 155T424 69T345 11T247 -10Q205 -10 174 3T123 41T93 98T83 172Q83 216 93 260Q105 316 129 365T187 451T266 509T364 530Q406 530 437 517T489 479T519 421T529 347Q529 327 527 305T519 260Z"  />
<glyph unicode="p" horiz-adv-x="556" d="M186 124Q209 92 239 72T302 52Q333 52 362 63T417 99T462 164T495 264Q504 306 504 339Q504 402 475 435T392 468Q357 468 325 452T246 398L186 124ZM46 -192L200 520H272L259 459H261Q274 474 292 486T330 509T371 524T411 530Q440 530 469 521T523 491T562 436T577 350Q577 313 566 260Q549 184 518 133T449 50T371 4T298 -10Q261 -10 230 6T174 48L170 50L118 -192H46Z"  />
<glyph unicode="q" horiz-adv-x="556" d="M482 398Q451 436 426 452T366 468Q298 468 247 416T175 264Q170 238 167 217T164 177Q164 109 195 81T276 52Q308 52 347 72T422 124L482 398ZM354 -192L406 50L402 48Q367 23 328 7T252 -10Q224 -10 196 -1T144 30T107 86T92 172Q92 213 102 260Q119 338 150 390T220 473T298 517T373 530Q420 530 450 512T497 465L522 520H580L426 -192H354Z"  />
<glyph unicode="r" horiz-adv-x="333" d="M182 520H254L232 417H234Q255 444 275 464T319 499T368 520T427 528L411 456Q343 454 295 412T204 288L142 0H70L182 520Z"  />
<glyph unicode="s" horiz-adv-x="444" d="M109 132Q126 95 159 74T241 52Q300 52 332 78T371 138Q372 143 372 146T373 154Q373 180 354 195T307 221T246 241T185 264T138 299T119 355Q119 363 120 371T124 390Q141 457 194 493T323 530H326Q377 529 422 504T485 439L425 395Q403 432 376 450T307 468Q261 468 233 447T196 391Q195 387 195 379Q195 356 213 343T260 319T321 299T382 274T429 236T448 176Q448 168 447 160T444 142Q436 104 415 76T364 28T299 0T229 -10Q168 -10 119 15T43 89L109 132Z"  />
<glyph unicode="t" horiz-adv-x="333" d="M215 520L252 691H324L287 520H407L394 458H274L194 88Q193 85 193 79Q193 52 245 52Q263 52 279 53T310 57L297 -2Q286 -5 265 -7T211 -10Q162 -10 139 2T116 47Q116 59 119 76L202 458H117L130 520H215Z"  />
<glyph unicode="u" horiz-adv-x="556" d="M395 0L410 70H408Q370 35 326 13T236 -10Q211 -10 189 -4T151 15T124 48T114 98Q114 108 115 119T119 142L201 520H273L192 144Q188 127 188 111Q188 79 206 66T257 52Q277 52 300 59T345 78T387 104T423 131L507 520H579L467 0H395Z"  />
<glyph unicode="v" horiz-adv-x="444" d="M272 0H176L128 520H201L240 90H242L467 520H540L272 0Z"  />
<glyph unicode="w" horiz-adv-x="667" d="M128 520H201L219 120H221L410 520H483L500 118H502L690 520H763L512 0H439L422 402H420L230 0H157L128 520Z"  />
<glyph unicode="x" horiz-adv-x="444" d="M291 335L440 520H521L322 273L432 0H349L265 213L93 0H12L235 273L136 520H217L291 335Z"  />
<glyph unicode="y" horiz-adv-x="444" d="M540 520L256 -8L235 -46Q211 -90 185 -118T133 -162T80 -185T28 -192Q10 -192 0 -190T-22 -186L-9 -127Q-2 -128 7 -129T28 -130Q44 -130 65 -127T107 -111T151 -74T191 -6L124 520H200L254 123H256L464 520H540Z"  />
<glyph unicode="z" horiz-adv-x="444" d="M414 0H30L41 52L413 458H157L170 520H524L513 468L141 62H427L414 0Z"  />
<glyph unicode="{" horiz-adv-x="333" d="M122 345Q153 345 173 365T201 423L244 622Q255 673 284 702T361 732H423L414 690H376Q355 690 340 677T319 634L269 404Q261 366 237 348T178 325L177 323Q205 318 221 305T237 266Q237 256 234 244L185 14Q182 2 182 -8Q182 -42 217 -42H255L246 -84H184Q146 -84 128 -65T110 -12Q110 -3 111 6T115 26L158 225Q161 241 161 254Q161 303 113 303L122 345Z"  />
<glyph unicode="|" horiz-adv-x="222" d="M238 732H300L139 -10H77L238 732Z"  />
<glyph unicode="}" horiz-adv-x="333" d="M350 303Q319 303 299 283T271 225L228 26Q217 -25 188 -54T111 -84H49L58 -42H96Q117 -42 132 -29T154 14L203 244Q211 282 235 300T294 323L295 325Q267 330 251 343T235 382Q235 392 238 404L288 634Q290 640 290 645Q290 650 290 655Q290 690 255 690H217L226 732H288Q326 732 344 713T362 660Q362 651 361 642T357 622L314 423Q311 406 311 394Q311 345 359 345L350 303Z"  />
<glyph unicode="~" horiz-adv-x="600" d="M595 285Q579 268 563 252T529 224T491 204T448 196Q418 196 396 206T351 230Q329 243 305 253T246 264Q213 264 189 242T146 191L117 236Q130 253 145 269T178 298T217 318T264 326Q292 326 319 316T372 292Q398 279 420 269T462 258Q492 258 517 280T566 329L595 285Z"  />
<glyph unicode="&#xA0;" horiz-adv-x="305" />
<glyph unicode="&#xA1;" horiz-adv-x="333" d="M206 410L230 520H328L304 410H206ZM70 -202L198 292H262L176 -202H70Z"  />
<glyph unicode="&#xA2;" horiz-adv-x="611" d="M445 460Q427 468 404 468Q337 468 288 414T218 260Q208 217 208 179Q208 124 231 92L445 460ZM270 60Q280 55 291 54T314 52Q339 52 359 56T399 72T438 101T478 148L530 122Q503 89 479 64T427 23T370 -2T300 -10Q282 -10 266 -8T236 1L170 -111H113L192 25Q135 73 135 170Q135 208 146 260Q159 323 185 373T246 458T324 511T417 530Q456 530 480 521L532 610H589L523 497Q546 478 558 451T577 389L505 365Q500 406 483 429L270 60Z"  />
<glyph unicode="&#xA3;" horiz-adv-x="611" d="M420 328H276V320Q276 306 274 292T268 260Q261 230 249 195T211 125Q233 113 253 100T293 77T330 59T369 52Q440 52 482 85T550 180L612 168Q577 77 517 34T373 -10Q335 -10 306 -3T252 15T205 40T161 68Q135 39 102 18T24 -10L41 68Q63 72 86 85T130 121T167 172T191 237Q196 263 199 285T203 328H96L110 390H208Q210 419 212 447T221 508Q232 559 255 600T313 670T392 716T490 732Q584 732 629 684T676 546L605 534Q603 555 598 579T579 623T542 656T481 670Q437 670 406 657T354 623T320 576T301 524Q292 482 288 449T282 390H434L420 328Z"  />
<glyph unicode="&#xA4;" horiz-adv-x="611" d="M342 171Q381 171 417 184T484 221T537 281T569 361Q572 374 573 385T574 408Q574 474 533 512T424 551Q385 551 348 538T281 500T228 440T197 361Q191 335 191 312Q191 245 233 208T342 171ZM677 570L610 515Q636 471 636 413Q636 400 635 388T631 361Q621 317 598 278T543 207L586 152L535 110L491 166Q456 141 415 127T329 113Q285 113 250 127T189 166L121 110L88 152L155 207Q129 251 129 307Q129 332 135 361Q144 405 167 444T222 515L179 570L230 612L274 556Q309 581 350 595T436 609Q480 609 515 595T576 556L644 612L677 570Z"  />
<glyph unicode="&#xA5;" horiz-adv-x="611" d="M339 0H271L321 234H144L158 296H335L336 304L312 384H177L190 446H292L205 722H277L386 375L645 722H717L510 446H612L599 384H465L404 304L403 296H580L566 234H389L339 0Z"  />
<glyph unicode="&#xA6;" horiz-adv-x="222" d="M238 732H300L239 452H177L238 732ZM138 270H200L139 -10H77L138 270Z"  />
<glyph unicode="&#xA7;" horiz-adv-x="500" d="M284 456Q259 456 238 440T212 401Q211 398 211 394Q211 391 211 388Q211 367 225 344T269 283Q285 261 297 247T319 224T340 212T361 208Q384 208 404 223T431 264Q432 268 432 275Q432 294 419 320T373 388Q355 411 343 424T321 445T303 454T284 456ZM155 36Q167 10 187 -10T243 -30Q273 -30 296 -13T326 34Q327 38 327 45Q327 67 314 94T280 150T235 211T191 273T157 332T143 385Q143 394 144 398Q154 445 190 473T287 504Q272 530 261 548T250 591Q250 598 251 605T254 620Q258 642 272 662T306 698T351 723T406 732Q451 732 479 713T534 649L480 622Q476 628 470 637T455 656T431 671T398 678Q368 678 348 661T322 620Q321 616 321 613T320 606Q320 597 324 588T338 563T365 525T409 468Q435 435 453 410T482 366T498 330T503 297Q503 283 500 268Q494 243 482 224T451 192T412 171T367 160Q381 138 389 118T398 72Q398 53 394 36Q389 14 376 -7T343 -46T294 -73T231 -84Q180 -84 146 -60T97 4L155 36Z"  />
<glyph unicode="&#xA8;" horiz-adv-x="278" d="M143 590L164 684H252L231 590H143ZM301 590L322 684H410L389 590H301Z"  />
<glyph unicode="&#xA9;" horiz-adv-x="800" d="M660 292Q629 219 570 177T442 134Q358 134 313 182T267 305Q267 333 273 363Q283 412 307 453T365 525T443 572T537 589Q605 589 647 553T690 448V436H623V438Q623 480 597 504T525 529Q490 529 461 517T408 482T369 430T345 364Q343 352 342 341T340 318Q340 265 368 230T454 194Q502 194 539 220T592 292H660ZM782 362Q786 381 788 398T790 433Q790 485 773 529T723 605T646 654T546 672Q481 672 421 649T310 584T224 485T174 362Q169 342 168 324T166 288Q166 235 183 191T233 116T310 67T411 50Q475 50 535 73T646 138T731 237T782 362ZM102 362Q119 442 164 509T271 626T407 704T559 732Q625 732 680 711T776 651T840 560T863 442Q863 404 854 362Q836 281 791 213T684 96T548 18T398 -10Q332 -10 276 11T180 70T116 162T93 280Q93 320 102 362Z"  />
<glyph unicode="&#xAA;" horiz-adv-x="300" d="M341 579Q266 565 224 545T174 493Q174 491 174 490T173 486Q173 472 183 463T214 454Q241 454 272 467T323 497L341 579ZM169 666Q191 693 226 712T310 732Q329 732 347 728T379 716T401 694T410 660Q410 655 410 649Q410 644 408 638L374 481Q369 462 368 450T367 427V414H314L316 449Q296 437 267 423T200 408Q165 408 142 424T118 474Q118 479 118 484T120 494Q126 519 141 539T185 575T254 603T351 625L354 638Q355 642 355 649Q355 668 341 677T300 686Q261 686 238 672T204 642L169 666Z"  />
<glyph unicode="&#xAB;" horiz-adv-x="500" d="M510 418L347 260L442 102H374L276 260L440 418H510ZM370 418L207 260L302 102H234L136 260L300 418H370Z"  />
<glyph unicode="&#xAC;" horiz-adv-x="600" d="M569 331H111L125 393H645L587 127H525L569 331Z"  />
<glyph unicode="&#xAD;" horiz-adv-x="333" d="M89 229L102 291H354L341 229H89Z"  />
<glyph unicode="&#xAE;" horiz-adv-x="800" d="M405 387H483Q543 387 569 404T604 457Q605 462 605 466T606 476Q606 498 588 509T523 521H434L405 387ZM353 147H287L380 575H544Q610 575 642 554T674 488Q674 470 670 453Q657 395 620 368T532 335L613 147H541L468 333H394L353 147ZM782 362Q786 381 788 398T790 433Q790 485 773 529T723 605T646 654T546 672Q481 672 421 649T310 584T224 485T174 362Q169 342 168 324T166 288Q166 235 183 191T233 116T310 67T411 50Q475 50 535 73T646 138T731 237T782 362ZM102 362Q119 442 164 509T271 626T407 704T559 732Q625 732 680 711T776 651T840 560T863 442Q863 404 854 362Q836 281 791 213T684 96T548 18T398 -10Q332 -10 276 11T180 70T116 162T93 280Q93 320 102 362Z"  />
<glyph unicode="&#xAF;" horiz-adv-x="278" d="M115 612L128 672H440L427 612H115Z"  />
<glyph unicode="&#xB0;" horiz-adv-x="400" d="M231 588Q228 576 228 564Q228 530 249 509T305 488Q325 488 344 495T379 516T406 548T423 588Q425 594 425 599Q425 605 425 610Q425 645 404 666T348 688Q328 688 309 681T274 660T247 628T231 588ZM183 588Q189 618 206 644T247 689T299 720T358 732Q410 732 442 700T474 619Q474 604 471 588Q464 558 447 532T407 486T355 455T296 444Q244 444 212 475T179 556Q179 564 180 572T183 588Z"  />
<glyph unicode="&#xB1;" horiz-adv-x="600" d="M53 62H573L560 0H40L53 62ZM381 520H443L404 341H633L620 279H391L352 100H290L329 279H100L113 341H342L381 520Z"  />
<glyph unicode="&#xB2;" horiz-adv-x="366" d="M91 292L102 346Q144 401 195 435T291 494T371 545T414 610Q415 615 415 618T416 626Q416 651 397 666T340 682Q314 682 293 675T254 655T224 626T203 594L161 610Q173 634 191 656T233 695T288 722T354 732Q409 732 440 709T472 642Q472 629 469 616Q462 581 442 555T393 507T333 468T268 431T206 391T156 342H412L401 292H91Z"  />
<glyph unicode="&#xB3;" horiz-adv-x="366" d="M229 549H270Q327 549 360 566T403 624Q404 627 404 632Q404 652 385 667T333 682Q312 682 296 679T266 670T240 654T213 631L177 659Q208 690 247 711T344 732Q399 732 429 711T460 648Q460 637 457 624Q448 585 424 562T371 529V527Q403 516 416 491T429 439Q429 424 426 411Q414 355 364 321T240 286Q206 286 181 294T137 315T108 343T92 370L139 402Q158 366 186 351T251 336Q302 336 333 356T372 410Q375 423 375 435Q375 467 350 483T264 499H219L229 549Z"  />
<glyph unicode="&#xB4;" horiz-adv-x="278" d="M428 722L266 580H199L319 722H428Z"  />
<glyph unicode="&#xB5;" horiz-adv-x="556" d="M395 0L410 70H408Q370 35 326 13T236 -10Q193 -10 162 6L119 -192H47L201 520H273L192 144Q188 127 188 111Q188 79 206 66T257 52Q277 52 300 59T345 78T387 104T423 131L507 520H579L467 0H395Z"  />
<glyph unicode="&#xB6;" horiz-adv-x="500" d="M290 331Q251 331 219 343T165 375T131 424T119 484Q119 504 123 523Q144 622 214 672T391 722H668L657 672H586L422 -84H362L526 672H424L260 -84H200L290 331Z"  />
<glyph unicode="&#xB7;" horiz-adv-x="305" d="M146 259Q151 285 172 303T221 322Q244 322 257 308T271 272Q271 269 271 265Q271 262 270 259Q264 233 242 216T194 198Q171 198 158 211T144 244Q144 249 146 259Z"  />
<glyph unicode="&#xB8;" horiz-adv-x="278" d="M175 0L115 -58L117 -60Q132 -55 148 -55Q183 -55 199 -73T216 -116Q216 -127 213 -139Q204 -181 168 -202T74 -224Q43 -224 22 -218T-14 -203L11 -159Q23 -168 39 -173T73 -178Q128 -178 138 -135Q139 -132 139 -126Q139 -113 131 -105T106 -97Q95 -97 83 -98T58 -105L45 -86L127 0H175Z"  />
<glyph unicode="&#xB9;" horiz-adv-x="366" d="M377 732L293 342H372L361 292H148L159 342H235L308 682L220 669L227 702Q253 709 279 716T323 732H377Z"  />
<glyph unicode="&#xBA;" horiz-adv-x="300" d="M193 572Q187 545 187 525Q187 456 248 456Q288 456 315 486T353 570Q355 582 356 593T358 615Q358 648 344 666T298 684Q260 684 232 654T193 572ZM135 570Q152 646 198 689T308 732Q361 732 389 703T417 621Q417 597 411 570Q394 494 348 451T238 408Q186 408 158 437T129 520Q129 543 135 570Z"  />
<glyph unicode="&#xBB;" horiz-adv-x="500" d="M240 418L336 260L170 102H102L265 260L170 418H240ZM380 418L476 260L310 102H242L405 260L310 418H380Z"  />
<glyph unicode="&#xBC;" horiz-adv-x="916" d="M618 152H765L814 376H812L618 152ZM389 732L305 342H384L373 292H160L171 342H247L320 682L232 669L239 702Q265 709 291 716T335 732H389ZM216 -10L816 732H878L275 -10H216ZM809 102L787 0H733L755 102H547L556 147L803 434H880L819 152H900L890 102H809Z"  />
<glyph unicode="&#xBD;" horiz-adv-x="916" d="M389 732L305 342H384L373 292H160L171 342H247L320 682L232 669L239 702Q265 709 291 716T335 732H389ZM196 -10L796 732H858L255 -10H196ZM550 0L561 54Q589 91 621 117T686 165T750 202T806 236T849 272T872 318Q873 323 873 326T874 334Q874 359 856 374T799 390Q773 390 752 383T713 363T683 334T662 302L619 318Q631 342 649 364T692 403T747 430T813 440Q868 440 899 417T931 350Q931 337 928 324Q920 289 900 263T852 215T791 176T726 139T665 99T614 50H870L860 0H550Z"  />
<glyph unicode="&#xBE;" horiz-adv-x="916" d="M618 152H765L814 376H812L618 152ZM232 -10L832 732H894L291 -10H232ZM265 549H306Q363 549 396 566T439 624Q440 627 440 632Q440 652 421 667T369 682Q348 682 332 679T302 670T276 654T249 631L213 659Q244 690 283 711T380 732Q435 732 465 711T496 648Q496 637 493 624Q484 585 460 562T407 529V527Q439 516 452 491T465 439Q465 424 462 411Q450 355 400 321T276 286Q242 286 217 294T173 315T144 343T128 370L175 402Q194 366 222 351T287 336Q338 336 369 356T408 410Q411 423 411 435Q411 467 386 483T300 499H255L265 549ZM809 102L787 0H733L755 102H547L556 147L803 434H880L819 152H900L890 102H809Z"  />
<glyph unicode="&#xBF;" horiz-adv-x="444" d="M299 410L323 520H421L397 410H299ZM355 292L343 237Q335 199 318 171T278 118T233 74T188 33T150 -11T128 -64Q126 -69 126 -75Q126 -81 126 -86Q126 -111 141 -130T193 -150Q228 -150 256 -133T315 -73L368 -102Q332 -156 284 -184T182 -212Q155 -212 131 -205T88 -182T60 -146T49 -96Q49 -77 53 -60Q60 -28 77 -1T117 50T165 95T213 139T252 184T275 236L287 292H355Z"  />
<glyph unicode="&#xC0;" horiz-adv-x="611" d="M259 294H478L455 666H444L259 294ZM24 0L402 722H521L587 0H503L483 226H224L108 0H24ZM477 902L535 760H468L368 902H477Z"  />
<glyph unicode="&#xC1;" horiz-adv-x="611" d="M259 294H478L455 666H444L259 294ZM24 0L402 722H521L587 0H503L483 226H224L108 0H24ZM634 902L472 760H405L525 902H634Z"  />
<glyph unicode="&#xC2;" horiz-adv-x="611" d="M259 294H478L455 666H444L259 294ZM24 0L402 722H521L587 0H503L483 226H224L108 0H24ZM453 902H547L616 760H536L489 854L404 760H324L453 902Z"  />
<glyph unicode="&#xC3;" horiz-adv-x="611" d="M259 294H478L455 666H444L259 294ZM24 0L402 722H521L587 0H503L483 226H224L108 0H24ZM666 885Q660 867 648 848T620 814T585 788T546 778Q526 778 508 784T472 797Q454 805 437 810T401 816Q385 816 370 801T349 769H299Q313 814 346 846T430 878Q450 878 467 873T499 860Q515 852 529 847T560 841Q579 841 593 853T616 885H666Z"  />
<glyph unicode="&#xC4;" horiz-adv-x="611" d="M259 294H478L455 666H444L259 294ZM24 0L402 722H521L587 0H503L483 226H224L108 0H24ZM350 770L371 864H459L438 770H350ZM508 770L529 864H617L596 770H508Z"  />
<glyph unicode="&#xC5;" horiz-adv-x="611" d="M259 294H478L455 666H444L259 294ZM24 0L402 722H521L587 0H503L483 226H224L108 0H24ZM436 860Q435 856 435 848Q435 829 447 817T480 804Q503 804 523 820T548 860Q549 864 549 871Q549 891 537 903T504 916Q481 916 461 900T436 860ZM392 860Q396 881 408 899T436 930T472 952T513 960Q549 960 571 938T594 881Q594 876 594 870Q594 865 592 860Q587 839 576 821T548 790T511 768T470 760Q434 760 412 782T390 839Q390 844 390 849Q390 855 392 860Z"  />
<glyph unicode="&#xC6;" horiz-adv-x="1000" d="M560 294L641 666H619L333 294H560ZM579 722H1086L1071 654H718L666 412H917L902 344H651L591 68H964L950 0H576H497L545 226H279L107 0H16L579 722Z"  />
<glyph unicode="&#xC7;" horiz-adv-x="611" d="M618 216Q575 121 508 60T341 -9L291 -58L293 -60Q308 -55 324 -55Q359 -55 375 -73T392 -116Q392 -127 389 -139Q380 -181 344 -202T250 -224Q219 -224 198 -218T161 -203L187 -159Q199 -168 215 -173T249 -178Q304 -178 314 -135Q315 -132 315 -126Q315 -113 307 -105T282 -97Q271 -97 259 -98T234 -105L221 -86L294 -9Q206 -3 155 54T103 224Q103 282 120 361Q139 449 172 518T251 634T354 707T476 732Q577 732 624 677T674 522L596 500Q594 538 587 568T563 620T519 652T451 664Q412 664 374 646T303 591T243 496T200 361Q185 290 185 237Q185 144 225 101T336 58Q378 58 410 72T468 111T514 166T549 230L618 216Z"  />
<glyph unicode="&#xC8;" horiz-adv-x="611" d="M697 722L682 654H329L277 412H528L513 344H262L202 68H575L561 0H187H108L264 722H697ZM505 902L563 760H496L396 902H505Z"  />
<glyph unicode="&#xC9;" horiz-adv-x="611" d="M697 722L682 654H329L277 412H528L513 344H262L202 68H575L561 0H187H108L264 722H697ZM663 902L501 760H434L554 902H663Z"  />
<glyph unicode="&#xCA;" horiz-adv-x="611" d="M697 722L682 654H329L277 412H528L513 344H262L202 68H575L561 0H187H108L264 722H697ZM481 902H575L644 760H564L517 854L432 760H352L481 902Z"  />
<glyph unicode="&#xCB;" horiz-adv-x="611" d="M697 722L682 654H329L277 412H528L513 344H262L202 68H575L561 0H187H108L264 722H697ZM378 770L399 864H487L466 770H378ZM536 770L557 864H645L624 770H536Z"  />
<glyph unicode="&#xCC;" horiz-adv-x="333" d="M362 722L206 0H126L282 722H362ZM337 902L395 760H328L228 902H337Z"  />
<glyph unicode="&#xCD;" horiz-adv-x="333" d="M362 722L206 0H126L282 722H362ZM496 902L334 760H267L387 902H496Z"  />
<glyph unicode="&#xCE;" horiz-adv-x="333" d="M362 722L206 0H126L282 722H362ZM313 902H407L476 760H396L349 854L264 760H184L313 902Z"  />
<glyph unicode="&#xCF;" horiz-adv-x="333" d="M362 722L206 0H126L282 722H362ZM210 770L231 864H319L298 770H210ZM368 770L389 864H477L456 770H368Z"  />
<glyph unicode="&#xD0;" horiz-adv-x="667" d="M457 412L442 344H254L194 68H302Q427 68 506 141T618 361Q630 419 630 465Q630 565 577 609T433 654H321L269 412H457ZM189 412L256 722H450Q572 722 641 660T711 473Q711 420 698 361Q681 281 646 215T558 101T439 27T290 0H178H100L174 344H106L121 412H189Z"  />
<glyph unicode="&#xD1;" horiz-adv-x="722" d="M108 0L264 722H379L573 166H577L698 722H770L614 0H548L321 644H319L180 0H108ZM723 885Q717 867 705 848T677 814T642 788T603 778Q583 778 565 784T529 797Q511 805 494 810T458 816Q442 816 427 801T406 769H356Q370 814 403 846T487 878Q507 878 524 873T556 860Q572 852 586 847T617 841Q636 841 650 853T673 885H723Z"  />
<glyph unicode="&#xD2;" horiz-adv-x="667" d="M209 361Q201 325 197 293T193 234Q193 144 232 101T345 58Q441 58 510 132T613 361Q628 431 628 486Q628 577 589 620T476 664Q381 664 312 590T209 361ZM129 361Q168 542 263 637T491 732Q597 732 653 672T709 496Q709 434 693 361Q653 179 559 85T330 -10Q224 -10 169 50T113 225Q113 255 117 289T129 361ZM504 902L562 760H495L395 902H504Z"  />
<glyph unicode="&#xD3;" horiz-adv-x="667" d="M209 361Q201 325 197 293T193 234Q193 144 232 101T345 58Q441 58 510 132T613 361Q628 431 628 486Q628 577 589 620T476 664Q381 664 312 590T209 361ZM129 361Q168 542 263 637T491 732Q597 732 653 672T709 496Q709 434 693 361Q653 179 559 85T330 -10Q224 -10 169 50T113 225Q113 255 117 289T129 361ZM663 902L501 760H434L554 902H663Z"  />
<glyph unicode="&#xD4;" horiz-adv-x="667" d="M209 361Q201 325 197 293T193 234Q193 144 232 101T345 58Q441 58 510 132T613 361Q628 431 628 486Q628 577 589 620T476 664Q381 664 312 590T209 361ZM129 361Q168 542 263 637T491 732Q597 732 653 672T709 496Q709 434 693 361Q653 179 559 85T330 -10Q224 -10 169 50T113 225Q113 255 117 289T129 361ZM482 902H576L645 760H565L518 854L433 760H353L482 902Z"  />
<glyph unicode="&#xD5;" horiz-adv-x="667" d="M209 361Q201 325 197 293T193 234Q193 144 232 101T345 58Q441 58 510 132T613 361Q628 431 628 486Q628 577 589 620T476 664Q381 664 312 590T209 361ZM129 361Q168 542 263 637T491 732Q597 732 653 672T709 496Q709 434 693 361Q653 179 559 85T330 -10Q224 -10 169 50T113 225Q113 255 117 289T129 361ZM696 885Q690 867 678 848T650 814T615 788T576 778Q556 778 538 784T502 797Q484 805 467 810T431 816Q415 816 400 801T379 769H329Q343 814 376 846T460 878Q480 878 497 873T529 860Q545 852 559 847T590 841Q609 841 623 853T646 885H696Z"  />
<glyph unicode="&#xD6;" horiz-adv-x="667" d="M209 361Q201 325 197 293T193 234Q193 144 232 101T345 58Q441 58 510 132T613 361Q628 431 628 486Q628 577 589 620T476 664Q381 664 312 590T209 361ZM129 361Q168 542 263 637T491 732Q597 732 653 672T709 496Q709 434 693 361Q653 179 559 85T330 -10Q224 -10 169 50T113 225Q113 255 117 289T129 361ZM377 770L398 864H486L465 770H377ZM535 770L556 864H644L623 770H535Z"  />
<glyph unicode="&#xD7;" horiz-adv-x="600" d="M628 520L663 476L400 260L569 44L516 0L346 216L84 0L49 44L312 260L143 476L196 520L365 302L628 520Z"  />
<glyph unicode="&#xD8;" horiz-adv-x="667" d="M591 617Q553 664 476 664Q381 664 312 590T209 361Q194 290 194 238Q194 193 205 158L591 617ZM230 107Q266 58 345 58Q441 58 510 132T613 361Q628 431 628 484Q628 530 617 566L230 107ZM678 638Q709 581 709 496Q709 434 693 361Q653 179 559 85T330 -10Q232 -10 176 44L85 -64H18L144 85Q113 142 113 226Q113 288 129 361Q168 542 263 637T491 732Q589 732 644 680L719 770H789L678 638Z"  />
<glyph unicode="&#xD9;" horiz-adv-x="722" d="M344 722L233 212Q229 196 229 177Q229 126 264 92T373 58Q415 58 450 70T511 103T555 152T579 212L690 722H770L661 218Q649 164 622 122T554 50T464 6T358 -10Q261 -10 205 35T149 162Q149 188 155 218L264 722H344ZM532 902L590 760H523L423 902H532Z"  />
<glyph unicode="&#xDA;" horiz-adv-x="722" d="M344 722L233 212Q229 196 229 177Q229 126 264 92T373 58Q415 58 450 70T511 103T555 152T579 212L690 722H770L661 218Q649 164 622 122T554 50T464 6T358 -10Q261 -10 205 35T149 162Q149 188 155 218L264 722H344ZM688 902L526 760H459L579 902H688Z"  />
<glyph unicode="&#xDB;" horiz-adv-x="722" d="M344 722L233 212Q229 196 229 177Q229 126 264 92T373 58Q415 58 450 70T511 103T555 152T579 212L690 722H770L661 218Q649 164 622 122T554 50T464 6T358 -10Q261 -10 205 35T149 162Q149 188 155 218L264 722H344ZM508 902H602L671 760H591L544 854L459 760H379L508 902Z"  />
<glyph unicode="&#xDC;" horiz-adv-x="722" d="M344 722L233 212Q229 196 229 177Q229 126 264 92T373 58Q415 58 450 70T511 103T555 152T579 212L690 722H770L661 218Q649 164 622 122T554 50T464 6T358 -10Q261 -10 205 35T149 162Q149 188 155 218L264 722H344ZM405 770L426 864H514L493 770H405ZM563 770L584 864H672L651 770H563Z"  />
<glyph unicode="&#xDD;" horiz-adv-x="556" d="M303 304L172 722H260L362 391L608 722H696L383 304L318 0H238L303 304ZM607 902L445 760H378L498 902H607Z"  />
<glyph unicode="&#xDE;" horiz-adv-x="611" d="M234 250H370Q420 250 455 258T515 283T554 325T575 382Q577 392 578 401T579 420Q579 514 445 514H291L234 250ZM100 0L256 722H336L305 582H477Q525 582 560 571T617 540T650 493T661 433Q661 407 655 380Q635 290 559 236T347 182H219L180 0H100Z"  />
<glyph unicode="&#xDF;" horiz-adv-x="556" d="M274 76Q282 68 298 60T341 52Q368 52 390 63T428 92T457 136T475 191Q482 222 482 249Q482 314 442 341T332 368L346 430H375Q397 430 418 439T458 464T489 503T509 552Q511 563 512 572T514 590Q514 628 492 649T423 670Q364 670 332 636T282 536L166 0H94L213 554Q223 602 246 636T300 691T367 722T438 732Q514 732 550 697T587 604Q587 593 586 582T582 558Q571 507 541 468T461 407L460 405Q511 389 533 353T556 264Q556 234 548 196Q537 146 515 108T463 44T400 4T333 -10Q297 -10 275 -3T234 17L274 76Z"  />
<glyph unicode="&#xE0;" horiz-adv-x="500" d="M420 281Q166 238 142 132Q140 122 140 117Q140 87 162 70T211 52Q230 52 253 58T300 77T346 104T389 138L420 281ZM147 420Q182 465 237 497T366 530Q395 530 422 524T470 503T504 467T517 413Q517 397 512 374L456 112Q448 80 446 59T443 20Q443 15 443 10T444 0H370L377 72Q343 42 295 16T187 -10Q135 -10 101 16T66 97Q66 116 70 133Q79 176 103 208T171 266T279 311T434 345L440 373Q443 388 443 400Q443 437 419 452T354 468Q324 468 300 461T257 441T225 415T203 387L147 420ZM378 722L436 580H369L269 722H378Z"  />
<glyph unicode="&#xE1;" horiz-adv-x="500" d="M420 281Q166 238 142 132Q140 122 140 117Q140 87 162 70T211 52Q230 52 253 58T300 77T346 104T389 138L420 281ZM147 420Q182 465 237 497T366 530Q395 530 422 524T470 503T504 467T517 413Q517 397 512 374L456 112Q448 80 446 59T443 20Q443 15 443 10T444 0H370L377 72Q343 42 295 16T187 -10Q135 -10 101 16T66 97Q66 116 70 133Q79 176 103 208T171 266T279 311T434 345L440 373Q443 388 443 400Q443 437 419 452T354 468Q324 468 300 461T257 441T225 415T203 387L147 420ZM534 722L372 580H305L425 722H534Z"  />
<glyph unicode="&#xE2;" horiz-adv-x="500" d="M420 281Q166 238 142 132Q140 122 140 117Q140 87 162 70T211 52Q230 52 253 58T300 77T346 104T389 138L420 281ZM147 420Q182 465 237 497T366 530Q395 530 422 524T470 503T504 467T517 413Q517 397 512 374L456 112Q448 80 446 59T443 20Q443 15 443 10T444 0H370L377 72Q343 42 295 16T187 -10Q135 -10 101 16T66 97Q66 116 70 133Q79 176 103 208T171 266T279 311T434 345L440 373Q443 388 443 400Q443 437 419 452T354 468Q324 468 300 461T257 441T225 415T203 387L147 420ZM353 722H447L516 580H436L389 674L304 580H224L353 722Z"  />
<glyph unicode="&#xE3;" horiz-adv-x="500" d="M420 281Q166 238 142 132Q140 122 140 117Q140 87 162 70T211 52Q230 52 253 58T300 77T346 104T389 138L420 281ZM147 420Q182 465 237 497T366 530Q395 530 422 524T470 503T504 467T517 413Q517 397 512 374L456 112Q448 80 446 59T443 20Q443 15 443 10T444 0H370L377 72Q343 42 295 16T187 -10Q135 -10 101 16T66 97Q66 116 70 133Q79 176 103 208T171 266T279 311T434 345L440 373Q443 388 443 400Q443 437 419 452T354 468Q324 468 300 461T257 441T225 415T203 387L147 420ZM568 705Q562 687 550 668T522 634T487 608T448 598Q428 598 410 604T374 617Q356 625 339 630T303 636Q287 636 272 621T251 589H201Q215 634 248 666T332 698Q352 698 369 693T401 680Q417 672 431 667T462 661Q481 661 495 673T518 705H568Z"  />
<glyph unicode="&#xE4;" horiz-adv-x="500" d="M420 281Q166 238 142 132Q140 122 140 117Q140 87 162 70T211 52Q230 52 253 58T300 77T346 104T389 138L420 281ZM147 420Q182 465 237 497T366 530Q395 530 422 524T470 503T504 467T517 413Q517 397 512 374L456 112Q448 80 446 59T443 20Q443 15 443 10T444 0H370L377 72Q343 42 295 16T187 -10Q135 -10 101 16T66 97Q66 116 70 133Q79 176 103 208T171 266T279 311T434 345L440 373Q443 388 443 400Q443 437 419 452T354 468Q324 468 300 461T257 441T225 415T203 387L147 420ZM250 590L271 684H359L338 590H250ZM408 590L429 684H517L496 590H408Z"  />
<glyph unicode="&#xE5;" horiz-adv-x="500" d="M420 281Q166 238 142 132Q140 122 140 117Q140 87 162 70T211 52Q230 52 253 58T300 77T346 104T389 138L420 281ZM147 420Q182 465 237 497T366 530Q395 530 422 524T470 503T504 467T517 413Q517 397 512 374L456 112Q448 80 446 59T443 20Q443 15 443 10T444 0H370L377 72Q343 42 295 16T187 -10Q135 -10 101 16T66 97Q66 116 70 133Q79 176 103 208T171 266T279 311T434 345L440 373Q443 388 443 400Q443 437 419 452T354 468Q324 468 300 461T257 441T225 415T203 387L147 420ZM337 680Q336 676 336 668Q336 649 348 637T381 624Q404 624 424 640T449 680Q450 684 450 691Q450 711 438 723T405 736Q382 736 362 720T337 680ZM293 680Q297 701 309 719T337 750T373 772T414 780Q450 780 472 758T495 701Q495 696 495 690Q495 685 493 680Q488 659 477 641T449 610T412 588T371 580Q335 580 313 602T291 659Q291 664 291 669Q291 675 293 680Z"  />
<glyph unicode="&#xE6;" horiz-adv-x="778" d="M722 308Q728 336 728 360Q728 410 704 439T631 468Q568 468 530 424T474 308H722ZM396 281Q355 273 312 262T232 233T168 191T134 132Q133 127 133 123T132 115Q132 86 152 69T201 52Q226 52 251 60T298 80T337 106T365 134L396 281ZM461 246Q452 207 452 174Q452 116 480 84T567 52Q606 52 646 75T718 140L768 111Q750 89 729 68T682 29T622 1T547 -10Q523 -10 501 -7T458 6T421 33T392 78Q357 50 329 33T274 7T223 -6T173 -10Q150 -10 130 -3T93 17T67 49T57 94Q57 107 60 122Q73 180 106 218T187 282T292 321T410 345L416 373Q418 381 419 388T420 403Q420 468 339 468Q310 468 287 461T246 441T214 415T192 387L138 420Q171 465 225 497T348 530Q397 530 432 514T483 460Q511 487 552 508T648 530Q680 530 708 521T756 493T788 443T800 372Q800 337 791 294L781 246H461Z"  />
<glyph unicode="&#xE7;" horiz-adv-x="500" d="M455 365Q450 413 426 440T354 468Q287 468 238 414T168 260Q158 217 158 179Q158 118 185 85T264 52Q289 52 309 56T349 72T388 101T428 148L480 122Q455 92 433 69T386 29T336 3T276 -9L226 -58L228 -60Q243 -55 259 -55Q294 -55 310 -73T327 -116Q327 -127 324 -139Q315 -181 279 -202T185 -224Q154 -224 133 -218T96 -203L122 -159Q134 -168 150 -173T184 -178Q239 -178 249 -135Q250 -132 250 -126Q250 -113 242 -105T217 -97Q206 -97 194 -98T169 -105L156 -86L229 -9Q160 -2 123 44T85 170Q85 208 96 260Q109 323 135 373T196 458T274 511T367 530Q407 530 435 520T481 490T510 445T527 389L455 365Z"  />
<glyph unicode="&#xE8;" horiz-adv-x="500" d="M444 308Q450 336 450 362Q450 411 426 439T355 468Q289 468 245 424T180 308H444ZM490 111Q472 89 451 68T403 29T342 1T263 -10Q227 -10 195 1T138 34T100 92T86 175Q86 216 96 260Q109 323 135 373T196 458T275 511T366 530Q399 530 427 521T477 493T510 444T522 372Q522 337 513 294L503 246H165Q159 216 159 190Q159 127 191 90T277 52Q325 52 366 75T440 140L490 111ZM383 722L441 580H374L274 722H383Z"  />
<glyph unicode="&#xE9;" horiz-adv-x="500" d="M444 308Q450 336 450 362Q450 411 426 439T355 468Q289 468 245 424T180 308H444ZM490 111Q472 89 451 68T403 29T342 1T263 -10Q227 -10 195 1T138 34T100 92T86 175Q86 216 96 260Q109 323 135 373T196 458T275 511T366 530Q399 530 427 521T477 493T510 444T522 372Q522 337 513 294L503 246H165Q159 216 159 190Q159 127 191 90T277 52Q325 52 366 75T440 140L490 111ZM539 722L377 580H310L430 722H539Z"  />
<glyph unicode="&#xEA;" horiz-adv-x="500" d="M444 308Q450 336 450 362Q450 411 426 439T355 468Q289 468 245 424T180 308H444ZM490 111Q472 89 451 68T403 29T342 1T263 -10Q227 -10 195 1T138 34T100 92T86 175Q86 216 96 260Q109 323 135 373T196 458T275 511T366 530Q399 530 427 521T477 493T510 444T522 372Q522 337 513 294L503 246H165Q159 216 159 190Q159 127 191 90T277 52Q325 52 366 75T440 140L490 111ZM358 722H452L521 580H441L394 674L309 580H229L358 722Z"  />
<glyph unicode="&#xEB;" horiz-adv-x="500" d="M444 308Q450 336 450 362Q450 411 426 439T355 468Q289 468 245 424T180 308H444ZM490 111Q472 89 451 68T403 29T342 1T263 -10Q227 -10 195 1T138 34T100 92T86 175Q86 216 96 260Q109 323 135 373T196 458T275 511T366 530Q399 530 427 521T477 493T510 444T522 372Q522 337 513 294L503 246H165Q159 216 159 190Q159 127 191 90T277 52Q325 52 366 75T440 140L490 111ZM253 590L274 684H362L341 590H253ZM411 590L432 684H520L499 590H411Z"  />
<glyph unicode="&#xEC;" horiz-adv-x="278" d="M215 520H287L175 0H103L215 520ZM271 722L329 580H262L162 722H271Z"  />
<glyph unicode="&#xED;" horiz-adv-x="278" d="M215 520H287L175 0H103L215 520ZM428 722L266 580H199L319 722H428Z"  />
<glyph unicode="&#xEE;" horiz-adv-x="278" d="M215 520H287L175 0H103L215 520ZM247 722H341L410 580H330L283 674L198 580H118L247 722Z"  />
<glyph unicode="&#xEF;" horiz-adv-x="278" d="M215 520H287L175 0H103L215 520ZM143 590L164 684H252L231 590H143ZM301 590L322 684H410L389 590H301Z"  />
<glyph unicode="&#xF0;" horiz-adv-x="500" d="M261 52Q333 52 378 104T444 246Q452 286 452 315Q452 371 426 403T344 436Q272 436 226 384T162 246Q153 205 153 172Q153 115 179 84T261 52ZM347 722Q386 694 417 654L540 714L559 664L450 609Q485 555 506 489T528 351Q528 302 518 258Q506 199 482 150T424 66T345 10T247 -10Q162 -10 121 35T80 159Q80 179 82 201T90 246Q102 302 125 348T182 428T260 479T357 498Q378 498 397 493T428 484Q423 507 412 530T384 576L266 518L242 566L355 621Q333 648 313 668T279 698L347 722Z"  />
<glyph unicode="&#xF1;" horiz-adv-x="556" d="M273 520L258 450H260Q298 485 342 507T431 530Q456 530 478 524T516 506T543 473T553 423Q553 412 552 402T548 378L467 0H395L476 376Q480 393 480 409Q480 441 462 454T411 468Q391 468 368 461T323 442T280 416T245 389L161 0H89L201 520H273ZM601 705Q595 687 583 668T555 634T520 608T481 598Q461 598 443 604T407 617Q389 625 372 630T336 636Q320 636 305 621T284 589H234Q248 634 281 666T365 698Q385 698 402 693T434 680Q450 672 464 667T495 661Q514 661 528 673T551 705H601Z"  />
<glyph unicode="&#xF2;" horiz-adv-x="500" d="M447 260Q456 305 456 340Q456 403 429 435T351 468Q286 468 237 415T165 260Q156 215 156 180Q156 117 183 85T261 52Q326 52 375 105T447 260ZM519 260Q507 204 483 155T424 69T345 11T247 -10Q205 -10 174 3T123 41T93 98T83 172Q83 216 93 260Q105 316 129 365T187 451T266 509T364 530Q406 530 437 517T489 479T519 421T529 347Q529 327 527 305T519 260ZM381 722L439 580H372L272 722H381Z"  />
<glyph unicode="&#xF3;" horiz-adv-x="500" d="M447 260Q456 305 456 340Q456 403 429 435T351 468Q286 468 237 415T165 260Q156 215 156 180Q156 117 183 85T261 52Q326 52 375 105T447 260ZM519 260Q507 204 483 155T424 69T345 11T247 -10Q205 -10 174 3T123 41T93 98T83 172Q83 216 93 260Q105 316 129 365T187 451T266 509T364 530Q406 530 437 517T489 479T519 421T529 347Q529 327 527 305T519 260ZM540 722L378 580H311L431 722H540Z"  />
<glyph unicode="&#xF4;" horiz-adv-x="500" d="M447 260Q456 305 456 340Q456 403 429 435T351 468Q286 468 237 415T165 260Q156 215 156 180Q156 117 183 85T261 52Q326 52 375 105T447 260ZM519 260Q507 204 483 155T424 69T345 11T247 -10Q205 -10 174 3T123 41T93 98T83 172Q83 216 93 260Q105 316 129 365T187 451T266 509T364 530Q406 530 437 517T489 479T519 421T529 347Q529 327 527 305T519 260ZM357 722H451L520 580H440L393 674L308 580H228L357 722Z"  />
<glyph unicode="&#xF5;" horiz-adv-x="500" d="M447 260Q456 305 456 340Q456 403 429 435T351 468Q286 468 237 415T165 260Q156 215 156 180Q156 117 183 85T261 52Q326 52 375 105T447 260ZM519 260Q507 204 483 155T424 69T345 11T247 -10Q205 -10 174 3T123 41T93 98T83 172Q83 216 93 260Q105 316 129 365T187 451T266 509T364 530Q406 530 437 517T489 479T519 421T529 347Q529 327 527 305T519 260ZM575 705Q569 687 557 668T529 634T494 608T455 598Q435 598 417 604T381 617Q363 625 346 630T310 636Q294 636 279 621T258 589H208Q222 634 255 666T339 698Q359 698 376 693T408 680Q424 672 438 667T469 661Q488 661 502 673T525 705H575Z"  />
<glyph unicode="&#xF6;" horiz-adv-x="500" d="M447 260Q456 305 456 340Q456 403 429 435T351 468Q286 468 237 415T165 260Q156 215 156 180Q156 117 183 85T261 52Q326 52 375 105T447 260ZM519 260Q507 204 483 155T424 69T345 11T247 -10Q205 -10 174 3T123 41T93 98T83 172Q83 216 93 260Q105 316 129 365T187 451T266 509T364 530Q406 530 437 517T489 479T519 421T529 347Q529 327 527 305T519 260ZM254 590L275 684H363L342 590H254ZM412 590L433 684H521L500 590H412Z"  />
<glyph unicode="&#xF7;" horiz-adv-x="600" d="M339 468Q344 494 366 512T414 530Q437 530 450 516T464 480Q464 472 463 468Q457 442 435 424T387 406Q365 406 351 420T337 454Q337 458 339 468ZM249 52Q254 78 276 96T324 114Q347 114 360 100T374 64Q374 56 373 52Q367 26 345 8T297 -10Q275 -10 261 4T247 38Q247 42 249 52ZM89 229L102 291H622L609 229H89Z"  />
<glyph unicode="&#xF8;" horiz-adv-x="500" d="M420 443Q395 468 351 468Q286 468 237 415T165 260Q155 217 155 180Q155 163 157 150T163 124L420 443ZM190 77Q215 52 261 52Q326 52 375 105T447 260Q456 303 456 338Q456 370 448 396L190 77ZM614 602L501 462Q529 416 529 347Q529 327 527 305T519 260Q507 204 483 155T424 69T345 11T247 -10Q182 -10 145 21L62 -82H-1L111 59Q83 105 83 173Q83 216 93 260Q105 316 129 365T187 451T266 509T364 530Q427 530 466 499L549 602H614Z"  />
<glyph unicode="&#xF9;" horiz-adv-x="556" d="M395 0L410 70H408Q370 35 326 13T236 -10Q211 -10 189 -4T151 15T124 48T114 98Q114 108 115 119T119 142L201 520H273L192 144Q188 127 188 111Q188 79 206 66T257 52Q277 52 300 59T345 78T387 104T423 131L507 520H579L467 0H395ZM410 722L468 580H401L301 722H410Z"  />
<glyph unicode="&#xFA;" horiz-adv-x="556" d="M395 0L410 70H408Q370 35 326 13T236 -10Q211 -10 189 -4T151 15T124 48T114 98Q114 108 115 119T119 142L201 520H273L192 144Q188 127 188 111Q188 79 206 66T257 52Q277 52 300 59T345 78T387 104T423 131L507 520H579L467 0H395ZM567 722L405 580H338L458 722H567Z"  />
<glyph unicode="&#xFB;" horiz-adv-x="556" d="M395 0L410 70H408Q370 35 326 13T236 -10Q211 -10 189 -4T151 15T124 48T114 98Q114 108 115 119T119 142L201 520H273L192 144Q188 127 188 111Q188 79 206 66T257 52Q277 52 300 59T345 78T387 104T423 131L507 520H579L467 0H395ZM386 722H480L549 580H469L422 674L337 580H257L386 722Z"  />
<glyph unicode="&#xFC;" horiz-adv-x="556" d="M395 0L410 70H408Q370 35 326 13T236 -10Q211 -10 189 -4T151 15T124 48T114 98Q114 108 115 119T119 142L201 520H273L192 144Q188 127 188 111Q188 79 206 66T257 52Q277 52 300 59T345 78T387 104T423 131L507 520H579L467 0H395ZM282 590L303 684H391L370 590H282ZM440 590L461 684H549L528 590H440Z"  />
<glyph unicode="&#xFD;" horiz-adv-x="444" d="M540 520L256 -8L235 -46Q211 -90 185 -118T133 -162T80 -185T28 -192Q10 -192 0 -190T-22 -186L-9 -127Q-2 -128 7 -129T28 -130Q44 -130 65 -127T107 -111T151 -74T191 -6L124 520H200L254 123H256L464 520H540ZM511 722L349 580H282L402 722H511Z"  />
<glyph unicode="&#xFE;" horiz-adv-x="556" d="M186 124Q209 92 239 72T302 52Q333 52 362 63T417 99T462 164T495 264Q504 306 504 339Q504 402 475 435T392 468Q357 468 325 452T246 398L186 124ZM46 -192L244 722H316L259 459H261Q274 474 292 486T330 509T371 524T411 530Q440 530 469 521T523 491T562 436T577 350Q577 313 566 260Q549 184 518 133T449 50T371 4T298 -10Q261 -10 230 6T174 48L170 50L118 -192H46Z"  />
<glyph unicode="&#xFF;" horiz-adv-x="444" d="M540 520L256 -8L235 -46Q211 -90 185 -118T133 -162T80 -185T28 -192Q10 -192 0 -190T-22 -186L-9 -127Q-2 -128 7 -129T28 -130Q44 -130 65 -127T107 -111T151 -74T191 -6L124 520H200L254 123H256L464 520H540ZM226 590L247 684H335L314 590H226ZM384 590L405 684H493L472 590H384Z"  />
<glyph unicode="&#x131;" horiz-adv-x="278" d="M215 520H287L175 0H103L215 520Z"  />
<glyph unicode="&#x152;" horiz-adv-x="1000" d="M625 534Q627 545 628 554T630 573Q630 624 593 644T487 664Q371 664 299 587T194 361Q179 293 179 241Q179 150 222 104T356 58Q396 58 428 64T485 86T526 126T550 188L625 534ZM963 0H589H512Q474 0 433 -5T343 -10Q278 -10 232 8T156 58T113 135T99 234Q99 293 114 361Q131 439 163 507T243 625T356 703T504 732Q552 732 591 727T668 722H1099L1084 654H731L679 412H930L915 344H664L604 68H977L963 0Z"  />
<glyph unicode="&#x153;" horiz-adv-x="778" d="M742 308Q748 336 748 362Q748 411 724 439T653 468Q588 468 551 424T496 308H742ZM151 260Q146 235 143 214T140 172Q140 114 164 83T235 52Q301 52 345 106T412 260Q417 286 420 309T423 352Q423 409 400 438T325 468Q262 468 217 414T151 260ZM481 246Q476 224 474 204T471 166Q471 113 495 83T575 52Q622 52 662 75T728 140L778 111Q763 89 743 68T696 29T636 1T561 -10Q499 -10 462 12T410 85Q368 34 321 12T221 -10Q149 -10 109 37T68 169Q68 190 71 212T79 260Q92 323 118 373T178 458T253 511T338 530Q391 530 428 509T486 437Q524 491 572 510T672 530Q703 530 730 521T777 493T808 443T820 372Q820 337 811 294L801 246H481Z"  />
<glyph unicode="&#x160;" horiz-adv-x="611" d="M564 538Q563 564 554 587T528 627T484 654T423 664Q360 664 319 635T264 552Q263 547 263 543T262 533Q262 501 287 480T349 441T430 407T511 368T573 316T598 239Q598 219 594 202Q585 163 565 125T510 57T425 9T305 -10Q246 -10 207 7T144 52T108 112T88 178L167 204Q171 175 181 149T210 103T256 70T324 58Q404 58 451 95T511 188Q514 200 514 212Q514 249 489 273T427 315T347 349T266 386T204 436T179 510Q179 529 183 546Q191 585 214 619T271 678T348 717T440 732Q525 732 577 688T639 554L564 538ZM435 902L479 808L567 902H647L516 760H422L355 902H435Z"  />
<glyph unicode="&#x161;" horiz-adv-x="444" d="M109 132Q126 95 159 74T241 52Q300 52 332 78T371 138Q372 143 372 146T373 154Q373 180 354 195T307 221T246 241T185 264T138 299T119 355Q119 363 120 371T124 390Q141 457 194 493T323 530H326Q377 529 422 504T485 439L425 395Q403 432 376 450T307 468Q261 468 233 447T196 391Q195 387 195 379Q195 356 213 343T260 319T321 299T382 274T429 236T448 176Q448 168 447 160T444 142Q436 104 415 76T364 28T299 0T229 -10Q168 -10 119 15T43 89L109 132ZM313 722L357 628L445 722H525L394 580H300L233 722H313Z"  />
<glyph unicode="&#x178;" horiz-adv-x="556" d="M303 304L172 722H260L362 391L608 722H696L383 304L318 0H238L303 304ZM321 770L342 864H430L409 770H321ZM479 770L500 864H588L567 770H479Z"  />
<glyph unicode="&#x17D;" horiz-adv-x="556" d="M511 0H45L57 58L548 654H219L234 722H663L652 670L153 68H525L511 0ZM407 902L451 808L539 902H619L488 760H394L327 902H407Z"  />
<glyph unicode="&#x17E;" horiz-adv-x="444" d="M414 0H30L41 52L413 458H157L170 520H524L513 468L141 62H427L414 0ZM312 722L356 628L444 722H524L393 580H299L232 722H312Z"  />
<glyph unicode="&#x192;" horiz-adv-x="611" d="M38 -120Q43 -123 54 -126T83 -130Q107 -130 124 -125T154 -107T178 -76T200 -30L371 400H257L270 460H396L420 518Q444 576 468 617T519 683T579 720T652 732Q668 732 682 730T705 724L674 659Q666 664 657 667T632 670Q612 670 596 663T564 638T532 591T496 516L473 462H589L576 400H449L276 -21Q259 -62 240 -93T195 -147T136 -180T60 -192Q44 -192 34 -190T12 -186L38 -120Z"  />
<glyph unicode="&#x2C6;" horiz-adv-x="278" d="M247 722H341L410 580H330L283 674L198 580H118L247 722Z"  />
<glyph unicode="&#x2C7;" horiz-adv-x="278" d="M229 722L273 628L361 722H441L310 580H216L149 722H229Z"  />
<glyph unicode="&#x2DA;" horiz-adv-x="278" d="M230 680Q229 676 229 668Q229 649 241 637T274 624Q297 624 317 640T342 680Q343 684 343 691Q343 711 331 723T298 736Q275 736 255 720T230 680ZM186 680Q190 701 202 719T230 750T266 772T307 780Q343 780 365 758T388 701Q388 696 388 690Q388 685 386 680Q381 659 370 641T342 610T305 588T264 580Q228 580 206 602T184 659Q184 664 184 669Q184 675 186 680Z"  />
<glyph unicode="&#x2DC;" horiz-adv-x="278" d="M462 705Q456 687 444 668T416 634T381 608T342 598Q322 598 304 604T268 617Q250 625 233 630T197 636Q181 636 166 621T145 589H95Q109 634 142 666T226 698Q246 698 263 693T295 680Q311 672 325 667T356 661Q375 661 389 673T412 705H462Z"  />
<glyph unicode="&#x2013;" horiz-adv-x="500" d="M61 285H561L550 235H50L61 285Z"  />
<glyph unicode="&#x2014;" horiz-adv-x="1000" d="M61 285H1061L1050 235H50L61 285Z"  />
<glyph unicode="&#x2018;" horiz-adv-x="278" d="M214 590L308 732H350L272 590H312L288 480H190L214 590Z"  />
<glyph unicode="&#x2019;" horiz-adv-x="278" d="M323 612L229 470H187L265 612H225L249 722H347L323 612Z"  />
<glyph unicode="&#x201A;" horiz-adv-x="278" d="M191 0L97 -142H55L133 0H93L116 110H214L191 0Z"  />
<glyph unicode="&#x201C;" horiz-adv-x="500" d="M434 590L528 732H570L492 590H532L508 480H410L434 590ZM230 590L324 732H366L288 590H328L304 480H206L230 590Z"  />
<glyph unicode="&#x201D;" horiz-adv-x="500" d="M325 612L231 470H189L267 612H227L251 722H349L325 612ZM529 612L435 470H393L471 612H431L455 722H553L529 612Z"  />
<glyph unicode="&#x201E;" horiz-adv-x="500" d="M193 0L99 -142H57L135 0H95L118 110H216L193 0ZM397 0L303 -142H261L339 0H299L322 110H420L397 0Z"  />
<glyph unicode="&#x2020;" horiz-adv-x="500" d="M448 732L379 524L544 546L527 468L372 494L359 320L247 -84H215L279 320L340 494L175 468L192 546L347 524L368 732H448Z"  />
<glyph unicode="&#x2021;" horiz-adv-x="500" d="M360 324L299 154L464 180L448 102L292 124L271 -84H191L260 124L96 102L112 180L267 154L280 324L340 494L175 468L192 546L347 524L368 732H448L379 524L544 546L527 468L372 494L360 324Z"  />
<glyph unicode="&#x2022;" horiz-adv-x="500" d="M147 361Q155 398 176 431T227 488T292 527T366 541Q432 541 472 501T512 399Q512 390 511 381T508 361Q500 323 479 291T427 233T361 194T287 180Q255 180 229 190T183 220T154 265T143 321Q143 342 147 361Z"  />
<glyph unicode="&#x2026;" horiz-adv-x="1000" d="M572 110L549 0H451L474 110H572ZM905 110L882 0H784L807 110H905ZM239 110L216 0H118L141 110H239Z"  />
<glyph unicode="&#x2030;" horiz-adv-x="1000" d="M779 148Q778 143 778 139T777 129Q777 100 797 79T849 58Q864 58 881 64T915 83T942 111T959 148Q960 153 960 156T961 165Q961 198 938 218T888 238Q873 238 856 232T823 213T795 185T779 148ZM197 574Q196 569 196 565T195 555Q195 526 215 505T267 484Q282 484 299 490T333 509T360 537T377 574Q378 579 378 582T379 591Q379 624 356 644T306 664Q291 664 274 658T241 639T213 611T197 574ZM417 148Q416 143 416 139T415 129Q415 100 435 79T487 58Q502 58 519 64T553 83T580 111T597 148Q598 153 598 156T599 165Q599 198 576 218T526 238Q511 238 494 232T461 213T433 185T417 148ZM144 -10H85L645 732H706L144 -10ZM359 148Q365 179 383 206T425 253T479 284T539 296Q565 296 587 287T624 263T649 225T658 178Q658 163 655 148Q648 117 631 90T588 43T534 12T475 0Q449 0 427 9T390 33T365 70T356 117Q356 131 359 148ZM139 574Q145 605 163 632T205 679T259 710T319 722Q345 722 367 713T404 689T429 651T438 604Q438 589 435 574Q428 543 411 516T368 469T314 438T255 426Q229 426 207 435T170 459T145 496T136 543Q136 557 139 574ZM721 148Q727 179 745 206T787 253T841 284T901 296Q927 296 949 287T986 263T1011 225T1020 178Q1020 163 1017 148Q1010 117 993 90T950 43T896 12T837 0Q811 0 789 9T752 33T727 70T718 117Q718 131 721 148Z"  />
<glyph unicode="&#x2039;" horiz-adv-x="333" d="M344 418L181 260L276 102H208L110 260L274 418H344Z"  />
<glyph unicode="&#x203A;" horiz-adv-x="333" d="M239 418L335 260L169 102H101L264 260L169 418H239Z"  />
<glyph unicode="&#x20AC;" horiz-adv-x="611" d="M656 546Q651 559 642 580T614 621T569 655T502 670Q454 670 416 650T351 597T306 527T279 452H603L569 390H268L249 302H520L485 240H235Q231 221 231 199Q231 134 269 93T371 52Q408 52 438 61T492 84T535 115T570 148L552 65Q514 30 466 10T358 -10Q308 -10 271 5T208 48T170 113T157 195Q157 217 160 240H77L112 302H174L193 390H110L144 452H206Q218 508 246 559T314 648T405 709T515 732Q535 732 560 729T610 716T660 685T701 628L656 546Z"  />
<glyph unicode="&#x2122;" horiz-adv-x="990" d="M520 668H392L315 310H247L324 668H198L210 722H532L520 668ZM571 310H503L592 722H697L753 410L941 722H1046L957 310H889L963 654H961L752 310H708L647 654H645L571 310Z"  />

</font>
</defs>
</svg>
