<?xml  version="1.0" encoding="UTF-8"?>
<!DOCTYPE svg PUBLIC "-//W3C//DTD SVG 1.0//EN" "http://www.w3.org/TR/2001/REC-SVG-20010904/DTD/svg10.dtd" >
<svg xmlns="http://www.w3.org/2000/svg" >
<metadata>
<version>1.0</version>
<id><![CDATA[Trade Gothic W02 Bold 2]]></id>
<vendor>Monotype Imaging Inc.</vendor>
<credits>
<name>Fonts.com WebFonts</name>
<URL>http://webfonts.fonts.com</URL>
<role>Home of the Web fonts</role>
</credits>
<license>
<URL>http://webfonts.fonts.com/Legal</URL>
</license>
<copyright><![CDATA[Part of the digitally encoded machine readable outline data for producing the Typefaces provided is copyrighted © 2002 - 2007 Linotype GmbH, www.linotype.com. All rights reserved. This software is the property of Linotype GmbH, and may not be reproduced, used, displayed, modified, disclosed or transferred without the express written approval of Linotype GmbH.  The digitally encoded machine readable software for producing the Typefaces licensed to you is copyrighted (c) 1989, 1992 Adobe Systems. All Rights Reserved. This software is the property of Adobe Systems Incorporated and its licensors, and may not be reproduced, used, displayed, modified, disclosed or transferred without the express written approval of Adobe. Trade Gothic is a trademark of Linotype GmbH and may be registered in certain jurisdictions. This typeface is original artwork of Jackson Burke. The design may be protected in certain jurisdictions.]]></copyright>
<trademark><![CDATA[Trade Gothic is a trademark of Linotype GmbH and may be registered in certain jurisdictions.]]></trademark>
<licensee>
<name></name>
</licensee>
</metadata>
<defs >
<font horiz-adv-x="521" id="5263ddfe-a3e4-4276-b299-753b86ed8c3e">
<font-face font-family="" panose-1="2 11 8 3 4 3 3 2 0 4" ascent="977" descent="-229" units-per-em="1000" alphabetic="0">
</font-face>
<missing-glyph horiz-adv-x="0" />

<glyph unicode="&#xA;" />
<glyph unicode="&#xD;" horiz-adv-x="0" />
<glyph unicode=" " horiz-adv-x="305" />
<glyph unicode="!" horiz-adv-x="333" d="M97 0V142H235V0H97ZM214 244H118L92 722H240L214 244Z"  />
<glyph unicode="&quot;" horiz-adv-x="333" d="M24 722H136V450H24V722ZM197 722H309V450H197V722Z"  />
<glyph unicode="#" horiz-adv-x="611" d="M266 421L249 301H345L362 421H266ZM520 211H427L399 0H305L332 211H236L208 0H114L141 211H61V301H154L171 421H91V511H183L211 722H305L278 511H374L402 722H496L469 511H549V421H457L440 301H520V211Z"  />
<glyph unicode="$" horiz-adv-x="611" d="M263 622Q217 619 189 598T161 527Q161 492 185 475T263 442V622ZM337 100Q356 100 375 104T411 118T436 146T446 191Q446 235 416 258T337 295V100ZM263 317Q221 326 182 343T114 385T67 443T49 518Q49 568 66 606T113 669T182 708T263 722V794H337V722Q395 720 443 696T542 623L464 546Q434 575 406 595T337 622V422Q390 406 431 386T500 339T543 277T558 194Q558 144 541 109T493 50T423 14T337 0V-120H263V0Q197 7 141 35T42 119L128 193Q156 151 187 131T263 100V317Z"  />
<glyph unicode="%" horiz-adv-x="889" d="M675 262Q658 262 643 255T617 237T600 211T593 180Q593 164 599 149T617 123T643 105T675 98Q692 98 707 105T733 123T750 149T757 180Q757 196 751 211T733 237T707 255T675 262ZM214 624Q197 624 182 617T156 599T139 573T132 542Q132 526 138 511T156 485T182 467T214 460Q231 460 246 467T272 485T289 511T296 542Q296 558 290 573T272 599T246 617T214 624ZM612 732H697L282 -10H197L612 732ZM675 360Q713 360 746 346T803 307T841 250T855 180Q855 143 841 111T803 54T746 15T675 0Q637 0 604 14T547 53T509 110T495 180Q495 217 509 249T547 306T604 345T675 360ZM214 722Q252 722 285 708T342 669T380 612T394 542Q394 505 380 473T342 416T285 377T214 362Q176 362 143 376T86 415T48 472T34 542Q34 579 48 611T86 668T143 707T214 722Z"  />
<glyph unicode="&amp;" horiz-adv-x="667" d="M215 573Q215 541 225 512T253 456Q269 468 284 481T311 510T330 541T338 576Q338 606 323 628T276 650Q255 650 235 630T215 573ZM170 206Q170 186 178 168T202 136T236 114T276 106Q302 106 327 116T372 146Q328 180 293 218T228 301Q202 280 186 261T170 206ZM620 332Q603 286 582 242T532 155Q555 134 581 121T634 106V-10Q608 -10 588 -8T549 3T507 26T454 66Q417 28 371 9T271 -10Q220 -10 178 2T105 41T57 106T40 200Q40 233 49 260T74 311T112 353T160 390Q130 433 115 472T99 564Q99 602 112 633T150 686T208 720T282 732Q318 732 349 720T403 686T440 635T454 571Q454 536 442 508T410 455T365 410T315 369Q344 329 376 293T442 226Q464 258 480 292T510 362L620 332Z"  />
<glyph unicode="&apos;" horiz-adv-x="222" d="M55 722H167V450H55V722Z"  />
<glyph unicode="(" horiz-adv-x="333" d="M307 732Q234 638 198 538T162 324Q162 210 198 110T307 -84H186Q154 -34 129 12T86 106T59 207T50 324Q50 388 59 440T85 541T128 635T186 732H307Z"  />
<glyph unicode=")" horiz-adv-x="333" d="M26 -84Q99 10 135 110T171 324Q171 438 135 538T26 732H147Q179 682 204 636T247 541T274 441T283 324Q283 260 274 207T248 106T205 12T147 -84H26Z"  />
<glyph unicode="*" horiz-adv-x="500" d="M229 577L198 722H297L271 576L276 571L404 645L434 555L288 532L395 426L321 368L254 501L247 500L183 369L108 422L214 527L212 533L66 551L92 640L225 572L229 577Z"  />
<glyph unicode="+" horiz-adv-x="600" d="M560 314V206H354V0H246V206H40V314H246V520H354V314H560Z"  />
<glyph unicode="&#x2c;" horiz-adv-x="305" d="M143 0H83V142H221V0L157 -150H92L143 0Z"  />
<glyph unicode="-" horiz-adv-x="333" d="M44 206V314H289V206H44Z"  />
<glyph unicode="." horiz-adv-x="305" d="M83 0V142H221V0H83Z"  />
<glyph unicode="/" horiz-adv-x="278" d="M81 -10H-28L197 732H306L81 -10Z"  />
<glyph unicode="0" horiz-adv-x="611" d="M172 361Q172 287 181 237T208 156T250 112T305 98Q335 98 359 111T401 155T428 236T438 361Q438 435 429 485T402 566T360 610T305 624Q275 624 251 611T209 567T182 486T172 361ZM42 361Q42 439 56 506T101 624T183 703T305 732Q377 732 427 703T508 624T554 507T568 361Q568 283 554 216T509 98T427 19T305 -10Q233 -10 183 19T102 98T56 215T42 361Z"  />
<glyph unicode="1" horiz-adv-x="611" d="M146 0V100H258V598H130V682Q180 684 221 696T287 732H388V100H499V0H146Z"  />
<glyph unicode="2" horiz-adv-x="611" d="M56 0V119Q61 147 90 179T158 245T242 314T324 385T387 456T412 524Q412 572 384 598T305 624Q251 624 219 592T175 510L59 535Q65 577 86 613T140 675T216 717T307 732Q355 732 397 719T472 679T523 614T542 524Q542 458 514 409T439 314T329 221T200 112H542V0H56Z"  />
<glyph unicode="3" horiz-adv-x="611" d="M194 437Q234 437 269 440T330 455T372 486T388 538Q388 577 359 600T284 624Q238 624 206 603T146 552L60 630Q113 686 168 709T280 732Q329 732 372 720T448 685T499 627T518 546Q518 492 490 453T409 390Q474 370 508 323T542 207Q542 150 520 109T462 42T380 3T286 -10Q248 -10 211 -1T139 25T78 69T31 130L135 189Q161 144 198 121T287 98Q311 98 333 105T373 126T401 160T412 207Q412 251 390 275T336 312T265 326T194 329V437Z"  />
<glyph unicode="4" horiz-adv-x="611" d="M349 266V588H347L124 266H349ZM24 293L332 722H473V266H575V166H473V0H349V166H24V293Z"  />
<glyph unicode="5" horiz-adv-x="611" d="M115 722H505V610H213L203 446Q212 455 223 462T250 476T287 485T338 488Q387 488 426 467T494 412T538 335T554 248Q554 189 537 141T487 60T403 8T288 -10Q202 -10 143 27T54 125L162 181Q179 143 216 122T290 99Q359 97 391 138T424 248Q424 276 416 300T391 342T352 370T301 380Q263 380 235 363T192 318L88 338L115 722Z"  />
<glyph unicode="6" horiz-adv-x="611" d="M433 223Q434 283 402 318T309 354Q222 354 179 272Q179 226 191 193T222 139T267 108T318 98Q370 98 402 132T433 223ZM481 574Q458 594 428 609T359 624Q322 624 290 607T233 560T195 490T179 404Q214 435 252 448T341 462Q389 462 429 445T499 397T546 323T563 228Q563 171 544 127T490 53T409 6T308 -10Q251 -10 204 10T122 71T68 173T49 318Q49 412 70 488T130 619T227 702T359 732Q412 732 454 718T538 678L481 574Z"  />
<glyph unicode="7" horiz-adv-x="611" d="M58 722H553V647L256 0H113L405 610H58V722Z"  />
<glyph unicode="8" horiz-adv-x="611" d="M304 632Q244 632 219 609T194 550Q194 525 206 505T235 471T272 448T305 440Q319 440 338 450T374 475T404 510T416 550Q416 586 391 609T304 632ZM305 90Q374 90 408 118T443 195Q443 219 425 242T382 284T333 314T296 326Q284 326 263 316T220 288T183 246T167 195Q167 147 201 119T305 90ZM546 552Q546 520 538 495T514 450T477 414T428 384Q494 355 533 308T573 186Q573 142 553 106T496 44T411 4T305 -10Q248 -10 199 4T114 43T58 105T37 186Q37 261 76 308T182 384Q155 398 134 414T97 450T73 495T64 552Q64 593 81 626T129 683T205 719T305 732Q360 732 404 720T480 684T529 627T546 552Z"  />
<glyph unicode="9" horiz-adv-x="611" d="M166 499Q165 439 197 404T290 368Q377 368 420 450Q420 496 408 529T377 583T332 614T281 624Q229 624 197 590T166 499ZM118 148Q141 128 171 113T240 98Q277 98 309 115T366 162T404 232T420 318Q385 287 347 274T258 260Q210 260 170 277T100 325T53 399T36 494Q36 551 55 595T109 669T190 716T291 732Q348 732 395 712T477 651T531 548T550 404Q550 309 529 233T469 102T371 19T240 -10Q187 -10 145 4T61 44L118 148Z"  />
<glyph unicode=":" horiz-adv-x="305" d="M83 0V142H221V0H83ZM83 300V442H221V300H83Z"  />
<glyph unicode=";" horiz-adv-x="305" d="M83 300V442H221V300H83ZM143 0H83V142H221V0L157 -150H92L143 0Z"  />
<glyph unicode="&lt;" horiz-adv-x="600" d="M560 -8L40 214V306L560 528V417L188 260L560 103V-8Z"  />
<glyph unicode="=" horiz-adv-x="600" d="M560 96H40V204H560V96ZM560 316H40V424H560V316Z"  />
<glyph unicode="&gt;" horiz-adv-x="600" d="M40 103L412 260L40 417V528L560 306V214L40 -8V103Z"  />
<glyph unicode="?" horiz-adv-x="444" d="M131 0V142H269V0H131ZM143 243V298Q143 341 163 378T207 449Q231 483 251 514T271 578Q271 601 252 616T208 632Q190 632 176 624T152 604T134 576T125 544L10 576Q29 651 82 691T216 732Q253 732 285 722T343 691T382 641T397 572Q397 522 375 487T325 419Q298 387 276 355T253 280V243H143Z"  />
<glyph unicode="@" horiz-adv-x="800" d="M381 249Q405 249 424 259T458 286T479 324T487 369Q487 405 466 428T410 451Q387 451 368 442T336 416T314 379T306 333Q306 297 326 273T381 249ZM526 542H614L565 298Q563 290 561 281T559 262Q559 240 573 240Q590 240 607 250T639 281T662 331T671 402Q671 462 652 508T598 585T516 632T413 648Q352 648 303 626T218 566T164 475T145 360Q145 294 166 242T224 152T314 94T429 74Q486 74 535 93T621 144H711Q660 69 586 30T421 -10Q344 -10 276 17T156 94T75 212T45 360Q45 439 74 507T154 625T271 703T416 732Q480 732 541 711T649 650T725 555T754 430Q754 375 740 333T704 258T653 204T598 169T546 149T507 143Q486 143 471 155T454 194L452 195Q434 174 408 159T355 143Q323 143 295 157T245 195T210 251T197 318Q197 363 211 405T251 481T315 534T398 554Q434 554 464 539T515 492L526 542Z"  />
<glyph unicode="A" horiz-adv-x="611" d="M223 270H391L310 584H308L223 270ZM221 723H393L598 0H461L421 156H193L150 0H13L221 723Z"  />
<glyph unicode="B" horiz-adv-x="667" d="M216 434H354Q404 434 428 459T453 522Q453 560 429 585T354 610H216V434ZM216 112H354Q414 112 441 138T469 217Q469 269 442 295T354 322H216V112ZM78 722H346Q400 722 444 713T519 682T569 627T591 545Q591 488 566 446T481 381Q516 367 540 351T579 313T600 261T607 190Q607 148 592 113T545 53T463 14T344 0H78V722Z"  />
<glyph unicode="C" horiz-adv-x="611" d="M447 512Q432 558 400 587T316 616Q247 616 208 553T168 361Q165 106 320 106Q343 106 362 111T398 128T430 160T461 213L589 179Q557 85 489 38T320 -10Q181 -10 106 86T30 361Q30 539 105 635T320 732Q424 732 485 686T572 542L447 512Z"  />
<glyph unicode="D" horiz-adv-x="667" d="M216 116H308Q367 116 405 136T464 190T494 268T503 361Q503 409 495 453T465 532T405 586T308 606H216V116ZM78 722H317Q389 722 448 702T550 637T617 525T641 361Q641 265 617 197T550 85T448 21T317 0H78V722Z"  />
<glyph unicode="E" horiz-adv-x="611" d="M84 0V722H562V606H222V434H469V318H222V116H573V0H84Z"  />
<glyph unicode="F" horiz-adv-x="556" d="M78 0V722H538V606H216V434H457V318H216V0H78Z"  />
<glyph unicode="G" horiz-adv-x="667" d="M465 514Q440 568 407 592T320 616Q282 616 254 598T206 545T178 463T168 354Q168 240 208 173T321 106Q389 106 429 146T472 249H335V365H605V0H505V74Q461 26 418 8T317 -10Q243 -10 189 17T100 93T48 207T30 350Q30 419 44 487T94 610T186 698T331 732Q385 732 428 718T503 680T558 622T593 548L465 514Z"  />
<glyph unicode="H" horiz-adv-x="722" d="M84 0V722H222V434H500V722H638V0H500V310H222V0H84Z"  />
<glyph unicode="I" horiz-adv-x="333" d="M97 0V722H235V0H97Z"  />
<glyph unicode="J" horiz-adv-x="444" d="M90 158Q108 128 125 117T165 106Q190 106 206 125T222 192V722H360V195Q360 93 311 42T165 -10Q108 -10 67 15T-5 87L90 158Z"  />
<glyph unicode="K" horiz-adv-x="667" d="M78 0V722H216V401L457 722H616L411 451L649 0H496L317 343L216 217V0H78Z"  />
<glyph unicode="L" horiz-adv-x="556" d="M78 0V722H216V116H530V0H78Z"  />
<glyph unicode="M" horiz-adv-x="833" d="M81 0V722H275L414 218H416L556 722H752V0H632V568H630L468 0H363L203 568H201V0H81Z"  />
<glyph unicode="N" horiz-adv-x="722" d="M81 0V722H225L509 230H511V722H641V0H508L213 514H211V0H81Z"  />
<glyph unicode="O" horiz-adv-x="667" d="M498 361Q498 489 458 552T333 616Q248 616 208 553T168 361Q166 233 206 170T333 106Q418 106 458 169T498 361ZM636 361Q636 183 559 87T333 -10Q184 -10 107 86T30 361Q30 539 107 635T333 732Q482 732 559 636T636 361Z"  />
<glyph unicode="P" horiz-adv-x="611" d="M206 404H316Q355 404 380 411T421 431T443 464T449 507Q449 531 443 550T422 582T381 603T316 610H206V404ZM68 0V722H332Q390 722 437 710T518 671T569 604T587 507Q587 451 569 410T518 343T438 305T332 292H206V0H68Z"  />
<glyph unicode="Q" horiz-adv-x="667" d="M333 316Q387 311 420 288T481 224Q490 251 494 285T498 361Q498 489 458 552T333 616Q248 616 208 553T168 361Q166 233 206 170T333 106Q384 106 419 130Q403 153 383 170T333 193V316ZM655 -54Q620 -54 598 -51T559 -38T525 -14T486 26Q423 -10 333 -10Q184 -10 107 86T30 361Q30 539 107 635T333 732Q482 732 559 636T636 361Q636 192 564 95Q603 63 655 62V-54Z"  />
<glyph unicode="R" horiz-adv-x="667" d="M216 406H318Q399 406 429 431T459 508Q459 559 429 584T342 610H216V406ZM78 0V722H366Q427 722 471 706T542 660T583 592T597 508Q598 441 565 391T465 322L624 0H471L335 294H216V0H78Z"  />
<glyph unicode="S" horiz-adv-x="611" d="M419 530Q403 572 371 598T290 624Q245 624 216 605T187 544Q187 513 214 493T283 455T373 419T462 375T531 309T559 212Q559 100 493 45T306 -10Q262 -10 220 2T142 36T79 90T36 161L150 211Q175 160 210 129T307 98Q333 98 355 103T393 119T419 149T429 194Q429 229 402 252T333 295T243 332T154 375T85 437T57 530Q57 578 76 616T127 679T201 718T290 732Q377 732 445 690T545 569L419 530Z"  />
<glyph unicode="T" horiz-adv-x="556" d="M536 723V607H347V0H209V607H20V723H536Z"  />
<glyph unicode="U" horiz-adv-x="722" d="M500 722H638V270Q638 191 616 138T555 51T466 4T361 -10Q306 -10 256 4T168 51T107 137T84 270V722H222V264Q222 176 256 141T361 106Q431 106 465 141T500 264V722Z"  />
<glyph unicode="V" horiz-adv-x="556" d="M10 722H146L274 190H276L410 722H546L355 0H201L10 722Z"  />
<glyph unicode="W" horiz-adv-x="833" d="M20 722H149L240 235H242L345 722H487L582 235H584L683 722H812L662 0H522L417 514H415L311 0H171L20 722Z"  />
<glyph unicode="X" horiz-adv-x="556" d="M20 722H170L278 499L386 722H536L353 370L548 0H398L278 245L158 0H8L203 370L20 722Z"  />
<glyph unicode="Y" horiz-adv-x="556" d="M278 436L402 722H546L347 288V0H209V288L10 722H154L278 436Z"  />
<glyph unicode="Z" horiz-adv-x="556" d="M530 0H16V117L353 606H39V722H527V612L178 116H530V0Z"  />
<glyph unicode="[" horiz-adv-x="333" d="M52 -74V722H285V662H160V-14H287V-74H52Z"  />
<glyph unicode="\" horiz-adv-x="278" d="M-28 732H81L306 -10H197L-28 732Z"  />
<glyph unicode="]" horiz-adv-x="333" d="M46 -74V-14H173V662H48V722H281V-74H46Z"  />
<glyph unicode="^" horiz-adv-x="600" d="M70 347L250 722H350L530 347H420L300 610L179 347H70Z"  />
<glyph unicode="_" horiz-adv-x="500" d="M0 -125V-75H500V-125H0Z"  />
<glyph unicode="`" horiz-adv-x="278" d="M126 732L220 586H118L-28 732H126Z"  />
<glyph unicode="a" horiz-adv-x="500" d="M316 249Q285 243 254 236T198 218T158 188T142 143Q142 114 159 98T202 82Q217 82 233 87T264 101T292 119T316 137V249ZM329 0L321 45Q283 19 246 5T159 -10Q124 -10 98 1T54 32T27 76T18 128Q18 217 91 265T316 332V376Q316 406 295 422T240 438Q196 438 170 419T126 374L46 435Q58 456 79 473T126 504T182 524T240 530Q292 529 330 518T392 483T428 418T440 320V75Q440 55 442 36T450 0H329Z"  />
<glyph unicode="b" horiz-adv-x="556" d="M188 136Q198 128 206 120T225 106T250 95T284 90Q340 90 370 133T400 260Q400 343 370 386T284 430Q254 430 231 417T188 386V136ZM64 722H188V472H190Q199 484 214 495T246 513T282 525T316 530Q366 530 405 508T470 450T510 368T524 274Q524 213 511 161T472 71T407 12T316 -10Q274 -10 241 7T175 56L161 0H64V722Z"  />
<glyph unicode="c" horiz-adv-x="500" d="M352 351Q337 384 316 407T250 430Q198 430 173 389T148 260Q148 172 173 131T254 90Q295 90 320 114T364 173L458 120Q420 50 371 20T250 -10Q197 -10 155 9T84 63T40 148T24 260Q24 322 39 372T84 457T155 511T250 530Q324 530 378 494T455 391L352 351Z"  />
<glyph unicode="d" horiz-adv-x="556" d="M368 386Q349 403 326 416T272 430Q216 430 186 387T156 260Q156 177 186 134T272 90Q292 90 306 94T330 105T349 120T368 136V386ZM492 0H387L381 56Q348 24 315 7T240 -10Q188 -10 149 11T84 71T45 161T32 274Q32 322 45 368T85 450T151 508T240 530Q256 530 274 526T309 514T342 495T366 472H368V722H492V0Z"  />
<glyph unicode="e" horiz-adv-x="500" d="M348 324Q346 378 320 408T248 438Q203 438 177 408T148 324H348ZM148 240Q150 159 181 125T256 90Q299 90 324 107T372 152L462 96Q426 40 373 15T244 -10Q193 -10 153 9T84 63T40 148T24 260Q24 322 39 372T84 457T155 511T250 530Q301 530 340 511T407 458T448 382T462 291V240H148Z"  />
<glyph unicode="f" horiz-adv-x="333" d="M208 420V0H84V420H12V520H83V584Q83 626 91 654T118 700T164 724T230 732H312V632H278Q239 632 224 619T208 576V520H313V420H208Z"  />
<glyph unicode="g" horiz-adv-x="500" d="M214 10Q188 10 172 4T145 -12T130 -31T126 -50Q126 -80 156 -94T264 -108Q294 -108 314 -102T347 -86T365 -67T371 -50Q371 -41 364 -31T338 -11T289 4T214 10ZM322 352Q322 388 297 413T237 438Q197 438 172 413T147 352Q147 316 172 291T237 266Q272 266 297 291T322 352ZM488 446Q466 446 444 445T408 434Q420 417 428 395T436 342Q436 305 424 275T387 222T326 187T240 174Q199 174 171 169T143 142Q143 121 168 114T232 105T314 100T396 84T459 44T485 -36Q485 -64 471 -91T427 -141T352 -176T244 -190Q139 -190 76 -159T12 -66Q12 -42 20 -24T42 6T72 24T106 30V32Q97 38 84 44T59 59T38 81T29 116Q29 135 38 151T61 179T87 200T110 211Q78 237 56 269T33 349Q33 383 46 415T85 473T149 514T238 530Q271 530 306 518T366 484Q384 508 413 520T488 530V446Z"  />
<glyph unicode="h" horiz-adv-x="556" d="M64 0V722H188V464Q217 488 254 509T338 530Q416 530 454 483T492 356V0H368V338Q368 391 352 410T304 430Q263 430 234 412T188 375V0H64Z"  />
<glyph unicode="i" horiz-adv-x="278" d="M77 616V732H201V616H77ZM201 0H77V520H201V0Z"  />
<glyph unicode="j" horiz-adv-x="278" d="M90 616V732H214V616H90ZM3 -81Q13 -82 21 -83T44 -84Q66 -84 78 -71T90 -20V520H214V-40Q214 -120 180 -155T68 -190Q33 -190 3 -182V-81Z"  />
<glyph unicode="k" horiz-adv-x="500" d="M64 0V722H188V319H192L345 520H487L334 326L498 0H366L251 233L188 160V0H64Z"  />
<glyph unicode="l" horiz-adv-x="278" d="M77 0V722H201V0H77Z"  />
<glyph unicode="m" horiz-adv-x="833" d="M64 0V520H177V464Q212 496 246 513T333 530Q374 530 409 511T461 454Q477 470 495 484T534 508T582 524T640 530Q660 530 682 523T724 499T755 451T768 374V0H644V363Q644 395 630 411T582 430Q558 430 529 412T478 374V0H354V363Q354 395 340 411T292 430Q268 430 239 412T188 374V0H64Z"  />
<glyph unicode="n" horiz-adv-x="556" d="M64 0V520H178V464Q213 488 252 509T338 530Q416 530 454 483T492 356V0H368V338Q368 391 352 410T304 430Q263 430 234 412T188 375V0H64Z"  />
<glyph unicode="o" horiz-adv-x="500" d="M352 260Q352 348 327 389T250 430Q198 430 173 389T148 260Q148 172 173 131T250 90Q302 90 327 131T352 260ZM24 260Q24 322 39 372T84 457T155 511T250 530Q303 530 345 511T416 457T460 372T476 260Q476 198 461 148T416 63T345 9T250 -10Q197 -10 155 9T84 63T40 148T24 260Z"  />
<glyph unicode="p" horiz-adv-x="556" d="M188 134Q207 117 230 104T284 90Q340 90 370 133T400 260Q400 343 370 386T284 430Q264 430 250 426T226 415T207 400T188 384V134ZM64 520H183V472Q210 498 242 514T316 530Q368 530 407 509T472 449T511 359T524 246Q524 198 511 152T471 70T405 12T316 -10Q300 -10 282 -6T247 6T214 25T190 48H188V-190H64V520Z"  />
<glyph unicode="q" horiz-adv-x="556" d="M368 384Q358 391 350 399T331 414T306 425T272 430Q216 430 186 387T156 260Q156 177 186 134T272 90Q302 90 325 103T368 134V384ZM492 -190H368V48H366Q357 36 342 25T310 7T274 -5T240 -10Q190 -10 151 12T86 70T46 152T32 246Q32 307 45 359T84 449T149 508T240 530Q282 530 315 513T381 464L395 520H492V-190Z"  />
<glyph unicode="r" horiz-adv-x="333" d="M56 0V520H170V431H172Q195 478 228 503T318 530V399Q313 400 308 400Q303 400 296 400Q273 400 252 389T215 363T190 335T180 316V0H56Z"  />
<glyph unicode="s" horiz-adv-x="444" d="M317 383Q298 403 274 420T220 438Q184 438 167 424T150 387Q150 365 169 352T217 327T280 305T342 274T390 224T410 146Q410 105 396 76T356 28T295 -1T219 -10Q156 -10 107 17T22 95L105 157Q127 127 156 105T226 82Q259 82 279 98T300 141Q300 163 281 177T233 202T170 225T108 257T60 305T40 379Q40 415 54 443T92 491T147 520T212 530Q264 530 312 511T395 451L317 383Z"  />
<glyph unicode="t" horiz-adv-x="333" d="M84 520V692H208V520H310V420H208V126Q208 105 219 98T253 90Q267 90 281 93T310 100V-2Q284 -5 261 -7T212 -10Q143 -10 114 22T84 110V420H12V520H84Z"  />
<glyph unicode="u" horiz-adv-x="556" d="M492 520V0H378V56Q343 32 304 11T218 -10Q140 -10 102 37T64 164V520H188V182Q188 129 204 110T252 90Q293 90 322 108T368 145V520H492Z"  />
<glyph unicode="v" horiz-adv-x="444" d="M10 520H134L220 168H222L310 520H434L285 0H155L10 520Z"  />
<glyph unicode="w" horiz-adv-x="667" d="M10 520H128L199 196H201L276 520H391L463 196H465L539 520H657L523 0H411L334 324H332L256 0H144L10 520Z"  />
<glyph unicode="x" horiz-adv-x="444" d="M157 270L10 520H147L220 376L294 520H428L282 270L440 0H308L221 162L137 0H4L157 270Z"  />
<glyph unicode="y" horiz-adv-x="444" d="M10 -84Q24 -87 36 -87T62 -88Q94 -88 113 -79T144 -47Q153 -28 158 -15T164 14Q164 28 159 44T148 76L9 520H134L220 200H222L311 520H435L271 -1Q250 -57 231 -93T188 -151T137 -181T70 -190Q47 -190 34 -189T10 -186V-84Z"  />
<glyph unicode="z" horiz-adv-x="444" d="M39 520H424V432L174 100H426V0H18V88L269 420H39V520Z"  />
<glyph unicode="{" horiz-adv-x="333" d="M8 354Q38 354 58 371T78 419V613Q78 675 114 703T206 732H277V672H228Q207 672 197 657T186 622V432Q186 382 169 359T110 325V323Q151 313 168 290T186 216V26Q186 6 196 -9T228 -24H277V-84H206Q150 -84 114 -56T78 35V229Q78 259 58 276T8 294V354Z"  />
<glyph unicode="|" horiz-adv-x="222" d="M57 732H165V-10H57V732Z"  />
<glyph unicode="}" horiz-adv-x="333" d="M325 294Q295 294 275 277T255 229V35Q255 -27 219 -55T127 -84H56V-24H105Q126 -24 136 -9T147 26V216Q147 266 164 289T223 323V325Q182 335 165 358T147 432V622Q147 642 137 657T105 672H56V732H127Q183 732 219 704T255 613V419Q255 389 275 372T325 354V294Z"  />
<glyph unicode="~" horiz-adv-x="600" d="M530 260Q519 244 507 229T480 201T445 181T400 173Q365 173 338 188T282 218Q262 228 241 235T192 242Q174 242 161 236T137 219T119 196T105 170L70 260Q78 276 89 291T115 319T149 338T194 346Q222 346 251 336T309 312T362 289T407 278Q422 278 434 284T457 301T477 324T495 350L530 260Z"  />
<glyph unicode="&#xA0;" horiz-adv-x="305" />
<glyph unicode="&#xA1;" horiz-adv-x="333" d="M236 542V400H98V542H236ZM119 298H215L241 -180H93L119 298Z"  />
<glyph unicode="&#xA2;" horiz-adv-x="611" d="M339 426Q327 430 308 430Q256 430 226 389T196 260Q196 212 205 179T231 126L339 426ZM279 95Q287 92 295 91T312 90Q353 90 378 114T422 173L516 120Q478 50 429 20T308 -10Q276 -10 244 -2L199 -125H141L193 20Q139 51 111 113T82 260Q82 322 97 372T142 457T213 511T308 530Q342 530 374 522L412 628H470L424 500Q488 465 513 391L410 351Q400 374 386 394L279 95Z"  />
<glyph unicode="&#xA3;" horiz-adv-x="611" d="M275 314Q275 297 274 275T269 230T261 185T247 148Q276 131 304 119T366 106Q392 106 407 116T429 142T439 178T444 218H564Q564 171 554 130T523 58T471 8T396 -10Q360 -10 333 -6T283 5T238 25T192 52Q169 25 133 7T52 -10V114Q80 116 98 130T126 165T141 210T145 256Q145 271 144 285T141 314H46V408H127Q122 437 118 467T114 533Q114 630 169 681T334 732Q434 732 490 675T547 519H427Q422 566 401 595T327 624Q303 624 287 615T262 592T248 559T244 520Q244 488 248 463T261 408H391V314H275Z"  />
<glyph unicode="&#xA4;" horiz-adv-x="611" d="M165 361Q165 329 175 302T204 255T249 224T305 213Q335 213 361 224T405 255T434 302T445 361Q445 393 435 420T406 467T361 498T305 509Q275 509 249 498T205 467T176 420T165 361ZM513 506Q535 474 547 438T559 361Q559 321 547 285T513 216L565 164L503 100L448 151Q418 131 382 119T305 107Q265 107 229 119T162 151L107 100L45 164L97 216Q75 248 63 284T51 361Q51 401 63 437T97 506L45 558L107 622L162 571Q192 591 228 603T305 615Q345 615 381 603T448 571L503 622L565 558L513 506Z"  />
<glyph unicode="&#xA5;" horiz-adv-x="611" d="M362 0H248V202H68V296H244L210 364H68V458H163L28 722H152L305 412L459 722H583L448 458H542V364H401L366 296H542V202H362V0Z"  />
<glyph unicode="&#xA6;" horiz-adv-x="222" d="M57 732H165V450H57V732ZM57 272H165V-10H57V272Z"  />
<glyph unicode="&#xA7;" horiz-adv-x="500" d="M144 398Q144 385 159 364T211 305Q284 229 312 229Q332 229 344 240T356 269Q356 287 338 309T285 367Q265 389 250 402T224 424T204 435T187 438Q170 438 157 427T144 398ZM337 597Q321 616 301 633T255 650Q235 650 221 638T206 608Q206 588 224 565T269 516T328 462T387 404T432 341T450 275Q450 258 445 241T427 207T394 179T342 161Q365 137 379 108T393 44Q393 13 382 -11T350 -51T304 -75T249 -84Q199 -84 160 -60T89 1L157 54Q171 32 192 15T240 -2Q266 -2 282 9T299 48Q299 71 281 96T235 149T175 206T115 265T69 326T50 388Q50 437 80 469T159 504Q136 531 124 556T112 616Q112 670 149 701T246 732Q273 732 293 728T332 715T368 691T405 652L337 597Z"  />
<glyph unicode="&#xA8;" horiz-adv-x="278" d="M294 712V596H174V712H294ZM104 712V596H-16V712H104Z"  />
<glyph unicode="&#xA9;" horiz-adv-x="800" d="M594 305Q588 267 572 238T531 188T477 158T415 148Q368 148 330 164T264 210T221 278T206 364Q206 410 220 450T261 518T326 563T413 580Q480 580 529 542T590 428H504Q497 463 471 477T413 492Q364 492 338 458T312 366Q312 310 340 273T415 236Q452 236 476 252T504 305H594ZM684 361Q684 427 662 482T600 576T510 638T400 660Q341 660 289 638T199 577T138 482T116 361Q116 295 138 240T198 146T289 84T400 62Q458 62 509 84T600 145T661 240T684 361ZM400 -10Q325 -10 256 15T134 88T50 205T18 361Q18 448 49 517T134 634T256 707T400 732Q475 732 544 707T666 634T750 517T782 361Q782 274 751 205T666 88T544 15T400 -10Z"  />
<glyph unicode="&#xAA;" horiz-adv-x="300" d="M194 563Q176 560 158 556T125 545T101 527T92 500Q92 472 125 472Q145 472 165 479T194 496V563ZM203 414L198 442Q177 426 153 417T97 408Q51 408 29 433T6 491Q6 545 52 573T194 613V636Q194 668 150 668Q121 668 105 660T76 638L24 675Q32 687 45 698T76 716T113 728T150 732Q184 731 208 725T249 704T272 665T280 606V459Q280 447 281 436T287 414H203Z"  />
<glyph unicode="&#xAB;" horiz-adv-x="556" d="M384 420H496L373 257L496 100H384L264 257L384 420ZM180 420H292L169 257L292 100H180L60 257L180 420Z"  />
<glyph unicode="&#xAC;" horiz-adv-x="600" d="M452 316H40V424H560V96H452V316Z"  />
<glyph unicode="&#xAD;" horiz-adv-x="333" d="M44 206V314H289V206H44Z"  />
<glyph unicode="&#xAE;" horiz-adv-x="800" d="M337 397H414Q450 397 465 412T480 451Q480 479 461 488T410 497H337V397ZM337 158H249V565H402Q482 565 525 539T568 442Q568 385 538 361T456 334L562 158H473L378 329H337V158ZM684 361Q684 427 662 482T600 576T510 638T400 660Q341 660 289 638T199 577T138 482T116 361Q116 295 138 240T198 146T289 84T400 62Q458 62 509 84T600 145T661 240T684 361ZM400 -10Q325 -10 256 15T134 88T50 205T18 361Q18 448 49 517T134 634T256 707T400 732Q475 732 544 707T666 634T750 517T782 361Q782 274 751 205T666 88T544 15T400 -10Z"  />
<glyph unicode="&#xAF;" horiz-adv-x="278" d="M-34 618V692H312V618H-34Z"  />
<glyph unicode="&#xB0;" horiz-adv-x="400" d="M121 589Q121 556 144 531T200 506Q233 506 256 531T279 589Q279 622 256 647T200 672Q167 672 144 647T121 589ZM200 446Q170 446 144 457T99 487T68 533T57 589Q57 619 68 645T98 690T144 721T200 732Q230 732 256 721T301 691T332 645T343 589Q343 559 332 533T302 488T256 457T200 446Z"  />
<glyph unicode="&#xB1;" horiz-adv-x="600" d="M40 108H560V0H40V108ZM246 520H354V388H560V280H354V147H246V280H40V388H246V520Z"  />
<glyph unicode="&#xB2;" horiz-adv-x="366" d="M20 292V364Q23 381 41 400T85 439T139 481T192 522T232 563T248 601Q248 660 182 660Q147 660 126 641T97 593L22 608Q26 635 39 657T74 696T123 722T183 732Q214 732 242 724T291 700T324 661T336 607Q336 568 318 538T269 481T200 427T120 364H336V292H20Z"  />
<glyph unicode="&#xB3;" horiz-adv-x="366" d="M120 556Q145 556 167 558T205 566T230 583T240 611Q240 632 223 645T177 660Q147 659 126 647T87 617L31 665Q66 703 100 717T180 732Q245 732 286 704T328 621Q328 554 258 528V526Q300 515 322 487T344 417Q344 383 330 359T292 318T239 294T178 286Q128 286 83 308T12 377L80 412Q97 386 121 372T179 358Q210 358 233 374T256 423Q256 447 243 460T209 480T165 488T120 490V556Z"  />
<glyph unicode="&#xB4;" horiz-adv-x="278" d="M306 732L160 586H58L152 732H306Z"  />
<glyph unicode="&#xB5;" horiz-adv-x="556" d="M492 520V0H378V56Q343 32 304 11T218 -10Q210 -10 203 -10T188 -8V-190H64V520H188V182Q188 129 204 110T252 90Q293 90 322 108T368 145V520H492Z"  />
<glyph unicode="&#xB6;" horiz-adv-x="620" d="M220 369Q176 369 140 381T77 415T37 470T22 542Q22 595 40 630T87 685T155 714T232 722H586V638H513V-68H411V638H322V-68H220V369Z"  />
<glyph unicode="&#xB7;" horiz-adv-x="305" d="M228 260Q228 228 205 206T150 184Q118 184 97 206T76 260Q76 291 97 313T150 336Q182 336 205 314T228 260Z"  />
<glyph unicode="&#xB8;" horiz-adv-x="278" d="M39 -161Q52 -166 74 -171T117 -177Q142 -177 155 -169T169 -135Q169 -115 156 -110T126 -104Q115 -104 104 -106T84 -110L64 -90L123 0H176L133 -63Q153 -58 169 -58Q203 -58 230 -76T257 -134Q257 -159 245 -177T215 -206T174 -223T130 -229Q101 -229 74 -222T21 -203L39 -161Z"  />
<glyph unicode="&#xB9;" horiz-adv-x="366" d="M75 292V358H142V646H65V702Q97 704 123 711T167 732H234V358H304V292H75Z"  />
<glyph unicode="&#xBA;" horiz-adv-x="300" d="M210 570Q210 668 150 668Q89 668 89 570Q89 472 150 472Q210 472 210 570ZM3 570Q3 645 42 688T150 732Q219 732 257 689T296 570Q296 495 258 452T150 408Q81 408 42 451T3 570Z"  />
<glyph unicode="&#xBB;" horiz-adv-x="556" d="M172 100H60L183 263L60 420H172L292 263L172 100ZM376 100H264L387 263L264 420H376L496 263L376 100Z"  />
<glyph unicode="&#xBC;" horiz-adv-x="916" d="M733 342H731L606 166H733V342ZM85 292V358H152V646H75V702Q107 704 133 711T177 732H244V358H314V292H85ZM624 732H712L300 -10H211L624 732ZM530 184L722 434H825V166H888V100H825V0H733V100H530V184Z"  />
<glyph unicode="&#xBD;" horiz-adv-x="916" d="M85 292V358H152V646H75V702Q107 704 133 711T177 732H244V358H314V292H85ZM608 732H696L284 -10H195L608 732ZM532 0V72Q535 89 553 108T597 147T651 189T704 230T744 271T760 309Q760 368 694 368Q659 368 638 349T609 301L534 316Q538 343 551 365T586 404T635 430T695 440Q726 440 754 432T803 408T836 369T848 315Q848 276 830 246T781 189T712 135T632 72H848V0H532Z"  />
<glyph unicode="&#xBE;" horiz-adv-x="916" d="M733 342H731L606 166H733V342ZM638 732H726L314 -10H225L638 732ZM136 556Q161 556 183 558T221 566T246 583T256 611Q256 632 239 645T193 660Q163 659 142 647T103 617L47 665Q82 703 116 717T196 732Q261 732 302 704T344 621Q344 554 274 528V526Q316 515 338 487T360 417Q360 383 346 359T308 318T255 294T194 286Q144 286 99 308T28 377L96 412Q113 386 137 372T195 358Q226 358 249 374T272 423Q272 447 259 460T225 480T181 488T136 490V556ZM530 184L722 434H825V166H888V100H825V0H733V100H530V184Z"  />
<glyph unicode="&#xBF;" horiz-adv-x="444" d="M313 542V400H175V542H313ZM301 299V244Q301 201 281 164T237 93Q213 59 193 28T173 -36Q173 -59 192 -74T236 -90Q254 -90 268 -82T292 -62T310 -34T319 -2L434 -34Q415 -109 362 -149T228 -190Q191 -190 158 -180T101 -149T62 -99T47 -30Q47 20 69 55T119 123Q146 155 168 187T191 262V299H301Z"  />
<glyph unicode="&#xC0;" horiz-adv-x="611" d="M223 270H391L310 584H308L223 270ZM221 723H393L598 0H461L421 156H193L150 0H13L221 723ZM293 908L387 762H285L139 908H293Z"  />
<glyph unicode="&#xC1;" horiz-adv-x="611" d="M223 270H391L310 584H308L223 270ZM221 723H393L598 0H461L421 156H193L150 0H13L221 723ZM473 907L327 761H225L319 907H473Z"  />
<glyph unicode="&#xC2;" horiz-adv-x="611" d="M223 270H391L310 584H308L223 270ZM221 723H393L598 0H461L421 156H193L150 0H13L221 723ZM367 908L482 762H369L306 844L242 762H130L243 908H367Z"  />
<glyph unicode="&#xC3;" horiz-adv-x="611" d="M223 270H391L310 584H308L223 270ZM221 723H393L598 0H461L421 156H193L150 0H13L221 723ZM489 898Q484 875 476 853T455 814T424 787T378 776Q359 776 340 781T301 793T264 805T231 811Q211 811 201 799T185 770H123Q126 793 134 815T157 854T191 881T237 892Q257 892 277 886T315 874T349 861T377 855Q395 855 407 868T424 898H489Z"  />
<glyph unicode="&#xC4;" horiz-adv-x="611" d="M223 270H391L310 584H308L223 270ZM221 723H393L598 0H461L421 156H193L150 0H13L221 723ZM461 887V771H341V887H461ZM271 887V771H151V887H271Z"  />
<glyph unicode="&#xC5;" horiz-adv-x="611" d="M223 270H391L310 584H308L223 270ZM221 723H393L598 0H461L421 156H193L150 0H13L221 723ZM252 869Q252 846 267 831T306 815Q329 815 344 830T360 869Q360 892 345 907T306 923Q283 923 268 908T252 869ZM198 869Q198 891 206 911T229 945T263 968T306 977Q328 977 348 969T382 946T405 911T414 869Q414 846 406 827T383 793T348 770T306 761Q283 761 264 769T230 792T207 826T198 869Z"  />
<glyph unicode="&#xC6;" horiz-adv-x="944" d="M454 285V622H452L291 285H454ZM7 0L370 722H895V606H592V434H802V318H592V116H906V0H454V169H234L154 0H7Z"  />
<glyph unicode="&#xC7;" horiz-adv-x="611" d="M215 -161Q228 -166 250 -171T293 -177Q318 -177 331 -169T345 -135Q345 -115 332 -110T302 -104Q291 -104 280 -106T260 -110L240 -90L293 -9Q166 0 98 96T30 361Q30 539 105 635T320 732Q424 732 485 686T572 542L447 512Q432 558 400 587T316 616Q247 616 208 553T168 361Q165 106 320 106Q343 106 362 111T398 128T430 160T461 213L589 179Q559 91 497 44T345 -9L309 -63Q329 -58 345 -58Q379 -58 406 -76T433 -134Q433 -159 421 -177T391 -206T350 -223T306 -229Q277 -229 250 -222T197 -203L215 -161Z"  />
<glyph unicode="&#xC8;" horiz-adv-x="611" d="M84 0V722H562V606H222V434H469V318H222V116H573V0H84ZM312 908L406 762H304L158 908H312Z"  />
<glyph unicode="&#xC9;" horiz-adv-x="611" d="M84 0V722H562V606H222V434H469V318H222V116H573V0H84ZM492 908L346 762H244L338 908H492Z"  />
<glyph unicode="&#xCA;" horiz-adv-x="611" d="M84 0V722H562V606H222V434H469V318H222V116H573V0H84ZM386 908L501 762H388L325 844L261 762H149L262 908H386Z"  />
<glyph unicode="&#xCB;" horiz-adv-x="611" d="M84 0V722H562V606H222V434H469V318H222V116H573V0H84ZM480 888V772H360V888H480ZM290 888V772H170V888H290Z"  />
<glyph unicode="&#xCC;" horiz-adv-x="333" d="M97 0V722H235V0H97ZM151 908L245 762H143L-3 908H151Z"  />
<glyph unicode="&#xCD;" horiz-adv-x="333" d="M97 0V722H235V0H97ZM331 908L185 762H83L177 908H331Z"  />
<glyph unicode="&#xCE;" horiz-adv-x="333" d="M97 0V722H235V0H97ZM225 908L340 762H227L164 844L100 762H-12L101 908H225Z"  />
<glyph unicode="&#xCF;" horiz-adv-x="333" d="M97 0V722H235V0H97ZM319 888V772H199V888H319ZM129 888V772H9V888H129Z"  />
<glyph unicode="&#xD0;" horiz-adv-x="667" d="M216 434H365V310H216V116H308Q367 116 405 136T464 190T494 268T503 361Q503 409 495 453T465 532T405 586T308 606H216V434ZM78 310H11V434H78V722H317Q389 722 448 702T550 637T617 525T641 361Q641 265 617 197T550 85T448 21T317 0H78V310Z"  />
<glyph unicode="&#xD1;" horiz-adv-x="722" d="M81 0V722H225L509 230H511V722H641V0H508L213 514H211V0H81ZM544 898Q539 875 531 853T510 814T479 787T433 776Q414 776 395 781T356 793T319 805T286 811Q266 811 256 799T240 770H178Q181 793 189 815T212 854T246 881T292 892Q312 892 332 886T370 874T404 861T432 855Q450 855 462 868T479 898H544Z"  />
<glyph unicode="&#xD2;" horiz-adv-x="667" d="M498 361Q498 489 458 552T333 616Q248 616 208 553T168 361Q166 233 206 170T333 106Q418 106 458 169T498 361ZM636 361Q636 183 559 87T333 -10Q184 -10 107 86T30 361Q30 539 107 635T333 732Q482 732 559 636T636 361ZM321 908L415 762H313L167 908H321Z"  />
<glyph unicode="&#xD3;" horiz-adv-x="667" d="M498 361Q498 489 458 552T333 616Q248 616 208 553T168 361Q166 233 206 170T333 106Q418 106 458 169T498 361ZM636 361Q636 183 559 87T333 -10Q184 -10 107 86T30 361Q30 539 107 635T333 732Q482 732 559 636T636 361ZM501 908L355 762H253L347 908H501Z"  />
<glyph unicode="&#xD4;" horiz-adv-x="667" d="M498 361Q498 489 458 552T333 616Q248 616 208 553T168 361Q166 233 206 170T333 106Q418 106 458 169T498 361ZM636 361Q636 183 559 87T333 -10Q184 -10 107 86T30 361Q30 539 107 635T333 732Q482 732 559 636T636 361ZM395 908L510 762H397L334 844L270 762H158L271 908H395Z"  />
<glyph unicode="&#xD5;" horiz-adv-x="667" d="M498 361Q498 489 458 552T333 616Q248 616 208 553T168 361Q166 233 206 170T333 106Q418 106 458 169T498 361ZM636 361Q636 183 559 87T333 -10Q184 -10 107 86T30 361Q30 539 107 635T333 732Q482 732 559 636T636 361ZM517 898Q512 875 504 853T483 814T452 787T406 776Q387 776 368 781T329 793T292 805T259 811Q239 811 229 799T213 770H151Q154 793 162 815T185 854T219 881T265 892Q285 892 305 886T343 874T377 861T405 855Q423 855 435 868T452 898H517Z"  />
<glyph unicode="&#xD6;" horiz-adv-x="667" d="M498 361Q498 489 458 552T333 616Q248 616 208 553T168 361Q166 233 206 170T333 106Q418 106 458 169T498 361ZM636 361Q636 183 559 87T333 -10Q184 -10 107 86T30 361Q30 539 107 635T333 732Q482 732 559 636T636 361ZM489 888V772H369V888H489ZM299 888V772H179V888H299Z"  />
<glyph unicode="&#xD7;" horiz-adv-x="600" d="M117 0L40 78L223 261L40 444L117 520L300 338L483 520L560 444L377 261L560 78L483 0L300 184L117 0Z"  />
<glyph unicode="&#xD8;" horiz-adv-x="667" d="M425 588Q388 616 333 616Q248 616 208 553T168 361Q168 320 171 286T183 226L425 588ZM238 136Q275 106 333 106Q418 106 458 169T498 361Q498 445 480 499L238 136ZM565 626Q636 531 636 361Q636 183 559 87T333 -10Q234 -10 169 33L103 -66H-11L99 99Q30 193 30 361Q30 539 107 635T333 732Q428 732 494 690L541 762H656L565 626Z"  />
<glyph unicode="&#xD9;" horiz-adv-x="722" d="M500 722H638V270Q638 191 616 138T555 51T466 4T361 -10Q306 -10 256 4T168 51T107 137T84 270V722H222V264Q222 176 256 141T361 106Q431 106 465 141T500 264V722ZM345 908L439 762H337L191 908H345Z"  />
<glyph unicode="&#xDA;" horiz-adv-x="722" d="M500 722H638V270Q638 191 616 138T555 51T466 4T361 -10Q306 -10 256 4T168 51T107 137T84 270V722H222V264Q222 176 256 141T361 106Q431 106 465 141T500 264V722ZM525 908L379 762H277L371 908H525Z"  />
<glyph unicode="&#xDB;" horiz-adv-x="722" d="M500 722H638V270Q638 191 616 138T555 51T466 4T361 -10Q306 -10 256 4T168 51T107 137T84 270V722H222V264Q222 176 256 141T361 106Q431 106 465 141T500 264V722ZM419 908L534 762H421L358 844L294 762H182L295 908H419Z"  />
<glyph unicode="&#xDC;" horiz-adv-x="722" d="M500 722H638V270Q638 191 616 138T555 51T466 4T361 -10Q306 -10 256 4T168 51T107 137T84 270V722H222V264Q222 176 256 141T361 106Q431 106 465 141T500 264V722ZM513 888V772H393V888H513ZM323 888V772H203V888H323Z"  />
<glyph unicode="&#xDD;" horiz-adv-x="556" d="M278 436L402 722H546L347 288V0H209V288L10 722H154L278 436ZM445 908L299 762H197L291 908H445Z"  />
<glyph unicode="&#xDE;" horiz-adv-x="611" d="M206 271H316Q355 271 380 278T421 298T443 331T449 374Q449 398 443 417T422 449T381 470T316 477H206V271ZM68 0V722H206V589H332Q390 589 437 577T518 538T569 471T587 374Q587 318 569 277T518 210T438 172T332 159H206V0H68Z"  />
<glyph unicode="&#xDF;" horiz-adv-x="500" d="M53 0V550Q53 587 64 618T99 673T157 709T240 722Q340 722 388 675T436 546Q436 493 421 457T360 398V396Q412 381 446 333T480 198Q480 139 467 99T431 35T374 1T301 -10Q285 -10 260 -4T220 14L250 102Q260 97 272 94T295 90Q356 90 356 204Q356 232 352 256T338 298T311 326T266 336H240V436H256Q283 436 299 457T316 525Q316 622 242 622Q177 622 177 546V0H53Z"  />
<glyph unicode="&#xE0;" horiz-adv-x="500" d="M316 249Q285 243 254 236T198 218T158 188T142 143Q142 114 159 98T202 82Q217 82 233 87T264 101T292 119T316 137V249ZM329 0L321 45Q283 19 246 5T159 -10Q124 -10 98 1T54 32T27 76T18 128Q18 217 91 265T316 332V376Q316 406 295 422T240 438Q196 438 170 419T126 374L46 435Q58 456 79 473T126 504T182 524T240 530Q292 529 330 518T392 483T428 418T440 320V75Q440 55 442 36T450 0H329ZM237 732L331 586H229L83 732H237Z"  />
<glyph unicode="&#xE1;" horiz-adv-x="500" d="M316 249Q285 243 254 236T198 218T158 188T142 143Q142 114 159 98T202 82Q217 82 233 87T264 101T292 119T316 137V249ZM329 0L321 45Q283 19 246 5T159 -10Q124 -10 98 1T54 32T27 76T18 128Q18 217 91 265T316 332V376Q316 406 295 422T240 438Q196 438 170 419T126 374L46 435Q58 456 79 473T126 504T182 524T240 530Q292 529 330 518T392 483T428 418T440 320V75Q440 55 442 36T450 0H329ZM417 732L271 586H169L263 732H417Z"  />
<glyph unicode="&#xE2;" horiz-adv-x="500" d="M316 249Q285 243 254 236T198 218T158 188T142 143Q142 114 159 98T202 82Q217 82 233 87T264 101T292 119T316 137V249ZM329 0L321 45Q283 19 246 5T159 -10Q124 -10 98 1T54 32T27 76T18 128Q18 217 91 265T316 332V376Q316 406 295 422T240 438Q196 438 170 419T126 374L46 435Q58 456 79 473T126 504T182 524T240 530Q292 529 330 518T392 483T428 418T440 320V75Q440 55 442 36T450 0H329ZM311 732L426 586H313L250 668L186 586H74L187 732H311Z"  />
<glyph unicode="&#xE3;" horiz-adv-x="500" d="M316 249Q285 243 254 236T198 218T158 188T142 143Q142 114 159 98T202 82Q217 82 233 87T264 101T292 119T316 137V249ZM329 0L321 45Q283 19 246 5T159 -10Q124 -10 98 1T54 32T27 76T18 128Q18 217 91 265T316 332V376Q316 406 295 422T240 438Q196 438 170 419T126 374L46 435Q58 456 79 473T126 504T182 524T240 530Q292 529 330 518T392 483T428 418T440 320V75Q440 55 442 36T450 0H329ZM433 722Q428 699 420 677T399 638T368 611T322 600Q303 600 284 605T245 617T208 629T175 635Q155 635 145 623T129 594H67Q70 617 78 639T101 678T135 705T181 716Q201 716 221 710T259 698T293 685T321 679Q339 679 351 692T368 722H433Z"  />
<glyph unicode="&#xE4;" horiz-adv-x="500" d="M316 249Q285 243 254 236T198 218T158 188T142 143Q142 114 159 98T202 82Q217 82 233 87T264 101T292 119T316 137V249ZM329 0L321 45Q283 19 246 5T159 -10Q124 -10 98 1T54 32T27 76T18 128Q18 217 91 265T316 332V376Q316 406 295 422T240 438Q196 438 170 419T126 374L46 435Q58 456 79 473T126 504T182 524T240 530Q292 529 330 518T392 483T428 418T440 320V75Q440 55 442 36T450 0H329ZM405 712V596H285V712H405ZM215 712V596H95V712H215Z"  />
<glyph unicode="&#xE5;" horiz-adv-x="500" d="M316 249Q285 243 254 236T198 218T158 188T142 143Q142 114 159 98T202 82Q217 82 233 87T264 101T292 119T316 137V249ZM329 0L321 45Q283 19 246 5T159 -10Q124 -10 98 1T54 32T27 76T18 128Q18 217 91 265T316 332V376Q316 406 295 422T240 438Q196 438 170 419T126 374L46 435Q58 456 79 473T126 504T182 524T240 530Q292 529 330 518T392 483T428 418T440 320V75Q440 55 442 36T450 0H329ZM196 693Q196 670 211 655T250 639Q273 639 288 654T304 693Q304 716 289 731T250 747Q227 747 212 732T196 693ZM142 693Q142 715 150 735T173 769T207 792T250 801Q272 801 292 793T326 770T349 735T358 693Q358 670 350 651T327 617T292 594T250 585Q227 585 208 593T174 616T151 650T142 693Z"  />
<glyph unicode="&#xE6;" horiz-adv-x="778" d="M636 324Q634 378 608 408T536 438Q489 438 463 408T434 324H636ZM320 249Q287 243 256 236T199 218T158 188T142 143Q142 114 159 98T202 82Q217 82 233 87T264 101T294 119T320 137V249ZM434 240V188Q434 144 464 117T542 90Q587 90 612 107T660 152L750 96Q714 40 661 15T532 -10Q511 -10 489 -7T445 6T404 31T369 71Q332 44 302 28T248 4T202 -7T159 -10Q124 -10 98 1T54 32T27 76T18 128Q18 217 91 265T320 332V376Q320 406 297 422T240 438Q196 438 170 419T126 374L46 435Q58 456 79 473T126 504T182 524T240 530Q298 528 334 514T391 474Q444 530 532 530Q585 530 626 511T694 458T736 382T750 291V240H434Z"  />
<glyph unicode="&#xE7;" horiz-adv-x="500" d="M150 -161Q163 -166 185 -171T228 -177Q253 -177 266 -169T280 -135Q280 -115 267 -110T237 -104Q226 -104 215 -106T195 -110L175 -90L228 -9Q180 -5 142 15T78 70T38 153T24 260Q24 322 39 372T84 457T155 511T250 530Q324 530 378 494T455 391L352 351Q337 384 316 407T250 430Q198 430 173 389T148 260Q148 172 173 131T254 90Q295 90 320 114T364 173L458 120Q424 57 382 27T281 -8L244 -63Q264 -58 280 -58Q314 -58 341 -76T368 -134Q368 -159 356 -177T326 -206T285 -223T241 -229Q212 -229 185 -222T132 -203L150 -161Z"  />
<glyph unicode="&#xE8;" horiz-adv-x="500" d="M348 324Q346 378 320 408T248 438Q203 438 177 408T148 324H348ZM148 240Q150 159 181 125T256 90Q299 90 324 107T372 152L462 96Q426 40 373 15T244 -10Q193 -10 153 9T84 63T40 148T24 260Q24 322 39 372T84 457T155 511T250 530Q301 530 340 511T407 458T448 382T462 291V240H148ZM237 732L331 586H229L83 732H237Z"  />
<glyph unicode="&#xE9;" horiz-adv-x="500" d="M348 324Q346 378 320 408T248 438Q203 438 177 408T148 324H348ZM148 240Q150 159 181 125T256 90Q299 90 324 107T372 152L462 96Q426 40 373 15T244 -10Q193 -10 153 9T84 63T40 148T24 260Q24 322 39 372T84 457T155 511T250 530Q301 530 340 511T407 458T448 382T462 291V240H148ZM417 732L271 586H169L263 732H417Z"  />
<glyph unicode="&#xEA;" horiz-adv-x="500" d="M348 324Q346 378 320 408T248 438Q203 438 177 408T148 324H348ZM148 240Q150 159 181 125T256 90Q299 90 324 107T372 152L462 96Q426 40 373 15T244 -10Q193 -10 153 9T84 63T40 148T24 260Q24 322 39 372T84 457T155 511T250 530Q301 530 340 511T407 458T448 382T462 291V240H148ZM311 732L426 586H313L250 668L186 586H74L187 732H311Z"  />
<glyph unicode="&#xEB;" horiz-adv-x="500" d="M348 324Q346 378 320 408T248 438Q203 438 177 408T148 324H348ZM148 240Q150 159 181 125T256 90Q299 90 324 107T372 152L462 96Q426 40 373 15T244 -10Q193 -10 153 9T84 63T40 148T24 260Q24 322 39 372T84 457T155 511T250 530Q301 530 340 511T407 458T448 382T462 291V240H148ZM405 712V596H285V712H405ZM215 712V596H95V712H215Z"  />
<glyph unicode="&#xEC;" horiz-adv-x="278" d="M201 0H77V520H201V0ZM128 732L222 586H120L-26 732H128Z"  />
<glyph unicode="&#xED;" horiz-adv-x="278" d="M201 0H77V520H201V0ZM308 732L162 586H60L154 732H308Z"  />
<glyph unicode="&#xEE;" horiz-adv-x="278" d="M201 0H77V520H201V0ZM202 732L317 586H204L141 668L77 586H-35L78 732H202Z"  />
<glyph unicode="&#xEF;" horiz-adv-x="278" d="M201 0H77V520H201V0ZM296 712V596H176V712H296ZM106 712V596H-14V712H106Z"  />
<glyph unicode="&#xF0;" horiz-adv-x="500" d="M250 90Q302 90 327 129T352 244Q352 319 327 358T250 398Q198 398 173 359T148 244Q148 169 173 130T250 90ZM246 722Q261 711 274 700T302 674L402 722L438 658L350 615Q379 576 402 531T442 437T467 340T476 244Q476 188 461 142T416 61T345 9T250 -10Q197 -10 155 8T84 61T40 141T24 244Q24 300 39 346T84 427T155 479T250 498Q260 498 269 497T292 493Q284 513 273 531T250 567L148 518L112 582L203 626Q188 643 172 658T138 688L246 722Z"  />
<glyph unicode="&#xF1;" horiz-adv-x="556" d="M64 0V520H178V464Q213 488 252 509T338 530Q416 530 454 483T492 356V0H368V338Q368 391 352 410T304 430Q263 430 234 412T188 375V0H64ZM456 722Q451 699 443 677T422 638T391 611T345 600Q326 600 307 605T268 617T231 629T198 635Q178 635 168 623T152 594H90Q93 617 101 639T124 678T158 705T204 716Q224 716 244 710T282 698T316 685T344 679Q362 679 374 692T391 722H456Z"  />
<glyph unicode="&#xF2;" horiz-adv-x="500" d="M352 260Q352 348 327 389T250 430Q198 430 173 389T148 260Q148 172 173 131T250 90Q302 90 327 131T352 260ZM24 260Q24 322 39 372T84 457T155 511T250 530Q303 530 345 511T416 457T460 372T476 260Q476 198 461 148T416 63T345 9T250 -10Q197 -10 155 9T84 63T40 148T24 260ZM234 732L328 586H226L80 732H234Z"  />
<glyph unicode="&#xF3;" horiz-adv-x="500" d="M352 260Q352 348 327 389T250 430Q198 430 173 389T148 260Q148 172 173 131T250 90Q302 90 327 131T352 260ZM24 260Q24 322 39 372T84 457T155 511T250 530Q303 530 345 511T416 457T460 372T476 260Q476 198 461 148T416 63T345 9T250 -10Q197 -10 155 9T84 63T40 148T24 260ZM414 732L268 586H166L260 732H414Z"  />
<glyph unicode="&#xF4;" horiz-adv-x="500" d="M352 260Q352 348 327 389T250 430Q198 430 173 389T148 260Q148 172 173 131T250 90Q302 90 327 131T352 260ZM24 260Q24 322 39 372T84 457T155 511T250 530Q303 530 345 511T416 457T460 372T476 260Q476 198 461 148T416 63T345 9T250 -10Q197 -10 155 9T84 63T40 148T24 260ZM308 732L423 586H310L247 668L183 586H71L184 732H308Z"  />
<glyph unicode="&#xF5;" horiz-adv-x="500" d="M352 260Q352 348 327 389T250 430Q198 430 173 389T148 260Q148 172 173 131T250 90Q302 90 327 131T352 260ZM24 260Q24 322 39 372T84 457T155 511T250 530Q303 530 345 511T416 457T460 372T476 260Q476 198 461 148T416 63T345 9T250 -10Q197 -10 155 9T84 63T40 148T24 260ZM430 722Q425 699 417 677T396 638T365 611T319 600Q300 600 281 605T242 617T205 629T172 635Q152 635 142 623T126 594H64Q67 617 75 639T98 678T132 705T178 716Q198 716 218 710T256 698T290 685T318 679Q336 679 348 692T365 722H430Z"  />
<glyph unicode="&#xF6;" horiz-adv-x="500" d="M352 260Q352 348 327 389T250 430Q198 430 173 389T148 260Q148 172 173 131T250 90Q302 90 327 131T352 260ZM24 260Q24 322 39 372T84 457T155 511T250 530Q303 530 345 511T416 457T460 372T476 260Q476 198 461 148T416 63T345 9T250 -10Q197 -10 155 9T84 63T40 148T24 260ZM402 712V596H282V712H402ZM212 712V596H92V712H212Z"  />
<glyph unicode="&#xF7;" horiz-adv-x="600" d="M389 449Q389 432 382 417T363 389T334 369T299 361Q282 361 266 368T238 388T219 416T212 449Q212 465 219 481T238 510T266 530T299 538Q317 538 333 531T362 510T382 481T389 449ZM389 70Q389 53 382 38T363 10T334 -10T299 -18Q282 -18 266 -11T238 9T219 37T212 70Q212 86 219 102T238 131T266 151T299 159Q317 159 333 152T362 131T382 102T389 70ZM40 206V314H560V206H40Z"  />
<glyph unicode="&#xF8;" horiz-adv-x="500" d="M210 98Q228 90 250 90Q302 90 327 131T352 260Q352 284 350 304T344 342L210 98ZM296 419Q276 430 250 430Q198 430 173 389T148 260Q148 205 158 169L296 419ZM101 -100H10L94 53Q24 126 24 260Q24 322 39 372T84 457T155 511T250 530Q304 530 346 510L402 612H493L411 463Q443 428 459 377T476 260Q476 198 461 148T416 63T345 9T250 -10Q202 -10 160 7L101 -100Z"  />
<glyph unicode="&#xF9;" horiz-adv-x="556" d="M492 520V0H378V56Q343 32 304 11T218 -10Q140 -10 102 37T64 164V520H188V182Q188 129 204 110T252 90Q293 90 322 108T368 145V520H492ZM265 732L359 586H257L111 732H265Z"  />
<glyph unicode="&#xFA;" horiz-adv-x="556" d="M492 520V0H378V56Q343 32 304 11T218 -10Q140 -10 102 37T64 164V520H188V182Q188 129 204 110T252 90Q293 90 322 108T368 145V520H492ZM445 732L299 586H197L291 732H445Z"  />
<glyph unicode="&#xFB;" horiz-adv-x="556" d="M492 520V0H378V56Q343 32 304 11T218 -10Q140 -10 102 37T64 164V520H188V182Q188 129 204 110T252 90Q293 90 322 108T368 145V520H492ZM339 732L454 586H341L278 668L214 586H102L215 732H339Z"  />
<glyph unicode="&#xFC;" horiz-adv-x="556" d="M492 520V0H378V56Q343 32 304 11T218 -10Q140 -10 102 37T64 164V520H188V182Q188 129 204 110T252 90Q293 90 322 108T368 145V520H492ZM433 712V596H313V712H433ZM243 712V596H123V712H243Z"  />
<glyph unicode="&#xFD;" horiz-adv-x="444" d="M10 -84Q24 -87 36 -87T62 -88Q94 -88 113 -79T144 -47Q153 -28 158 -15T164 14Q164 28 159 44T148 76L9 520H134L220 200H222L311 520H435L271 -1Q250 -57 231 -93T188 -151T137 -181T70 -190Q47 -190 34 -189T10 -186V-84ZM389 732L243 586H141L235 732H389Z"  />
<glyph unicode="&#xFE;" horiz-adv-x="556" d="M188 134Q207 117 230 104T284 90Q340 90 370 133T400 260Q400 343 370 386T284 430Q264 430 250 426T226 415T207 400T188 384V134ZM64 722H183V472Q210 498 242 514T316 530Q368 530 407 509T472 449T511 359T524 246Q524 198 511 152T471 70T405 12T316 -10Q300 -10 282 -6T247 6T214 25T190 48H188V-190H64V722Z"  />
<glyph unicode="&#xFF;" horiz-adv-x="444" d="M10 -84Q24 -87 36 -87T62 -88Q94 -88 113 -79T144 -47Q153 -28 158 -15T164 14Q164 28 159 44T148 76L9 520H134L220 200H222L311 520H435L271 -1Q250 -57 231 -93T188 -151T137 -181T70 -190Q47 -190 34 -189T10 -186V-84ZM377 712V596H257V712H377ZM187 712V596H67V712H187Z"  />
<glyph unicode="&#x100;" horiz-adv-x="611" d="M223 270H391L310 584H308L223 270ZM221 723H393L598 0H461L421 156H193L150 0H13L221 723ZM139 794V868H485V794H139Z"  />
<glyph unicode="&#x101;" horiz-adv-x="500" d="M316 249Q285 243 254 236T198 218T158 188T142 143Q142 114 159 98T202 82Q217 82 233 87T264 101T292 119T316 137V249ZM329 0L321 45Q283 19 246 5T159 -10Q124 -10 98 1T54 32T27 76T18 128Q18 217 91 265T316 332V376Q316 406 295 422T240 438Q196 438 170 419T126 374L46 435Q58 456 79 473T126 504T182 524T240 530Q292 529 330 518T392 483T428 418T440 320V75Q440 55 442 36T450 0H329ZM75 618V692H421V618H75Z"  />
<glyph unicode="&#x102;" horiz-adv-x="611" d="M223 270H391L310 584H308L223 270ZM221 723H393L598 0H461L421 156H193L150 0H13L221 723ZM480 908Q469 833 424 798T304 762Q233 762 190 799T142 908H208Q210 887 220 874T244 852T276 841T312 838Q353 838 379 852T414 908H480Z"  />
<glyph unicode="&#x103;" horiz-adv-x="500" d="M316 249Q285 243 254 236T198 218T158 188T142 143Q142 114 159 98T202 82Q217 82 233 87T264 101T292 119T316 137V249ZM329 0L321 45Q283 19 246 5T159 -10Q124 -10 98 1T54 32T27 76T18 128Q18 217 91 265T316 332V376Q316 406 295 422T240 438Q196 438 170 419T126 374L46 435Q58 456 79 473T126 504T182 524T240 530Q292 529 330 518T392 483T428 418T440 320V75Q440 55 442 36T450 0H329ZM417 732Q406 657 361 622T241 586Q170 586 127 623T79 732H145Q147 711 157 698T181 676T213 665T249 662Q290 662 316 676T351 732H417Z"  />
<glyph unicode="&#x104;" horiz-adv-x="611" d="M221 723H393L598 0H564Q554 -4 542 -10Q518 -21 497 -36T461 -71T446 -116Q446 -139 461 -151T498 -164Q522 -164 548 -150T594 -123L614 -159Q580 -182 543 -199T463 -216Q420 -216 389 -194T358 -127Q358 -89 381 -63T438 -19Q460 -8 485 0H461L421 156H193L150 0H13L221 723ZM223 270H391L310 584H308L223 270Z"  />
<glyph unicode="&#x105;" horiz-adv-x="500" d="M405 -9Q382 -21 363 -36T333 -71T321 -116Q321 -139 336 -151T368 -164Q390 -164 407 -155T446 -132L466 -168Q432 -191 405 -203T340 -216Q296 -216 267 -194T237 -128Q237 -90 256 -64T306 -19Q320 -12 334 -5L325 48Q283 19 246 5T159 -10Q124 -10 98 1T54 32T27 76T18 128Q18 217 91 265T316 332V376Q316 406 295 422T240 438Q196 438 170 419T126 374L46 435Q58 456 79 473T126 504T182 524T240 530Q292 529 330 518T392 483T428 418T440 320V75Q440 55 442 36T450 0H424L405 -9ZM316 249Q285 243 254 236T198 218T158 188T142 143Q142 114 159 98T202 82Q217 82 233 87T264 101T292 119T316 137V249Z"  />
<glyph unicode="&#x106;" horiz-adv-x="611" d="M447 512Q432 558 400 587T316 616Q247 616 208 553T168 361Q165 106 320 106Q343 106 362 111T398 128T430 160T461 213L589 179Q557 85 489 38T320 -10Q181 -10 106 86T30 361Q30 539 105 635T320 732Q424 732 485 686T572 542L447 512ZM484 908L338 762H236L330 908H484Z"  />
<glyph unicode="&#x107;" horiz-adv-x="500" d="M352 351Q337 384 316 407T250 430Q198 430 173 389T148 260Q148 172 173 131T254 90Q295 90 320 114T364 173L458 120Q420 50 371 20T250 -10Q197 -10 155 9T84 63T40 148T24 260Q24 322 39 372T84 457T155 511T250 530Q324 530 378 494T455 391L352 351ZM418 732L272 586H170L264 732H418Z"  />
<glyph unicode="&#x108;" horiz-adv-x="611" d="M447 512Q432 558 400 587T316 616Q247 616 208 553T168 361Q165 106 320 106Q343 106 362 111T398 128T430 160T461 213L589 179Q557 85 489 38T320 -10Q181 -10 106 86T30 361Q30 539 105 635T320 732Q424 732 485 686T572 542L447 512ZM376 908L491 762H378L315 844L251 762H139L252 908H376Z"  />
<glyph unicode="&#x109;" horiz-adv-x="500" d="M352 351Q337 384 316 407T250 430Q198 430 173 389T148 260Q148 172 173 131T254 90Q295 90 320 114T364 173L458 120Q420 50 371 20T250 -10Q197 -10 155 9T84 63T40 148T24 260Q24 322 39 372T84 457T155 511T250 530Q324 530 378 494T455 391L352 351ZM311 732L426 586H313L250 668L186 586H74L187 732H311Z"  />
<glyph unicode="&#x10A;" horiz-adv-x="611" d="M447 512Q432 558 400 587T316 616Q247 616 208 553T168 361Q165 106 320 106Q343 106 362 111T398 128T430 160T461 213L589 179Q557 85 489 38T320 -10Q181 -10 106 86T30 361Q30 539 105 635T320 732Q424 732 485 686T572 542L447 512ZM375 888V772H255V888H375Z"  />
<glyph unicode="&#x10B;" horiz-adv-x="500" d="M352 351Q337 384 316 407T250 430Q198 430 173 389T148 260Q148 172 173 131T254 90Q295 90 320 114T364 173L458 120Q420 50 371 20T250 -10Q197 -10 155 9T84 63T40 148T24 260Q24 322 39 372T84 457T155 511T250 530Q324 530 378 494T455 391L352 351ZM310 712V596H190V712H310Z"  />
<glyph unicode="&#x10C;" horiz-adv-x="611" d="M447 512Q432 558 400 587T316 616Q247 616 208 553T168 361Q165 106 320 106Q343 106 362 111T398 128T430 160T461 213L589 179Q557 85 489 38T320 -10Q181 -10 106 86T30 361Q30 539 105 635T320 732Q424 732 485 686T572 542L447 512ZM252 762L139 908H251L315 826L378 908H491L376 762H252Z"  />
<glyph unicode="&#x10D;" horiz-adv-x="500" d="M352 351Q337 384 316 407T250 430Q198 430 173 389T148 260Q148 172 173 131T254 90Q295 90 320 114T364 173L458 120Q420 50 371 20T250 -10Q197 -10 155 9T84 63T40 148T24 260Q24 322 39 372T84 457T155 511T250 530Q324 530 378 494T455 391L352 351ZM187 586L74 732H186L250 650L313 732H426L311 586H187Z"  />
<glyph unicode="&#x10E;" horiz-adv-x="667" d="M216 116H308Q367 116 405 136T464 190T494 268T503 361Q503 409 495 453T465 532T405 586T308 606H216V116ZM78 722H317Q389 722 448 702T550 637T617 525T641 361Q641 265 617 197T550 85T448 21T317 0H78V722ZM242 762L129 908H241L305 826L368 908H481L366 762H242Z"  />
<glyph unicode="&#x10F;" horiz-adv-x="556" d="M368 386Q349 403 326 416T272 430Q216 430 186 387T156 260Q156 177 186 134T272 90Q292 90 306 94T330 105T349 120T368 136V386ZM492 0H387L381 56Q348 24 315 7T240 -10Q188 -10 149 11T84 71T45 161T32 274Q32 322 45 368T85 450T151 508T240 530Q256 530 274 526T309 514T342 495T366 472H368V722H492V0ZM570 624H526V722H626V626L588 539H539L570 624Z"  />
<glyph unicode="&#x110;" horiz-adv-x="667" d="M216 434H365V310H216V116H308Q367 116 405 136T464 190T494 268T503 361Q503 409 495 453T465 532T405 586T308 606H216V434ZM78 310H11V434H78V722H317Q389 722 448 702T550 637T617 525T641 361Q641 265 617 197T550 85T448 21T317 0H78V310Z"  />
<glyph unicode="&#x111;" horiz-adv-x="556" d="M492 0H387L381 56Q348 24 315 7T240 -10Q188 -10 149 11T84 71T45 161T32 274Q32 319 45 365T85 447T151 504T240 525Q256 525 275 521T310 510T342 492T366 469H368V581H227V668H368V722H492V668H548V581H492V0ZM368 383Q349 400 326 412T272 425Q216 425 186 383T156 260Q156 177 186 134T272 90Q292 90 306 94T330 105T349 120T368 136V383Z"  />
<glyph unicode="&#x112;" horiz-adv-x="611" d="M84 0V722H562V606H222V434H469V318H222V116H573V0H84ZM151 794V868H497V794H151Z"  />
<glyph unicode="&#x113;" horiz-adv-x="500" d="M348 324Q346 378 320 408T248 438Q203 438 177 408T148 324H348ZM148 240Q150 159 181 125T256 90Q299 90 324 107T372 152L462 96Q426 40 373 15T244 -10Q193 -10 153 9T84 63T40 148T24 260Q24 322 39 372T84 457T155 511T250 530Q301 530 340 511T407 458T448 382T462 291V240H148ZM77 618V692H423V618H77Z"  />
<glyph unicode="&#x114;" horiz-adv-x="611" d="M84 0V722H562V606H222V434H469V318H222V116H573V0H84ZM494 908Q483 833 438 798T318 762Q247 762 204 799T156 908H222Q224 887 234 874T258 852T290 841T326 838Q367 838 393 852T428 908H494Z"  />
<glyph unicode="&#x115;" horiz-adv-x="500" d="M348 324Q346 378 320 408T248 438Q203 438 177 408T148 324H348ZM148 240Q150 159 181 125T256 90Q299 90 324 107T372 152L462 96Q426 40 373 15T244 -10Q193 -10 153 9T84 63T40 148T24 260Q24 322 39 372T84 457T155 511T250 530Q301 530 340 511T407 458T448 382T462 291V240H148ZM419 732Q408 657 363 622T243 586Q172 586 129 623T81 732H147Q149 711 159 698T183 676T215 665T251 662Q292 662 318 676T353 732H419Z"  />
<glyph unicode="&#x116;" horiz-adv-x="611" d="M84 0V722H562V606H222V434H469V318H222V116H573V0H84ZM385 888V772H265V888H385Z"  />
<glyph unicode="&#x117;" horiz-adv-x="500" d="M348 324Q346 378 320 408T248 438Q203 438 177 408T148 324H348ZM148 240Q150 159 181 125T256 90Q299 90 324 107T372 152L462 96Q426 40 373 15T244 -10Q193 -10 153 9T84 63T40 148T24 260Q24 322 39 372T84 457T155 511T250 530Q301 530 340 511T407 458T448 382T462 291V240H148ZM310 712V596H190V712H310Z"  />
<glyph unicode="&#x118;" horiz-adv-x="611" d="M84 0V722H562V606H222V434H469V318H222V116H573V0H521Q511 -4 499 -10Q475 -21 454 -36T418 -71T403 -116Q403 -139 418 -151T455 -164Q479 -164 505 -150T551 -123L571 -159Q537 -182 500 -199T420 -216Q377 -216 346 -194T315 -127Q315 -89 338 -63T395 -19Q417 -8 442 0H84Z"  />
<glyph unicode="&#x119;" horiz-adv-x="500" d="M148 240Q150 159 181 125T256 90Q299 90 324 107T372 152L462 96Q426 40 372 15Q362 10 351 6Q337 -1 321 -9Q298 -21 277 -36T241 -71T226 -116Q226 -139 241 -151T278 -164Q302 -164 328 -150T374 -123L394 -159Q360 -182 323 -199T243 -216Q200 -216 169 -194T138 -127Q138 -89 161 -63T218 -19Q228 -14 238 -10Q190 -9 152 9Q112 28 84 63T40 148T24 260Q24 322 39 372T84 457T155 511T250 530Q301 530 340 511T407 458T448 382T462 291V240H148ZM348 324Q346 378 320 408T248 438Q203 438 177 408T148 324H348Z"  />
<glyph unicode="&#x11A;" horiz-adv-x="611" d="M84 0V722H562V606H222V434H469V318H222V116H573V0H84ZM261 762L148 908H260L324 826L387 908H500L385 762H261Z"  />
<glyph unicode="&#x11B;" horiz-adv-x="500" d="M348 324Q346 378 320 408T248 438Q203 438 177 408T148 324H348ZM148 240Q150 159 181 125T256 90Q299 90 324 107T372 152L462 96Q426 40 373 15T244 -10Q193 -10 153 9T84 63T40 148T24 260Q24 322 39 372T84 457T155 511T250 530Q301 530 340 511T407 458T448 382T462 291V240H148ZM187 586L74 732H186L250 650L313 732H426L311 586H187Z"  />
<glyph unicode="&#x11C;" horiz-adv-x="667" d="M465 514Q440 568 407 592T320 616Q282 616 254 598T206 545T178 463T168 354Q168 240 208 173T321 106Q389 106 429 146T472 249H335V365H605V0H505V74Q461 26 418 8T317 -10Q243 -10 189 17T100 93T48 207T30 350Q30 419 44 487T94 610T186 698T331 732Q385 732 428 718T503 680T558 622T593 548L465 514ZM388 908L503 762H390L327 844L263 762H151L264 908H388Z"  />
<glyph unicode="&#x11D;" horiz-adv-x="500" d="M214 10Q188 10 172 4T145 -12T130 -31T126 -50Q126 -80 156 -94T264 -108Q294 -108 314 -102T347 -86T365 -67T371 -50Q371 -41 364 -31T338 -11T289 4T214 10ZM322 352Q322 388 297 413T237 438Q197 438 172 413T147 352Q147 316 172 291T237 266Q272 266 297 291T322 352ZM488 446Q466 446 444 445T408 434Q420 417 428 395T436 342Q436 305 424 275T387 222T326 187T240 174Q199 174 171 169T143 142Q143 121 168 114T232 105T314 100T396 84T459 44T485 -36Q485 -64 471 -91T427 -141T352 -176T244 -190Q139 -190 76 -159T12 -66Q12 -42 20 -24T42 6T72 24T106 30V32Q97 38 84 44T59 59T38 81T29 116Q29 135 38 151T61 179T87 200T110 211Q78 237 56 269T33 349Q33 383 46 415T85 473T149 514T238 530Q271 530 306 518T366 484Q384 508 413 520T488 530V446ZM301 732L416 586H303L240 668L176 586H64L177 732H301Z"  />
<glyph unicode="&#x11E;" horiz-adv-x="667" d="M465 514Q440 568 407 592T320 616Q282 616 254 598T206 545T178 463T168 354Q168 240 208 173T321 106Q389 106 429 146T472 249H335V365H605V0H505V74Q461 26 418 8T317 -10Q243 -10 189 17T100 93T48 207T30 350Q30 419 44 487T94 610T186 698T331 732Q385 732 428 718T503 680T558 622T593 548L465 514ZM495 908Q484 833 439 798T319 762Q248 762 205 799T157 908H223Q225 887 235 874T259 852T291 841T327 838Q368 838 394 852T429 908H495Z"  />
<glyph unicode="&#x11F;" horiz-adv-x="500" d="M214 10Q188 10 172 4T145 -12T130 -31T126 -50Q126 -80 156 -94T264 -108Q294 -108 314 -102T347 -86T365 -67T371 -50Q371 -41 364 -31T338 -11T289 4T214 10ZM322 352Q322 388 297 413T237 438Q197 438 172 413T147 352Q147 316 172 291T237 266Q272 266 297 291T322 352ZM488 446Q466 446 444 445T408 434Q420 417 428 395T436 342Q436 305 424 275T387 222T326 187T240 174Q199 174 171 169T143 142Q143 121 168 114T232 105T314 100T396 84T459 44T485 -36Q485 -64 471 -91T427 -141T352 -176T244 -190Q139 -190 76 -159T12 -66Q12 -42 20 -24T42 6T72 24T106 30V32Q97 38 84 44T59 59T38 81T29 116Q29 135 38 151T61 179T87 200T110 211Q78 237 56 269T33 349Q33 383 46 415T85 473T149 514T238 530Q271 530 306 518T366 484Q384 508 413 520T488 530V446ZM411 732Q400 657 355 622T235 586Q164 586 121 623T73 732H139Q141 711 151 698T175 676T207 665T243 662Q284 662 310 676T345 732H411Z"  />
<glyph unicode="&#x120;" horiz-adv-x="667" d="M465 514Q440 568 407 592T320 616Q282 616 254 598T206 545T178 463T168 354Q168 240 208 173T321 106Q389 106 429 146T472 249H335V365H605V0H505V74Q461 26 418 8T317 -10Q243 -10 189 17T100 93T48 207T30 350Q30 419 44 487T94 610T186 698T331 732Q385 732 428 718T503 680T558 622T593 548L465 514ZM387 888V772H267V888H387Z"  />
<glyph unicode="&#x121;" horiz-adv-x="500" d="M214 10Q188 10 172 4T145 -12T130 -31T126 -50Q126 -80 156 -94T264 -108Q294 -108 314 -102T347 -86T365 -67T371 -50Q371 -41 364 -31T338 -11T289 4T214 10ZM322 352Q322 388 297 413T237 438Q197 438 172 413T147 352Q147 316 172 291T237 266Q272 266 297 291T322 352ZM488 446Q466 446 444 445T408 434Q420 417 428 395T436 342Q436 305 424 275T387 222T326 187T240 174Q199 174 171 169T143 142Q143 121 168 114T232 105T314 100T396 84T459 44T485 -36Q485 -64 471 -91T427 -141T352 -176T244 -190Q139 -190 76 -159T12 -66Q12 -42 20 -24T42 6T72 24T106 30V32Q97 38 84 44T59 59T38 81T29 116Q29 135 38 151T61 179T87 200T110 211Q78 237 56 269T33 349Q33 383 46 415T85 473T149 514T238 530Q271 530 306 518T366 484Q384 508 413 520T488 530V446ZM301 712V596H181V712H301Z"  />
<glyph unicode="&#x122;" horiz-adv-x="667" d="M465 514Q440 568 407 592T320 616Q282 616 254 598T206 545T178 463T168 354Q168 240 208 173T321 106Q389 106 429 146T472 249H335V365H605V0H505V74Q461 26 418 8T317 -10Q243 -10 189 17T100 93T48 207T30 350Q30 419 44 487T94 610T186 698T331 732Q385 732 428 718T503 680T558 622T593 548L465 514ZM315 -143H271V-45H371V-141L333 -228H284L315 -143Z"  />
<glyph unicode="&#x123;" horiz-adv-x="500" d="M214 10Q188 10 172 4T145 -12T130 -31T126 -50Q126 -80 156 -94T264 -108Q294 -108 314 -102T347 -86T365 -67T371 -50Q371 -41 364 -31T338 -11T289 4T214 10ZM322 352Q322 388 297 413T237 438Q197 438 172 413T147 352Q147 316 172 291T237 266Q272 266 297 291T322 352ZM488 446Q466 446 444 445T408 434Q420 417 428 395T436 342Q436 305 424 275T387 222T326 187T240 174Q199 174 171 169T143 142Q143 121 168 114T232 105T314 100T396 84T459 44T485 -36Q485 -64 471 -91T427 -141T352 -176T244 -190Q139 -190 76 -159T12 -66Q12 -42 20 -24T42 6T72 24T106 30V32Q97 38 84 44T59 59T38 81T29 116Q29 135 38 151T61 179T87 200T110 211Q78 237 56 269T33 349Q33 383 46 415T85 473T149 514T238 530Q271 530 306 518T366 484Q384 508 413 520T488 530V446ZM242 657H279V572H192V655L231 732H274L242 657Z"  />
<glyph unicode="&#x124;" horiz-adv-x="722" d="M84 0V722H222V434H500V722H638V0H500V310H222V0H84ZM426 908L541 762H428L365 844L301 762H189L302 908H426Z"  />
<glyph unicode="&#x125;" horiz-adv-x="556" d="M64 0V722H188V464Q217 488 254 509T338 530Q416 530 454 483T492 356V0H368V338Q368 391 352 410T304 430Q263 430 234 412T188 375V0H64ZM330 908L445 762H332L269 844L205 762H93L206 908H330Z"  />
<glyph unicode="&#x126;" horiz-adv-x="722" d="M84 0V722H222V598H500V722H638V0H500V263H222V0H84ZM222 378H500V500H222V378Z"  />
<glyph unicode="&#x127;" horiz-adv-x="556" d="M64 0V581H8V668H64V722H188V668H333V581H188V459Q217 483 254 504T338 525Q416 525 454 478T492 351V0H368V333Q368 386 352 405T304 425Q263 425 234 407T188 370V0H64Z"  />
<glyph unicode="&#x128;" horiz-adv-x="333" d="M97 0V722H235V0H97ZM349 898Q344 875 336 853T315 814T284 787T238 776Q219 776 200 781T161 793T124 805T91 811Q71 811 61 799T45 770H-17Q-14 793 -6 815T17 854T51 881T97 892Q117 892 137 886T175 874T209 861T237 855Q255 855 267 868T284 898H349Z"  />
<glyph unicode="&#x129;" horiz-adv-x="278" d="M201 0H77V520H201V0ZM324 722Q319 699 311 677T290 638T259 611T213 600Q194 600 175 605T136 617T99 629T66 635Q46 635 36 623T20 594H-42Q-39 617 -31 639T-8 678T26 705T72 716Q92 716 112 710T150 698T184 685T212 679Q230 679 242 692T259 722H324Z"  />
<glyph unicode="&#x12A;" horiz-adv-x="333" d="M97 0V722H235V0H97ZM-6 794V868H340V794H-6Z"  />
<glyph unicode="&#x12B;" horiz-adv-x="278" d="M201 0H77V520H201V0ZM-31 618V692H315V618H-31Z"  />
<glyph unicode="&#x12E;" horiz-adv-x="333" d="M97 0V722H235V0H215Q207 -3 196 -9Q175 -21 158 -36T129 -71T118 -116Q118 -139 133 -151T166 -164Q189 -164 207 -156T247 -133L267 -169Q235 -192 207 -204T140 -216Q95 -216 66 -194T36 -128Q36 -90 54 -64T100 -19Q119 -8 142 0H97Z"  />
<glyph unicode="&#x12F;" horiz-adv-x="278" d="M201 0H187Q179 -3 168 -9Q147 -21 130 -36T101 -71T90 -116Q90 -139 105 -151T138 -164Q161 -164 179 -156T219 -133L239 -169Q207 -192 179 -204T112 -216Q67 -216 38 -194T8 -128Q8 -90 26 -64T72 -19Q91 -8 114 0H77V520H201V0ZM77 616V732H201V616H77Z"  />
<glyph unicode="&#x130;" horiz-adv-x="333" d="M97 0V722H235V0H97ZM226 888V772H106V888H226Z"  />
<glyph unicode="&#x131;" horiz-adv-x="278" d="M201 0H77V520H201V0Z"  />
<glyph unicode="&#x132;" horiz-adv-x="759" d="M97 0V722H235V0H97ZM405 158Q423 128 440 117T480 106Q505 106 521 125T537 192V722H675V195Q675 93 626 42T480 -10Q423 -10 382 15T310 87L405 158Z"  />
<glyph unicode="&#x133;" horiz-adv-x="526" d="M77 616V732H201V616H77ZM201 0H77V520H201V0ZM338 616V732H462V616H338ZM251 -81Q261 -82 269 -83T292 -84Q314 -84 326 -71T338 -20V520H462V-40Q462 -120 428 -155T316 -190Q281 -190 251 -182V-81Z"  />
<glyph unicode="&#x134;" horiz-adv-x="444" d="M90 158Q108 128 125 117T165 106Q190 106 206 125T222 192V722H360V195Q360 93 311 42T165 -10Q108 -10 67 15T-5 87L90 158ZM346 908L461 762H348L285 844L221 762H109L222 908H346Z"  />
<glyph unicode="&#x135;" horiz-adv-x="278" d="M3 -81Q13 -82 21 -83T44 -84Q66 -84 78 -71T90 -20V520H214V-40Q214 -120 180 -155T68 -190Q33 -190 3 -182V-81ZM207 732L322 586H209L146 668L82 586H-30L83 732H207Z"  />
<glyph unicode="&#x136;" horiz-adv-x="667" d="M78 0V722H216V401L457 722H616L411 451L649 0H496L317 343L216 217V0H78ZM333 -143H289V-45H389V-141L351 -228H302L333 -143Z"  />
<glyph unicode="&#x137;" horiz-adv-x="500" d="M64 0V722H188V319H192L345 520H487L334 326L498 0H366L251 233L188 160V0H64ZM257 -143H213V-45H313V-141L275 -228H226L257 -143Z"  />
<glyph unicode="&#x139;" horiz-adv-x="556" d="M78 0V722H216V116H530V0H78ZM339 908L193 762H91L185 908H339Z"  />
<glyph unicode="&#x13A;" horiz-adv-x="278" d="M77 0V722H201V0H77ZM309 908L163 762H61L155 908H309Z"  />
<glyph unicode="&#x13B;" horiz-adv-x="556" d="M78 0V722H216V116H530V0H78ZM293 -143H249V-45H349V-141L311 -228H262L293 -143Z"  />
<glyph unicode="&#x13C;" horiz-adv-x="278" d="M77 0V722H201V0H77ZM133 -143H89V-45H189V-141L151 -228H102L133 -143Z"  />
<glyph unicode="&#x13D;" horiz-adv-x="556" d="M78 0V722H216V116H530V0H78ZM315 624H271V722H371V626L333 539H284L315 624Z"  />
<glyph unicode="&#x13E;" horiz-adv-x="278" d="M77 0V722H201V0H77ZM280 624H236V722H336V626L298 539H249L280 624Z"  />
<glyph unicode="&#x13F;" horiz-adv-x="556" d="M78 0V722H216V116H530V0H78ZM422 428V312H302V428H422Z"  />
<glyph unicode="&#x140;" horiz-adv-x="428" d="M77 0V722H201V0H77ZM393 428V312H273V428H393Z"  />
<glyph unicode="&#x141;" horiz-adv-x="556" d="M216 116H530V0H78V290L0 258V358L78 390V722H216V446L374 510V410L216 346V116Z"  />
<glyph unicode="&#x142;" horiz-adv-x="278" d="M201 0H77V317L0 278V378L77 417V722H201V479L278 518V418L201 379V0Z"  />
<glyph unicode="&#x143;" horiz-adv-x="722" d="M81 0V722H225L509 230H511V722H641V0H508L213 514H211V0H81ZM533 908L387 762H285L379 908H533Z"  />
<glyph unicode="&#x144;" horiz-adv-x="556" d="M64 0V520H178V464Q213 488 252 509T338 530Q416 530 454 483T492 356V0H368V338Q368 391 352 410T304 430Q263 430 234 412T188 375V0H64ZM457 732L311 586H209L303 732H457Z"  />
<glyph unicode="&#x145;" horiz-adv-x="722" d="M81 0V722H225L509 230H511V722H641V0H508L213 514H211V0H81ZM358 -143H314V-45H414V-141L376 -228H327L358 -143Z"  />
<glyph unicode="&#x146;" horiz-adv-x="556" d="M64 0V520H178V464Q213 488 252 509T338 530Q416 530 454 483T492 356V0H368V338Q368 391 352 410T304 430Q263 430 234 412T188 375V0H64ZM270 -143H226V-45H326V-141L288 -228H239L270 -143Z"  />
<glyph unicode="&#x147;" horiz-adv-x="722" d="M81 0V722H225L509 230H511V722H641V0H508L213 514H211V0H81ZM303 762L190 908H302L366 826L429 908H542L427 762H303Z"  />
<glyph unicode="&#x148;" horiz-adv-x="556" d="M64 0V520H178V464Q213 488 252 509T338 530Q416 530 454 483T492 356V0H368V338Q368 391 352 410T304 430Q263 430 234 412T188 375V0H64ZM219 586L106 732H218L282 650L345 732H458L343 586H219Z"  />
<glyph unicode="&#x149;" horiz-adv-x="636" d="M144 0V520H258V464Q293 488 332 509T418 530Q496 530 534 483T572 356V0H448V338Q448 391 432 410T384 430Q343 430 314 412T268 375V0H144ZM32 580H-28V722H110V580L46 430H-19L32 580Z"  />
<glyph unicode="&#x14C;" horiz-adv-x="667" d="M498 361Q498 489 458 552T333 616Q248 616 208 553T168 361Q166 233 206 170T333 106Q418 106 458 169T498 361ZM636 361Q636 183 559 87T333 -10Q184 -10 107 86T30 361Q30 539 107 635T333 732Q482 732 559 636T636 361ZM161 794V868H507V794H161Z"  />
<glyph unicode="&#x14D;" horiz-adv-x="500" d="M352 260Q352 348 327 389T250 430Q198 430 173 389T148 260Q148 172 173 131T250 90Q302 90 327 131T352 260ZM24 260Q24 322 39 372T84 457T155 511T250 530Q303 530 345 511T416 457T460 372T476 260Q476 198 461 148T416 63T345 9T250 -10Q197 -10 155 9T84 63T40 148T24 260ZM80 618V692H426V618H80Z"  />
<glyph unicode="&#x14E;" horiz-adv-x="667" d="M498 361Q498 489 458 552T333 616Q248 616 208 553T168 361Q166 233 206 170T333 106Q418 106 458 169T498 361ZM636 361Q636 183 559 87T333 -10Q184 -10 107 86T30 361Q30 539 107 635T333 732Q482 732 559 636T636 361ZM501 908Q490 833 445 798T325 762Q254 762 211 799T163 908H229Q231 887 241 874T265 852T297 841T333 838Q374 838 400 852T435 908H501Z"  />
<glyph unicode="&#x14F;" horiz-adv-x="500" d="M352 260Q352 348 327 389T250 430Q198 430 173 389T148 260Q148 172 173 131T250 90Q302 90 327 131T352 260ZM24 260Q24 322 39 372T84 457T155 511T250 530Q303 530 345 511T416 457T460 372T476 260Q476 198 461 148T416 63T345 9T250 -10Q197 -10 155 9T84 63T40 148T24 260ZM422 732Q411 657 366 622T246 586Q175 586 132 623T84 732H150Q152 711 162 698T186 676T218 665T254 662Q295 662 321 676T356 732H422Z"  />
<glyph unicode="&#x150;" horiz-adv-x="667" d="M498 361Q498 489 458 552T333 616Q248 616 208 553T168 361Q166 233 206 170T333 106Q418 106 458 169T498 361ZM636 361Q636 183 559 87T333 -10Q184 -10 107 86T30 361Q30 539 107 635T333 732Q482 732 559 636T636 361ZM409 908L277 762H179L255 908H409ZM603 908L457 762H355L449 908H603Z"  />
<glyph unicode="&#x151;" horiz-adv-x="500" d="M352 260Q352 348 327 389T250 430Q198 430 173 389T148 260Q148 172 173 131T250 90Q302 90 327 131T352 260ZM24 260Q24 322 39 372T84 457T155 511T250 530Q303 530 345 511T416 457T460 372T476 260Q476 198 461 148T416 63T345 9T250 -10Q197 -10 155 9T84 63T40 148T24 260ZM319 732L187 586H89L165 732H319ZM513 732L367 586H265L359 732H513Z"  />
<glyph unicode="&#x152;" horiz-adv-x="944" d="M459 456Q459 504 452 535T427 584T384 609T320 616Q285 616 255 607T201 570T164 492T151 361Q151 280 164 230T200 153T254 116T320 106Q357 106 383 113T427 138T451 187T459 266V456ZM813 318H597V116H920V0H517Q473 0 430 -5T342 -10Q255 -10 193 14T90 85T32 201T13 361Q13 452 31 521T90 637T192 708T342 732Q374 732 415 727T500 722H903V606H597V434H813V318Z"  />
<glyph unicode="&#x153;" horiz-adv-x="778" d="M636 324Q634 378 609 408T541 438Q499 438 474 408T446 324H636ZM136 260Q136 172 160 131T234 90Q283 90 307 131T332 260Q332 348 308 389T234 430Q185 430 161 389T136 260ZM446 240Q448 159 474 125T556 90Q591 90 614 107T660 152L750 96Q714 40 663 15T548 -10Q497 -10 459 8T395 59Q368 24 327 7T232 -10Q181 -10 141 9T72 63T28 148T12 260Q12 322 27 372T71 457T140 511T232 530Q283 530 324 514T393 463Q446 530 540 530Q590 530 629 511T695 458T736 382T750 291V240H446Z"  />
<glyph unicode="&#x154;" horiz-adv-x="667" d="M216 406H318Q399 406 429 431T459 508Q459 559 429 584T342 610H216V406ZM78 0V722H366Q427 722 471 706T542 660T583 592T597 508Q598 441 565 391T465 322L624 0H471L335 294H216V0H78ZM481 908L335 762H233L327 908H481Z"  />
<glyph unicode="&#x155;" horiz-adv-x="333" d="M56 0V520H170V431H172Q195 478 228 503T318 530V399Q313 400 308 400Q303 400 296 400Q273 400 252 389T215 363T190 335T180 316V0H56ZM373 732L227 586H125L219 732H373Z"  />
<glyph unicode="&#x156;" horiz-adv-x="667" d="M216 406H318Q399 406 429 431T459 508Q459 559 429 584T342 610H216V406ZM78 0V722H366Q427 722 471 706T542 660T583 592T597 508Q598 441 565 391T465 322L624 0H471L335 294H216V0H78ZM326 -143H282V-45H382V-141L344 -228H295L326 -143Z"  />
<glyph unicode="&#x157;" horiz-adv-x="333" d="M56 0V520H170V431H172Q195 478 228 503T318 530V399Q313 400 308 400Q303 400 296 400Q273 400 252 389T215 363T190 335T180 316V0H56ZM112 -143H68V-45H168V-141L130 -228H81L112 -143Z"  />
<glyph unicode="&#x158;" horiz-adv-x="667" d="M216 406H318Q399 406 429 431T459 508Q459 559 429 584T342 610H216V406ZM78 0V722H366Q427 722 471 706T542 660T583 592T597 508Q598 441 565 391T465 322L624 0H471L335 294H216V0H78ZM253 762L140 908H252L316 826L379 908H492L377 762H253Z"  />
<glyph unicode="&#x159;" horiz-adv-x="333" d="M56 0V520H170V431H172Q195 478 228 503T318 530V399Q313 400 308 400Q303 400 296 400Q273 400 252 389T215 363T190 335T180 316V0H56ZM128 586L15 732H127L191 650L254 732H367L252 586H128Z"  />
<glyph unicode="&#x15A;" horiz-adv-x="611" d="M419 530Q403 572 371 598T290 624Q245 624 216 605T187 544Q187 513 214 493T283 455T373 419T462 375T531 309T559 212Q559 100 493 45T306 -10Q262 -10 220 2T142 36T79 90T36 161L150 211Q175 160 210 129T307 98Q333 98 355 103T393 119T419 149T429 194Q429 229 402 252T333 295T243 332T154 375T85 437T57 530Q57 578 76 616T127 679T201 718T290 732Q377 732 445 690T545 569L419 530ZM479 908L333 762H231L325 908H479Z"  />
<glyph unicode="&#x15B;" horiz-adv-x="444" d="M317 383Q298 403 274 420T220 438Q184 438 167 424T150 387Q150 365 169 352T217 327T280 305T342 274T390 224T410 146Q410 105 396 76T356 28T295 -1T219 -10Q156 -10 107 17T22 95L105 157Q127 127 156 105T226 82Q259 82 279 98T300 141Q300 163 281 177T233 202T170 225T108 257T60 305T40 379Q40 415 54 443T92 491T147 520T212 530Q264 530 312 511T395 451L317 383ZM395 732L249 586H147L241 732H395Z"  />
<glyph unicode="&#x15C;" horiz-adv-x="611" d="M419 530Q403 572 371 598T290 624Q245 624 216 605T187 544Q187 513 214 493T283 455T373 419T462 375T531 309T559 212Q559 100 493 45T306 -10Q262 -10 220 2T142 36T79 90T36 161L150 211Q175 160 210 129T307 98Q333 98 355 103T393 119T419 149T429 194Q429 229 402 252T333 295T243 332T154 375T85 437T57 530Q57 578 76 616T127 679T201 718T290 732Q377 732 445 690T545 569L419 530ZM370 908L485 762H372L309 844L245 762H133L246 908H370Z"  />
<glyph unicode="&#x15D;" horiz-adv-x="444" d="M317 383Q298 403 274 420T220 438Q184 438 167 424T150 387Q150 365 169 352T217 327T280 305T342 274T390 224T410 146Q410 105 396 76T356 28T295 -1T219 -10Q156 -10 107 17T22 95L105 157Q127 127 156 105T226 82Q259 82 279 98T300 141Q300 163 281 177T233 202T170 225T108 257T60 305T40 379Q40 415 54 443T92 491T147 520T212 530Q264 530 312 511T395 451L317 383ZM282 732L397 586H284L221 668L157 586H45L158 732H282Z"  />
<glyph unicode="&#x15E;" horiz-adv-x="611" d="M189 -161Q202 -166 224 -171T267 -177Q292 -177 305 -169T319 -135Q319 -115 306 -110T276 -104Q265 -104 254 -106T234 -110L214 -90L268 -8Q243 -5 220 2Q178 14 142 36T79 90T36 161L150 211Q175 160 210 129T307 98Q333 98 355 103T393 119T419 149T429 194Q429 229 402 252T333 295T243 332T154 375T85 437T57 530Q57 578 76 616T127 679T201 718T290 732Q377 732 445 690T545 569L419 530Q403 572 371 598T290 624Q245 624 216 605T187 544Q187 513 214 493T283 455T373 419T462 375T531 309T559 212Q559 100 493 45Q430 -7 319 -10L283 -63Q303 -58 319 -58Q353 -58 380 -76T407 -134Q407 -159 395 -177T365 -206T324 -223T280 -229Q251 -229 224 -222T171 -203L189 -161Z"  />
<glyph unicode="&#x15F;" horiz-adv-x="444" d="M112 -161Q125 -166 147 -171T190 -177Q215 -177 228 -169T242 -135Q242 -115 229 -110T199 -104Q188 -104 177 -106T157 -110L137 -90L190 -8Q144 -3 106 17Q57 44 22 95L105 157Q127 127 156 105T226 82Q259 82 279 98T300 141Q300 163 281 177T233 202T170 225T108 257T60 305T40 379Q40 415 54 443T92 491T147 520T212 530Q264 530 312 511T395 451L317 383Q298 403 274 420T220 438Q184 438 167 424T150 387Q150 365 169 352T217 327T280 305T342 274T390 224T410 146Q410 105 396 76T356 28T295 -1Q270 -7 242 -9L206 -63Q226 -58 242 -58Q276 -58 303 -76T330 -134Q330 -159 318 -177T288 -206T247 -223T203 -229Q174 -229 147 -222T94 -203L112 -161Z"  />
<glyph unicode="&#x160;" horiz-adv-x="611" d="M419 530Q403 572 371 598T290 624Q245 624 216 605T187 544Q187 513 214 493T283 455T373 419T462 375T531 309T559 212Q559 100 493 45T306 -10Q262 -10 220 2T142 36T79 90T36 161L150 211Q175 160 210 129T307 98Q333 98 355 103T393 119T419 149T429 194Q429 229 402 252T333 295T243 332T154 375T85 437T57 530Q57 578 76 616T127 679T201 718T290 732Q377 732 445 690T545 569L419 530ZM243 762L130 908H242L306 826L369 908H482L367 762H243Z"  />
<glyph unicode="&#x161;" horiz-adv-x="444" d="M317 383Q298 403 274 420T220 438Q184 438 167 424T150 387Q150 365 169 352T217 327T280 305T342 274T390 224T410 146Q410 105 396 76T356 28T295 -1T219 -10Q156 -10 107 17T22 95L105 157Q127 127 156 105T226 82Q259 82 279 98T300 141Q300 163 281 177T233 202T170 225T108 257T60 305T40 379Q40 415 54 443T92 491T147 520T212 530Q264 530 312 511T395 451L317 383ZM159 586L46 732H158L222 650L285 732H398L283 586H159Z"  />
<glyph unicode="&#x162;" horiz-adv-x="556" d="M536 723V607H347V0H209V607H20V723H536ZM270 -143H226V-45H326V-141L288 -228H239L270 -143Z"  />
<glyph unicode="&#x163;" horiz-adv-x="333" d="M84 520V692H208V520H310V420H208V126Q208 105 219 98T253 90Q267 90 281 93T310 100V-2Q284 -5 261 -7T212 -10Q143 -10 114 22T84 110V420H12V520H84ZM177 -143H133V-45H233V-141L195 -228H146L177 -143Z"  />
<glyph unicode="&#x164;" horiz-adv-x="556" d="M536 723V607H347V0H209V607H20V723H536ZM216 762L103 908H215L279 826L342 908H455L340 762H216Z"  />
<glyph unicode="&#x165;" horiz-adv-x="333" d="M284 632H246V722H337V634L299 554H256L284 632ZM84 520V692H208V520H310V420H208V126Q208 105 219 98T253 90Q267 90 281 93T310 100V-2Q284 -5 261 -7T212 -10Q143 -10 114 22T84 110V420H12V520H84Z"  />
<glyph unicode="&#x166;" horiz-adv-x="556" d="M536 723V610H347V476H498V370H347V0H209V370H58V476H209V610H20V723H536Z"  />
<glyph unicode="&#x167;" horiz-adv-x="333" d="M84 520V692H208V520H310V424H208V340H292V248H208V126Q208 105 219 98T253 90Q267 90 281 93T310 100V-2Q284 -5 261 -7T212 -10Q143 -10 114 22T84 110V248H21V340H84V424H12V520H84Z"  />
<glyph unicode="&#x168;" horiz-adv-x="722" d="M500 722H638V270Q638 191 616 138T555 51T466 4T361 -10Q306 -10 256 4T168 51T107 137T84 270V722H222V264Q222 176 256 141T361 106Q431 106 465 141T500 264V722ZM544 898Q539 875 531 853T510 814T479 787T433 776Q414 776 395 781T356 793T319 805T286 811Q266 811 256 799T240 770H178Q181 793 189 815T212 854T246 881T292 892Q312 892 332 886T370 874T404 861T432 855Q450 855 462 868T479 898H544Z"  />
<glyph unicode="&#x169;" horiz-adv-x="556" d="M492 520V0H378V56Q343 32 304 11T218 -10Q140 -10 102 37T64 164V520H188V182Q188 129 204 110T252 90Q293 90 322 108T368 145V520H492ZM463 722Q458 699 450 677T429 638T398 611T352 600Q333 600 314 605T275 617T238 629T205 635Q185 635 175 623T159 594H97Q100 617 108 639T131 678T165 705T211 716Q231 716 251 710T289 698T323 685T351 679Q369 679 381 692T398 722H463Z"  />
<glyph unicode="&#x16A;" horiz-adv-x="722" d="M500 722H638V270Q638 191 616 138T555 51T466 4T361 -10Q306 -10 256 4T168 51T107 137T84 270V722H222V264Q222 176 256 141T361 106Q431 106 465 141T500 264V722ZM185 794V868H531V794H185Z"  />
<glyph unicode="&#x16B;" horiz-adv-x="556" d="M492 520V0H378V56Q343 32 304 11T218 -10Q140 -10 102 37T64 164V520H188V182Q188 129 204 110T252 90Q293 90 322 108T368 145V520H492ZM106 618V692H452V618H106Z"  />
<glyph unicode="&#x16C;" horiz-adv-x="722" d="M500 722H638V270Q638 191 616 138T555 51T466 4T361 -10Q306 -10 256 4T168 51T107 137T84 270V722H222V264Q222 176 256 141T361 106Q431 106 465 141T500 264V722ZM527 908Q516 833 471 798T351 762Q280 762 237 799T189 908H255Q257 887 267 874T291 852T323 841T359 838Q400 838 426 852T461 908H527Z"  />
<glyph unicode="&#x16D;" horiz-adv-x="556" d="M492 520V0H378V56Q343 32 304 11T218 -10Q140 -10 102 37T64 164V520H188V182Q188 129 204 110T252 90Q293 90 322 108T368 145V520H492ZM450 732Q439 657 394 622T274 586Q203 586 160 623T112 732H178Q180 711 190 698T214 676T246 665T282 662Q323 662 349 676T384 732H450Z"  />
<glyph unicode="&#x16E;" horiz-adv-x="722" d="M500 722H638V270Q638 191 616 138T555 51T466 4T361 -10Q306 -10 256 4T168 51T107 137T84 270V722H222V264Q222 176 256 141T361 106Q431 106 465 141T500 264V722ZM305 869Q305 846 320 831T359 815Q382 815 397 830T413 869Q413 892 398 907T359 923Q336 923 321 908T305 869ZM251 869Q251 891 259 911T282 945T316 968T359 977Q381 977 401 969T435 946T458 911T467 869Q467 846 459 827T436 793T401 770T359 761Q336 761 317 769T283 792T260 826T251 869Z"  />
<glyph unicode="&#x16F;" horiz-adv-x="556" d="M492 520V0H378V56Q343 32 304 11T218 -10Q140 -10 102 37T64 164V520H188V182Q188 129 204 110T252 90Q293 90 322 108T368 145V520H492ZM225 693Q225 670 240 655T279 639Q302 639 317 654T333 693Q333 716 318 731T279 747Q256 747 241 732T225 693ZM171 693Q171 715 179 735T202 769T236 792T279 801Q301 801 321 793T355 770T378 735T387 693Q387 670 379 651T356 617T321 594T279 585Q256 585 237 593T203 616T180 650T171 693Z"  />
<glyph unicode="&#x170;" horiz-adv-x="722" d="M500 722H638V270Q638 191 616 138T555 51T466 4T361 -10Q306 -10 256 4T168 51T107 137T84 270V722H222V264Q222 176 256 141T361 106Q431 106 465 141T500 264V722ZM434 908L302 762H204L280 908H434ZM628 908L482 762H380L474 908H628Z"  />
<glyph unicode="&#x171;" horiz-adv-x="556" d="M492 520V0H378V56Q343 32 304 11T218 -10Q140 -10 102 37T64 164V520H188V182Q188 129 204 110T252 90Q293 90 322 108T368 145V520H492ZM350 732L218 586H120L196 732H350ZM544 732L398 586H296L390 732H544Z"  />
<glyph unicode="&#x172;" horiz-adv-x="722" d="M500 722H638V270Q638 191 616 138T554 51Q522 23 481 8Q461 0 437 -10Q413 -21 392 -36T356 -71T341 -116Q341 -139 356 -151T393 -164Q417 -164 443 -150T489 -123L509 -159Q475 -182 438 -199T358 -216Q315 -216 284 -194T253 -127Q253 -89 276 -63T333 -19Q343 -14 353 -10Q302 -9 256 4Q206 18 168 51T107 137T84 270V722H222V264Q222 176 256 141T361 106Q431 106 465 141T500 264V722Z"  />
<glyph unicode="&#x173;" horiz-adv-x="556" d="M492 520V0H471L452 -9Q429 -21 410 -36T380 -71T368 -116Q368 -139 383 -151T415 -164Q437 -164 454 -155T493 -132L513 -168Q479 -191 452 -203T387 -216Q343 -216 314 -194T284 -128Q284 -90 303 -64T353 -19Q366 -12 380 -6V58Q343 32 304 11T218 -10Q140 -10 102 37T64 164V520H188V182Q188 129 204 110T252 90Q293 90 322 108T368 145V520H492Z"  />
<glyph unicode="&#x174;" horiz-adv-x="833" d="M20 722H149L240 235H242L345 722H487L582 235H584L683 722H812L662 0H522L417 514H415L311 0H171L20 722ZM482 908L597 762H484L421 844L357 762H245L358 908H482Z"  />
<glyph unicode="&#x175;" horiz-adv-x="667" d="M10 520H128L199 196H201L276 520H391L463 196H465L539 520H657L523 0H411L334 324H332L256 0H144L10 520ZM398 732L513 586H400L337 668L273 586H161L274 732H398Z"  />
<glyph unicode="&#x176;" horiz-adv-x="556" d="M278 436L402 722H546L347 288V0H209V288L10 722H154L278 436ZM338 908L453 762H340L277 844L213 762H101L214 908H338Z"  />
<glyph unicode="&#x177;" horiz-adv-x="444" d="M10 -84Q24 -87 36 -87T62 -88Q94 -88 113 -79T144 -47Q153 -28 158 -15T164 14Q164 28 159 44T148 76L9 520H134L220 200H222L311 520H435L271 -1Q250 -57 231 -93T188 -151T137 -181T70 -190Q47 -190 34 -189T10 -186V-84ZM283 732L398 586H285L222 668L158 586H46L159 732H283Z"  />
<glyph unicode="&#x178;" horiz-adv-x="556" d="M278 436L402 722H546L347 288V0H209V288L10 722H154L278 436ZM433 888V772H313V888H433ZM243 888V772H123V888H243Z"  />
<glyph unicode="&#x179;" horiz-adv-x="556" d="M530 0H16V117L353 606H39V722H527V612L178 116H530V0ZM457 908L311 762H209L303 908H457Z"  />
<glyph unicode="&#x17A;" horiz-adv-x="444" d="M39 520H424V432L174 100H426V0H18V88L269 420H39V520ZM411 732L265 586H163L257 732H411Z"  />
<glyph unicode="&#x17B;" horiz-adv-x="556" d="M530 0H16V117L353 606H39V722H527V612L178 116H530V0ZM348 888V772H228V888H348Z"  />
<glyph unicode="&#x17C;" horiz-adv-x="444" d="M39 520H424V432L174 100H426V0H18V88L269 420H39V520ZM297 712V596H177V712H297Z"  />
<glyph unicode="&#x17D;" horiz-adv-x="556" d="M530 0H16V117L353 606H39V722H527V612L178 116H530V0ZM215 762L102 908H214L278 826L341 908H454L339 762H215Z"  />
<glyph unicode="&#x17E;" horiz-adv-x="444" d="M39 520H424V432L174 100H426V0H18V88L269 420H39V520ZM159 586L46 732H158L222 650L285 732H398L283 586H159Z"  />
<glyph unicode="&#x192;" horiz-adv-x="611" d="M77 -76Q88 -79 100 -82T131 -86Q142 -86 151 -82T168 -63T184 -19T203 60T228 185T262 366H165V460H284Q298 533 312 584T348 669T399 717T475 732Q498 732 517 730T553 723L537 617Q525 622 514 625T490 628Q449 628 433 585T407 460H510V366H390Q371 278 358 203T333 67T305 -41T267 -121T211 -170T129 -190Q108 -191 91 -188T58 -182L77 -76Z"  />
<glyph unicode="&#x218;" horiz-adv-x="611" d="M419 530Q403 572 371 598T290 624Q245 624 216 605T187 544Q187 513 214 493T283 455T373 419T462 375T531 309T559 212Q559 100 493 45T306 -10Q262 -10 220 2T142 36T79 90T36 161L150 211Q175 160 210 129T307 98Q333 98 355 103T393 119T419 149T429 194Q429 229 402 252T333 295T243 332T154 375T85 437T57 530Q57 578 76 616T127 679T201 718T290 732Q377 732 445 690T545 569L419 530ZM293 -143H249V-45H349V-141L311 -228H262L293 -143Z"  />
<glyph unicode="&#x219;" horiz-adv-x="444" d="M317 383Q298 403 274 420T220 438Q184 438 167 424T150 387Q150 365 169 352T217 327T280 305T342 274T390 224T410 146Q410 105 396 76T356 28T295 -1T219 -10Q156 -10 107 17T22 95L105 157Q127 127 156 105T226 82Q259 82 279 98T300 141Q300 163 281 177T233 202T170 225T108 257T60 305T40 379Q40 415 54 443T92 491T147 520T212 530Q264 530 312 511T395 451L317 383ZM209 -143H165V-45H265V-141L227 -228H178L209 -143Z"  />
<glyph unicode="&#x21A;" horiz-adv-x="556" d="M536 723V607H347V0H209V607H20V723H536ZM270 -143H226V-45H326V-141L288 -228H239L270 -143Z"  />
<glyph unicode="&#x21B;" horiz-adv-x="333" d="M84 520V692H208V520H310V420H208V126Q208 105 219 98T253 90Q267 90 281 93T310 100V-2Q284 -5 261 -7T212 -10Q143 -10 114 22T84 110V420H12V520H84ZM177 -143H133V-45H233V-141L195 -228H146L177 -143Z"  />
<glyph unicode="&#x237;" horiz-adv-x="278" d="M3 -81Q13 -82 21 -83T44 -84Q66 -84 78 -71T90 -20V520H214V-40Q214 -120 180 -155T68 -190Q33 -190 3 -182V-81Z"  />
<glyph unicode="&#x2C6;" horiz-adv-x="278" d="M200 732L315 586H202L139 668L75 586H-37L76 732H200Z"  />
<glyph unicode="&#x2C7;" horiz-adv-x="278" d="M76 586L-37 732H75L139 650L202 732H315L200 586H76Z"  />
<glyph unicode="&#x2C9;" horiz-adv-x="278" d="M-34 618V692H312V618H-34Z"  />
<glyph unicode="&#x2D8;" horiz-adv-x="278" d="M308 732Q297 657 252 622T132 586Q61 586 18 623T-30 732H36Q38 711 48 698T72 676T104 665T140 662Q181 662 207 676T242 732H308Z"  />
<glyph unicode="&#x2D9;" horiz-adv-x="278" d="M199 712V596H79V712H199Z"  />
<glyph unicode="&#x2DA;" horiz-adv-x="278" d="M85 693Q85 670 100 655T139 639Q162 639 177 654T193 693Q193 716 178 731T139 747Q116 747 101 732T85 693ZM31 693Q31 715 39 735T62 769T96 792T139 801Q161 801 181 793T215 770T238 735T247 693Q247 670 239 651T216 617T181 594T139 585Q116 585 97 593T63 616T40 650T31 693Z"  />
<glyph unicode="&#x2DB;" horiz-adv-x="278" d="M258 9Q238 1 214 -10T168 -36T132 -71T117 -116Q117 -139 132 -151T169 -164Q193 -164 219 -150T265 -123L285 -159Q251 -182 214 -199T134 -216Q91 -216 60 -194T29 -127Q29 -89 52 -63T109 -20T184 7T258 21V9Z"  />
<glyph unicode="&#x2DC;" horiz-adv-x="278" d="M322 722Q317 699 309 677T288 638T257 611T211 600Q192 600 173 605T134 617T97 629T64 635Q44 635 34 623T18 594H-44Q-41 617 -33 639T-10 678T24 705T70 716Q90 716 110 710T148 698T182 685T210 679Q228 679 240 692T257 722H322Z"  />
<glyph unicode="&#x2DD;" horiz-adv-x="278" d="M186 732L54 586H-44L32 732H186ZM380 732L234 586H132L226 732H380Z"  />
<glyph unicode="&#x394;" horiz-adv-x="683" d="M334 588L154 98H524L334 588ZM9 0L281 712H391L675 0H9Z"  />
<glyph unicode="&#x3A9;" horiz-adv-x="757" d="M426 0V188Q465 196 495 215T545 263T575 326T586 400Q586 446 571 486T527 557T460 604T373 622Q325 622 286 605T219 557T175 485T159 398Q159 317 198 262T317 188V0H46V91H229V138Q183 153 149 179T92 240T58 317T46 406Q46 475 71 533T141 632T245 697T372 721Q440 721 499 699T603 635T672 537T698 409Q698 362 687 319T653 241T596 179T514 138V91H698V0H426Z"  />
<glyph unicode="&#x3BC;" horiz-adv-x="556" d="M492 520V0H378V56Q343 32 304 11T218 -10Q210 -10 203 -10T188 -8V-190H64V520H188V182Q188 129 204 110T252 90Q293 90 322 108T368 145V520H492Z"  />
<glyph unicode="&#x3C0;" horiz-adv-x="589" d="M566 13Q545 3 526 -2T483 -7Q450 -7 430 3T400 30T386 72T383 123V387H172V0H71V387H1V483H563V387H484V138Q484 127 484 117T489 98T500 84T522 79Q543 79 566 89V13Z"  />
<glyph unicode="&#x2013;" horiz-adv-x="500" d="M0 218V302H500V218H0Z"  />
<glyph unicode="&#x2014;" horiz-adv-x="1000" d="M0 218V302H1000V218H0Z"  />
<glyph unicode="&#x2018;" horiz-adv-x="278" d="M148 582H208V440H70V582L134 732H199L148 582Z"  />
<glyph unicode="&#x2019;" horiz-adv-x="278" d="M130 580H70V722H208V580L144 430H79L130 580Z"  />
<glyph unicode="&#x201A;" horiz-adv-x="278" d="M130 0H70V142H208V0L144 -150H79L130 0Z"  />
<glyph unicode="&#x201C;" horiz-adv-x="444" d="M120 582H180V440H42V582L106 732H171L120 582ZM343 582H403V440H265V582L329 732H394L343 582Z"  />
<glyph unicode="&#x201D;" horiz-adv-x="444" d="M324 580H264V722H402V580L338 430H273L324 580ZM101 580H41V722H179V580L115 430H50L101 580Z"  />
<glyph unicode="&#x201E;" horiz-adv-x="444" d="M324 0H264V142H402V0L338 -150H273L324 0ZM101 0H41V142H179V0L115 -150H50L101 0Z"  />
<glyph unicode="&#x2020;" horiz-adv-x="500" d="M432 464L274 494L300 333L268 -74H232L200 333L226 494L68 464V570L226 540L200 732H300L274 540L432 570V464Z"  />
<glyph unicode="&#x2021;" horiz-adv-x="500" d="M226 502L68 472V578L226 548L200 732H300L274 548L432 578V472L274 502L300 329L274 156L432 186V80L274 110L300 -74H200L226 110L68 80V186L226 156L200 329L226 502Z"  />
<glyph unicode="&#x2022;" horiz-adv-x="500" d="M69 361Q69 398 83 431T121 488T178 527T249 541Q286 541 319 527T377 489T416 431T430 361Q430 323 416 291T377 233T319 194T249 180Q211 180 179 194T122 233T83 290T69 361Z"  />
<glyph unicode="&#x2026;" horiz-adv-x="1000" d="M429 0V142H571V0H429ZM96 0V142H238V0H96ZM762 0V142H904V0H762Z"  />
<glyph unicode="&#x2030;" horiz-adv-x="1000" d="M838 214Q809 214 791 195T772 148Q772 120 790 101T838 82Q867 82 885 101T904 148Q904 176 886 195T838 214ZM477 214Q448 214 430 195T411 148Q411 120 429 101T477 82Q506 82 524 101T543 148Q543 176 525 195T477 214ZM162 640Q133 640 115 621T96 574Q96 546 114 527T162 508Q191 508 209 527T228 574Q228 602 210 621T162 640ZM484 732H561L153 -10H76L484 732ZM838 296Q869 296 896 285T943 253T974 205T986 148Q986 118 975 91T943 44T896 12T838 0Q807 0 780 11T733 43T702 91T690 148Q690 178 701 205T733 252T780 284T838 296ZM477 296Q508 296 535 285T582 253T613 205T625 148Q625 118 614 91T582 44T535 12T477 0Q446 0 419 11T372 43T341 91T329 148Q329 178 340 205T372 252T419 284T477 296ZM162 722Q193 722 220 711T267 679T298 631T310 574Q310 544 299 517T267 470T220 438T162 426Q131 426 104 437T57 469T26 517T14 574Q14 604 25 631T57 678T104 710T162 722Z"  />
<glyph unicode="&#x2039;" horiz-adv-x="333" d="M161 420H273L150 257L273 100H161L41 257L161 420Z"  />
<glyph unicode="&#x203A;" horiz-adv-x="333" d="M292 257L172 100H60L183 257L60 420H172L292 257Z"  />
<glyph unicode="&#x2044;" horiz-adv-x="167" d="M246 732H334L-78 -10H-167L246 732Z"  />
<glyph unicode="&#x20AC;" horiz-adv-x="611" d="M108 318Q107 329 107 339Q107 350 107 361V386H32L57 480H117Q140 602 212 667T398 732Q462 732 507 714T583 667L549 544Q513 582 478 601T393 620Q340 620 303 585T248 480H532L506 386H236V318H487L462 224H249Q263 170 298 136T404 102Q438 102 477 111T549 149V24Q517 7 479 -1T402 -10Q340 -10 293 7T211 56T155 130T121 224H32L58 318H108Z"  />
<glyph unicode="&#x2113;" horiz-adv-x="500" d="M440 48Q369 -14 285 -14Q215 -14 175 23T135 125V195L78 142H76L37 202L134 287V533Q134 575 146 609T180 668T231 707T295 721Q356 721 392 683T429 579Q429 503 384 428T246 269V143Q246 121 252 107T267 84T288 72T312 68Q353 68 400 106H402L440 48ZM338 572Q338 604 326 625T294 646Q274 646 260 623T246 554V364Q294 416 316 469T338 572Z"  />
<glyph unicode="&#x2122;" horiz-adv-x="1000" d="M363 638H242V310H142V638H22V722H363V638ZM687 464H689L781 722H930V310H830V591L826 593L726 310H649L549 592H545V310H445V722H594L687 464Z"  />
<glyph unicode="&#x2126;" horiz-adv-x="757" d="M426 0V188Q465 196 495 215T545 263T575 326T586 400Q586 446 571 486T527 557T460 604T373 622Q325 622 286 605T219 557T175 485T159 398Q159 317 198 262T317 188V0H46V91H229V138Q183 153 149 179T92 240T58 317T46 406Q46 475 71 533T141 632T245 697T372 721Q440 721 499 699T603 635T672 537T698 409Q698 362 687 319T653 241T596 179T514 138V91H698V0H426Z"  />
<glyph unicode="&#x212E;" horiz-adv-x="600" d="M157 259V78Q216 19 302 19Q365 19 411 47T495 139L530 118Q507 82 484 57T433 15T373 -9T302 -17Q243 -17 196 4T114 63T62 151T44 259Q44 317 62 367T114 455T195 513T302 535Q360 535 407 515T489 458T542 371T561 259H157ZM448 295V440Q385 500 301 500Q217 500 157 440V295H448Z"  />
<glyph unicode="&#x2202;" horiz-adv-x="548" d="M396 287Q370 318 340 336T267 354Q235 354 212 342T173 310T150 264T142 209Q142 182 149 157T170 112T206 80T259 68Q295 68 321 87T365 135T390 199T397 264L396 287ZM507 359Q507 296 497 230T459 111T382 23T255 -12Q206 -12 166 5T98 53T55 125T39 215Q39 262 54 302T97 371T164 417T251 434Q294 434 330 419T398 376L399 406Q400 443 393 483T367 558T318 615T242 638Q208 638 179 624T124 590L67 656Q108 688 146 704T238 721Q315 721 366 689T449 605T494 489T507 359Z"  />
<glyph unicode="&#x2206;" horiz-adv-x="683" d="M334 588L154 98H524L334 588ZM9 0L281 712H391L675 0H9Z"  />
<glyph unicode="&#x220F;" horiz-adv-x="737" d="M566 -214V688H170V-214H63V786H674V-214H566Z"  />
<glyph unicode="&#x2211;" horiz-adv-x="643" d="M25 -214V-128L331 291L38 702V786H605V688H181L460 292L163 -117H618V-214H25Z"  />
<glyph unicode="&#x2212;" horiz-adv-x="600" d="M40 206V314H560V206H40Z"  />
<glyph unicode="&#x2215;" horiz-adv-x="167" d="M246 732H334L-78 -10H-167L246 732Z"  />
<glyph unicode="&#x2219;" horiz-adv-x="305" d="M228 260Q228 228 205 206T150 184Q118 184 97 206T76 260Q76 291 97 313T150 336Q182 336 205 314T228 260Z"  />
<glyph unicode="&#x221A;" horiz-adv-x="531" d="M332 -214H231L78 105L28 82L-12 167L131 232L264 -49L434 786H543L332 -214Z"  />
<glyph unicode="&#x221E;" horiz-adv-x="806" d="M348 258Q335 271 319 286T285 314T247 335T208 344Q172 344 151 319T130 259Q130 222 151 199T211 176Q230 176 249 183T286 203T320 229T348 258ZM675 259Q675 296 654 320T595 345Q575 345 556 337T520 315T487 286T458 257Q471 243 487 229T520 202T557 183T598 175Q635 175 655 199T675 259ZM761 262Q761 224 750 192T718 135T666 97T596 83Q565 83 539 92T489 118T444 154T403 195Q382 174 362 154T319 119T270 95T211 85Q173 85 142 98T89 135T56 190T44 260Q44 297 55 329T88 385T139 422T208 436Q240 436 267 426T318 400T362 362T403 318Q422 340 443 361T488 399T539 426T597 437Q635 437 665 424T717 387T749 331T761 262Z"  />
<glyph unicode="&#x222B;" horiz-adv-x="600" d="M474 713Q474 692 459 678T423 664Q401 664 391 674T376 696T366 719T352 729Q339 729 336 718T333 697Q333 664 334 631T335 564L336 40Q336 1 335 -43T320 -126T278 -189T195 -214Q179 -214 161 -210T128 -197T103 -175T93 -142Q93 -121 106 -107T141 -93Q162 -93 172 -103T188 -126T198 -149T211 -160Q220 -160 224 -155T229 -141T231 -125T230 -111Q230 -87 229 -63T227 -14V521Q227 561 227 607T240 693T282 759T369 786Q385 786 403 782T437 769T463 746T474 713Z"  />
<glyph unicode="&#x2248;" horiz-adv-x="600" d="M566 241Q563 209 554 179T527 126T484 88T421 74Q391 74 355 85T284 108T218 132T164 143Q135 143 119 122T99 74H31Q34 105 43 135T70 189T112 227T174 242Q206 242 239 232T306 209T372 186T435 175Q464 175 479 195T499 241H566ZM568 444Q565 412 556 382T529 329T486 291T423 277Q393 277 357 288T286 311T220 335T166 346Q137 346 122 325T101 277H33Q36 308 45 338T71 392T114 430T176 445Q207 445 241 435T308 412T375 389T437 378Q466 378 480 398T500 444H568Z"  />
<glyph unicode="&#x2260;" horiz-adv-x="600" d="M274 99L196 -53L107 -7L162 99H40V201H213L274 318H40V419H325L402 571L491 526L437 419H559V318H385L325 201H559V99H274Z"  />
<glyph unicode="&#x2264;" horiz-adv-x="600" d="M40 -35V66H559V-35H40ZM40 272V375L559 554V447L178 324L559 207V100L40 272Z"  />
<glyph unicode="&#x2265;" horiz-adv-x="600" d="M40 -35V66H559V-35H40ZM40 100V207L420 324L40 447V554L559 375V272L40 100Z"  />
<glyph unicode="&#x25CA;" horiz-adv-x="593" d="M295 646L176 356L295 65L417 356L295 646ZM343 -35H248L72 356L248 747H343L520 356L343 -35Z"  />
<glyph unicode="&#xE301;" horiz-adv-x="278" d="M306 908L160 762H58L152 908H306Z"  />
<glyph unicode="&#xE302;" horiz-adv-x="278" d="M200 908L315 762H202L139 844L75 762H-37L76 908H200Z"  />
<glyph unicode="&#xE303;" horiz-adv-x="278" d="M76 762L-37 908H75L139 826L202 908H315L200 762H76Z"  />
<glyph unicode="&#xE304;" horiz-adv-x="278" d="M322 898Q317 875 309 853T288 814T257 787T211 776Q192 776 173 781T134 793T97 805T64 811Q44 811 34 799T18 770H-44Q-41 793 -33 815T-10 854T24 881T70 892Q90 892 110 886T148 874T182 861T210 855Q228 855 240 868T257 898H322Z"  />
<glyph unicode="&#xE306;" horiz-adv-x="278" d="M-34 794V868H312V794H-34Z"  />
<glyph unicode="&#xE307;" horiz-adv-x="278" d="M308 908Q297 833 252 798T132 762Q61 762 18 799T-30 908H36Q38 887 48 874T72 852T104 841T140 838Q181 838 207 852T242 908H308Z"  />
<glyph unicode="&#xE308;" horiz-adv-x="278" d="M85 869Q85 846 100 831T139 815Q162 815 177 830T193 869Q193 892 178 907T139 923Q116 923 101 908T85 869ZM31 869Q31 891 39 911T62 945T96 968T139 977Q161 977 181 969T215 946T238 911T247 869Q247 846 239 827T216 793T181 770T139 761Q116 761 97 769T63 792T40 826T31 869Z"  />
<glyph unicode="&#xE309;" horiz-adv-x="278" d="M186 908L54 762H-44L32 908H186ZM380 908L234 762H132L226 908H380Z"  />
<glyph unicode="&#xE30A;" horiz-adv-x="278" d="M199 888V772H79V888H199Z"  />
<glyph unicode="&#xE30B;" horiz-adv-x="278" d="M136 624H92V722H192V626L154 539H105L136 624Z"  />
<glyph unicode="&#xE30C;" horiz-adv-x="305" d="M132 -143H88V-45H188V-141L150 -228H101L132 -143Z"  />
<glyph unicode="&#xE30D;" horiz-adv-x="278" d="M144 657H181V572H94V655L133 732H176L144 657Z"  />
<glyph unicode="&#xFB01;" horiz-adv-x="556" d="M368 616V732H492V616H368ZM492 0H368V520H492V0ZM208 420V0H84V420H12V520H83V584Q83 626 91 654T118 700T164 724T230 732H312V632H278Q239 632 224 619T208 576V520H313V420H208Z"  />
<glyph unicode="&#xFB02;" horiz-adv-x="556" d="M368 0V722H492V0H368ZM208 420V0H84V420H12V520H83V584Q83 626 91 654T118 700T164 724T230 732H312V632H278Q239 632 224 619T208 576V520H313V420H208Z"  />

</font>
</defs>
</svg>
