<?xml  version="1.0" encoding="UTF-8"?>
<!DOCTYPE svg PUBLIC "-//W3C//DTD SVG 1.0//EN" "http://www.w3.org/TR/2001/REC-SVG-20010904/DTD/svg10.dtd" >
<svg xmlns="http://www.w3.org/2000/svg" >
<metadata>
<version>1.0</version>
<id><![CDATA[Trade Gothic W01 Light]]></id>
<vendor>Monotype Imaging Inc.</vendor>
<credits>
<name>Fonts.com WebFonts</name>
<URL>http://webfonts.fonts.com</URL>
<role>Home of the Web fonts</role>
</credits>
<license>
<URL>http://webfonts.fonts.com/Legal</URL>
</license>
<copyright><![CDATA[Part of the digitally encoded machine readable outline data for producing the Typefaces provided is copyrighted © 2002 - 2007 Linotype GmbH, www.linotype.com. All rights reserved. This software is the property of Linotype GmbH, and may not be reproduced, used, displayed, modified, disclosed or transferred without the express written approval of Linotype GmbH.  The digitally encoded machine readable software for producing the Typefaces licensed to you is copyrighted (c) 1989, 1992 Adobe Systems. All Rights Reserved. This software is the property of Adobe Systems Incorporated and its licensors, and may not be reproduced, used, displayed, modified, disclosed or transferred without the express written approval of Adobe. Trade Gothic is a trademark of Linotype GmbH and may be registered in certain jurisdictions. This typeface is original artwork of Jackson Burke. The design may be protected in certain jurisdictions.]]></copyright>
<trademark><![CDATA[Trade Gothic is a trademark of Linotype GmbH and may be registered in certain jurisdictions.]]></trademark>
<licensee>
<name></name>
</licensee>
</metadata>
<defs >
<font horiz-adv-x="506" id="d918b947-5fcb-42e2-8286-a98a801876de">
<font-face font-family="" panose-1="2 11 4 3 4 3 3 2 0 4" ascent="949" descent="-212" units-per-em="1000" alphabetic="0">
</font-face>
<missing-glyph horiz-adv-x="0" />

<glyph unicode="&#xA;" />
<glyph unicode="&#xD;" horiz-adv-x="278" />
<glyph unicode=" " horiz-adv-x="278" />
<glyph unicode="!" horiz-adv-x="222" d="M68 0V90H154V0H68ZM154 722L136 222H86L68 722H154Z"  />
<glyph unicode="&quot;" horiz-adv-x="333" d="M197 722H247V496H197V722ZM86 722H136V496H86V722Z"  />
<glyph unicode="#" horiz-adv-x="556" d="M221 440L199 283H346L369 440H221ZM502 235H389L356 0H307L340 235H192L159 0H110L143 235H25V283H149L172 440H54V488H178L211 722H261L228 488H375L408 722H458L425 488H531V440H418L396 283H502V235Z"  />
<glyph unicode="$" horiz-adv-x="556" d="M255 674Q226 674 200 665T153 639T121 598T109 543Q109 510 121 487T154 448T201 422T255 405V674ZM303 48Q334 48 363 59T414 89T451 134T465 191Q465 224 450 246T411 285T359 312T303 332V48ZM255 792H303V722Q337 720 367 709T422 682T465 645T492 604Q491 604 485 599T472 588T458 577T449 570Q426 613 390 640T303 673V391Q341 380 379 365T449 327T499 270T519 189Q519 143 501 108T453 49T384 13T303 0V-119H255V0Q182 3 122 40T29 146L76 179Q88 152 106 128T147 87T197 59T255 48V345Q219 355 183 370T119 407T73 462T55 538Q55 583 70 617T113 675T176 709T255 722V792Z"  />
<glyph unicode="%" horiz-adv-x="889" d="M259 -10H207L631 732H684L259 -10ZM246 674Q222 674 201 665T164 640T139 603T130 558Q130 534 139 513T163 476T200 451T246 442Q270 442 291 451T328 476T353 513T362 558Q362 582 353 603T329 640T292 665T246 674ZM643 280Q619 280 598 271T561 246T536 209T527 164Q527 140 536 119T560 82T597 57T643 48Q667 48 688 57T725 82T750 119T759 164Q759 188 750 209T726 246T689 271T643 280ZM643 328Q677 328 706 315T758 280T794 228T807 164Q807 130 794 101T759 49T707 13T643 0Q609 0 580 13T528 48T492 100T479 164Q479 198 492 227T527 279T579 315T643 328ZM246 722Q280 722 309 709T361 674T397 622T410 558Q410 524 397 495T362 443T310 407T246 394Q212 394 183 407T131 442T95 494T82 558Q82 592 95 621T130 673T182 709T246 722Z"  />
<glyph unicode="&amp;" horiz-adv-x="667" d="M218 574Q218 539 230 505T262 442Q312 469 345 511T378 598Q378 632 359 655T297 678Q262 678 240 654T218 574ZM109 172Q109 140 122 116T157 76T206 52T263 44Q295 44 320 51T366 69T400 92T424 114Q406 131 381 162T329 229T279 300T240 360Q210 343 186 326T145 286T118 237T109 172ZM601 328Q575 210 510 115Q535 89 565 71T634 50V-10Q586 -8 544 13T466 69Q424 31 371 11T260 -10Q218 -10 179 1T109 36T61 94T43 176Q43 216 52 246T81 304T132 357T209 413Q184 450 168 493T152 581Q152 653 191 692T300 732Q331 732 357 723T402 696T433 653T444 594Q444 557 431 528T397 474T350 428T296 387Q338 327 377 267T464 157Q519 241 539 340L601 328Z"  />
<glyph unicode="&apos;" horiz-adv-x="222" d="M86 722H136V496H86V722Z"  />
<glyph unicode="(" horiz-adv-x="333" d="M278 732Q200 639 164 532T128 325Q128 226 164 119T278 -82H206Q137 11 103 118T68 325Q68 424 102 531T206 732H278Z"  />
<glyph unicode=")" horiz-adv-x="333" d="M55 -82Q133 11 169 118T205 325Q205 424 169 531T55 732H127Q196 639 230 532T265 325Q265 226 231 119T127 -82H55Z"  />
<glyph unicode="*" horiz-adv-x="500" d="M267 581L397 634L413 584L273 550L364 447L320 412L252 536L182 412L137 442L230 550L87 580L105 632L237 581L224 722H278L267 581Z"  />
<glyph unicode="+" horiz-adv-x="600" d="M273 520H327V287H560V233H327V0H273V233H40V287H273V520Z"  />
<glyph unicode="&#x2c;" horiz-adv-x="278" d="M182 90V0L119 -150H80L138 0H96V90H182Z"  />
<glyph unicode="-" horiz-adv-x="333" d="M42 233V287H291V233H42Z"  />
<glyph unicode="." horiz-adv-x="278" d="M96 0V90H182V0H96Z"  />
<glyph unicode="/" horiz-adv-x="278" d="M47 -10H-12L235 732H290L47 -10Z"  />
<glyph unicode="0" horiz-adv-x="556" d="M278 678Q229 678 195 655T138 590T105 490T94 361Q94 290 104 232T137 132T194 67T278 44Q327 44 361 67T418 132T451 232T462 361Q462 431 452 489T419 590T362 655T278 678ZM278 732Q344 732 391 703T469 623T513 505T528 361Q528 284 514 217T469 99T392 20T278 -10Q212 -10 165 19T87 99T43 216T28 361Q28 437 42 505T87 623T164 702T278 732Z"  />
<glyph unicode="1" horiz-adv-x="556" d="M134 0V54H258V660L120 640V679L282 732H324V54H444V0H134Z"  />
<glyph unicode="2" horiz-adv-x="556" d="M52 526Q70 624 132 678T287 732Q386 732 442 678T499 530Q499 495 491 466T463 408T409 348T322 280Q291 258 254 230T184 171T128 110T104 54H500V0H44V42Q44 61 53 86T90 144T165 222T291 324Q343 363 372 389T417 437T435 479T439 528Q439 561 430 588T401 636T351 667T280 678Q215 678 172 637T110 515L52 526Z"  />
<glyph unicode="3" horiz-adv-x="556" d="M67 164Q83 129 102 106T144 70T196 50T260 44Q351 44 394 84T438 202Q438 280 386 318T230 356H164V410H218Q316 410 366 444T416 550Q416 618 374 648T259 678Q208 678 170 655T93 584L46 618Q97 680 150 706T264 732Q299 732 337 724T408 695T461 641T482 556Q482 493 456 454T366 386Q396 375 421 359T465 321T493 270T504 204Q504 147 486 107T434 40T356 2T257 -10Q169 -10 107 25T14 134L67 164Z"  />
<glyph unicode="4" horiz-adv-x="556" d="M80 236H353V660H346L80 236ZM14 233L331 722H419V235H528V182H419V0H353V182H14V233Z"  />
<glyph unicode="5" horiz-adv-x="556" d="M72 336L104 722H463V668H153L133 417Q200 481 295 481Q347 481 388 462T457 409T501 332T516 239Q516 185 500 139T452 60T373 9T264 -10Q196 -10 137 24T46 125L100 160Q130 98 172 71T272 44Q320 44 355 60T412 103T445 164T456 234Q456 277 445 312T412 373T358 413T286 427Q263 427 239 420T192 401T152 370T124 327L72 336Z"  />
<glyph unicode="6" horiz-adv-x="556" d="M462 225Q462 262 451 293T417 348T361 385T285 398Q245 398 212 380T155 337T118 290T104 257Q104 208 117 169T154 102T211 59T286 44Q371 44 416 92T462 225ZM465 623Q437 655 401 666T323 678Q261 678 219 647T151 569T114 464T102 356Q138 397 188 424T296 452Q351 452 394 434T467 383T512 308T528 214Q528 162 509 121T456 50T378 6T284 -10Q209 -10 161 20T85 100T47 211T36 335Q36 403 52 473T103 601T192 695T324 732Q372 732 414 717T495 672L465 623Z"  />
<glyph unicode="7" horiz-adv-x="556" d="M55 722H501V683L194 0H123L431 668H55V722Z"  />
<glyph unicode="8" horiz-adv-x="556" d="M118 552Q118 523 130 500T164 459T215 428T278 406Q312 415 341 428T391 459T425 500T438 552Q438 616 394 647T278 678Q207 678 163 647T118 552ZM90 186Q90 149 104 123T144 79T204 53T278 44Q318 44 352 52T411 78T451 122T466 186Q466 215 453 238T416 280T357 317T278 352Q234 334 199 317T140 281T103 238T90 186ZM278 732Q381 732 442 686T504 549Q504 489 469 447T366 380Q459 338 495 289T532 186Q532 132 514 95T462 34T381 1T278 -10Q222 -10 175 0T95 34T43 94T24 186Q24 240 60 289T190 380Q122 404 87 446T52 549Q52 640 113 686T278 732Z"  />
<glyph unicode="9" horiz-adv-x="556" d="M84 497Q84 458 95 425T129 368T185 330T261 316Q301 316 334 334T391 377T428 425T442 459Q442 562 393 620T260 678Q175 678 130 630T84 497ZM81 101Q109 75 140 60T220 44Q283 44 326 71T395 144T432 245T444 360Q408 318 358 290T250 262Q195 262 152 281T79 333T34 406T18 492Q18 549 37 593T90 669T168 716T262 732Q337 732 385 702T461 622T499 511T510 387Q510 319 497 249T452 121T368 27T238 -10Q178 -10 134 5T51 50L81 101Z"  />
<glyph unicode=":" horiz-adv-x="278" d="M96 304V394H182V304H96ZM96 0V90H182V0H96Z"  />
<glyph unicode=";" horiz-adv-x="278" d="M96 304V394H182V304H96ZM182 90V0L119 -150H80L138 0H96V90H182Z"  />
<glyph unicode="&lt;" horiz-adv-x="600" d="M560 -6L40 232V288L560 526V468L108 260L560 52V-6Z"  />
<glyph unicode="=" horiz-adv-x="600" d="M560 133H40V187H560V133ZM560 333H40V387H560V333Z"  />
<glyph unicode="&gt;" horiz-adv-x="600" d="M40 52L492 260L40 468V526L560 288V232L40 -6V52Z"  />
<glyph unicode="?" horiz-adv-x="389" d="M116 0V90H202V0H116ZM29 609Q49 665 89 698T194 732Q226 732 256 722T309 691T345 640T359 569Q359 536 347 510T315 460T274 415T233 372T202 324T189 268V220H135V292Q135 318 146 341T176 385T214 429T252 474T281 524T293 582Q293 629 264 653T193 678Q168 678 150 669T118 647T95 616T79 584L29 609Z"  />
<glyph unicode="@" horiz-adv-x="800" d="M338 189Q374 189 405 214T459 277T495 356T508 433Q508 451 501 468T483 499T457 521T427 530Q388 530 356 507T300 447T263 369T250 291Q250 245 275 217T338 189ZM566 563H620L522 268Q517 252 513 238T509 212Q509 183 535 183Q565 183 595 205T648 262T685 340T700 426Q700 486 677 534T614 616T524 669T417 688Q349 688 291 662T191 590T124 484T100 357Q100 291 125 232T193 129T295 60T419 34Q457 34 494 43T566 71T631 114T684 172H736Q713 130 679 96T603 39T514 3T419 -10Q340 -10 273 19T155 100T77 219T48 364Q48 440 77 507T157 624T273 703T415 732Q485 732 546 709T654 645T726 547T752 423Q752 365 731 313T678 222T605 160T525 137Q499 137 479 154T457 207L455 205Q431 180 397 159T324 137Q292 137 267 149T225 181T198 228T188 286Q188 339 205 392T255 487T332 555T431 582Q466 582 494 563T540 497L566 563Z"  />
<glyph unicode="A" horiz-adv-x="611" d="M427 290L307 668H305L186 290H427ZM256 722H357L585 0H515L442 236H169L95 0H25L256 722Z"  />
<glyph unicode="B" horiz-adv-x="667" d="M166 402H323Q355 402 385 408T439 429T477 470T492 536Q492 576 480 601T443 642T382 662T296 668H166V402ZM166 54H337Q433 54 477 89T521 202Q521 233 510 260T473 306T409 337T316 348H166V54ZM100 722H302Q436 722 497 679T558 541Q558 482 534 446T456 385Q516 359 551 313T587 198Q587 142 569 104T517 43T436 10T330 0H100V722Z"  />
<glyph unicode="C" horiz-adv-x="611" d="M496 510Q473 590 430 634T320 678Q266 678 228 654T164 586T126 485T114 361Q114 295 126 237T164 136T230 69T327 44Q370 44 400 58T452 97T486 153T509 220L571 209Q561 161 543 121T495 51T425 6T326 -10Q260 -10 209 16T122 92T67 209T48 361Q48 445 67 513T121 630T208 705T326 732Q374 732 412 716T478 672T526 606T557 523L496 510Z"  />
<glyph unicode="D" horiz-adv-x="667" d="M166 54H306Q427 54 489 134T552 361Q552 508 490 588T306 668H166V54ZM100 722H304Q388 722 447 693T545 614T600 499T618 361Q618 289 601 224T545 109T448 30T304 0H100V722Z"  />
<glyph unicode="E" horiz-adv-x="556" d="M100 0V722H512V668H166V402H415V348H166V54H531V0H100Z"  />
<glyph unicode="F" horiz-adv-x="556" d="M100 0V722H524V668H166V402H427V348H166V0H100Z"  />
<glyph unicode="G" horiz-adv-x="667" d="M510 512Q502 546 487 576T449 629T395 665T324 678Q276 678 238 656T172 593T129 493T114 361Q114 303 124 246T160 144T230 72T345 44Q383 44 414 57T468 95T502 150T514 218V284H332V338H580V0H523V71H521Q489 29 445 10T325 -10Q265 -10 214 14T126 86T69 202T48 361Q48 451 70 520T130 636T219 707T328 732Q378 732 419 717T491 674T542 608T572 523L510 512Z"  />
<glyph unicode="H" horiz-adv-x="722" d="M100 722H166V402H556V722H622V0H556V348H166V0H100V722Z"  />
<glyph unicode="I" horiz-adv-x="278" d="M106 722H172V0H106V722Z"  />
<glyph unicode="J" horiz-adv-x="444" d="M53 117Q64 98 74 85T97 62T126 49T167 44Q215 44 239 74T264 172V722H330V152Q330 71 285 31T163 -10Q130 -10 106 -4T63 14T29 44T0 86L53 117Z"  />
<glyph unicode="K" horiz-adv-x="611" d="M100 722H166V330L496 722H577L344 446L605 0H531L302 398L166 241V0H100V722Z"  />
<glyph unicode="L" horiz-adv-x="500" d="M100 722H166V54H488V0H100V722Z"  />
<glyph unicode="M" horiz-adv-x="833" d="M100 0V722H216L415 110H417L617 722H733V0H667V668H665L448 0H385L168 668H166V0H100Z"  />
<glyph unicode="N" horiz-adv-x="722" d="M100 722H211L554 120H556V722H622V0H554L168 668H166V0H100V722Z"  />
<glyph unicode="O" horiz-adv-x="667" d="M333 44Q383 44 423 65T492 126T536 226T552 361Q552 437 537 496T493 595T424 657T333 678Q283 678 243 657T174 596T130 496T114 361Q114 285 129 226T173 127T242 65T333 44ZM333 732Q401 732 454 704T543 627T599 509T618 361Q618 281 599 213T544 96T454 18T333 -10Q265 -10 212 18T123 95T67 213T48 361Q48 441 67 509T122 626T212 704T333 732Z"  />
<glyph unicode="P" horiz-adv-x="611" d="M166 374H318Q412 374 454 411T496 521Q496 593 454 630T318 668H166V374ZM100 0V722H318Q382 722 428 708T504 667T548 604T562 521Q562 476 548 439T505 375T429 335T318 320H166V0H100Z"  />
<glyph unicode="Q" horiz-adv-x="667" d="M352 222Q438 207 492 126Q552 209 552 361Q552 437 537 496T493 595T424 657T333 678Q283 678 243 657T174 596T130 496T114 361Q114 285 129 226T173 127T242 65T333 44Q399 44 447 80Q435 100 425 113T403 136T380 150T352 157V222ZM644 -60Q596 -60 550 -40T475 31Q414 -10 333 -10Q265 -10 212 18T123 95T67 213T48 361Q48 441 67 509T122 626T212 704T333 732Q401 732 454 704T543 627T599 509T618 361Q618 269 593 194T520 69Q532 49 544 36T570 14T602 3T644 0V-60Z"  />
<glyph unicode="R" horiz-adv-x="667" d="M166 384H344Q416 384 458 421T500 526Q500 593 461 630T344 668H166V384ZM593 0H521L353 330H166V0H100V722H344Q451 722 508 669T566 526Q566 454 530 408T416 342L593 0Z"  />
<glyph unicode="S" horiz-adv-x="556" d="M93 202Q114 119 163 82T299 44Q367 44 405 83T443 188Q443 236 414 265T342 313T248 349T154 389T81 449T52 545Q52 585 65 619T105 679T171 718T260 732Q346 732 406 688T491 559L434 542Q414 602 372 640T260 678Q197 678 158 644T118 545Q118 527 122 511T142 479T186 447T265 411Q341 382 388 358T463 307T499 250T509 181Q509 135 491 100T443 40T373 3T289 -10Q185 -10 124 36T32 183L93 202Z"  />
<glyph unicode="T" horiz-adv-x="556" d="M31 722H525V668H311V0H245V668H31V722Z"  />
<glyph unicode="U" horiz-adv-x="722" d="M166 722V230Q166 178 178 143T215 85T276 54T361 44Q409 44 445 53T506 85T543 142T556 230V722H622V236Q622 -10 361 -10Q100 -10 100 236V722H166Z"  />
<glyph unicode="V" horiz-adv-x="556" d="M8 722H78L274 94H276L478 722H548L308 0H242L8 722Z"  />
<glyph unicode="W" horiz-adv-x="833" d="M16 722H83L237 120H239L383 722H449L590 120H592L749 722H816L623 0H557L416 594H414L273 0H207L16 722Z"  />
<glyph unicode="X" horiz-adv-x="556" d="M25 722H103L276 434L445 722H523L315 378L544 0H466L276 316L90 0H12L237 378L25 722Z"  />
<glyph unicode="Y" horiz-adv-x="556" d="M241 306L20 722H94L272 365L462 722H536L307 306V0H241V306Z"  />
<glyph unicode="Z" horiz-adv-x="556" d="M77 722H505V666L128 54H510V0H46V54L423 668H77V722Z"  />
<glyph unicode="[" horiz-adv-x="333" d="M274 722V686H148V-36H274V-72H88V722H274Z"  />
<glyph unicode="\" horiz-adv-x="278" d="M-12 732H43L290 -10H231L-12 732Z"  />
<glyph unicode="]" horiz-adv-x="333" d="M59 -72V-36H185V686H59V722H245V-72H59Z"  />
<glyph unicode="^" horiz-adv-x="600" d="M326 722L544 296H478L298 650L122 296H56L273 722H326Z"  />
<glyph unicode="_" horiz-adv-x="500" d="M0 -125V-75H500V-125H0Z"  />
<glyph unicode="`" horiz-adv-x="222" d="M63 716L174 578H123L-14 716H63Z"  />
<glyph unicode="a" horiz-adv-x="500" d="M356 294Q267 274 214 255T132 216T95 174T86 127Q86 84 112 61T179 38Q221 38 269 61T356 124V294ZM366 0L358 63Q335 45 314 31T270 8T224 -5T169 -10Q108 -10 67 25T26 126Q26 179 47 213T111 269T215 308T359 342V378Q359 430 333 456T240 482Q193 482 156 458T89 388L49 412Q83 475 131 502T242 530Q331 530 373 492T416 367V95Q416 75 417 51T424 0H366Z"  />
<glyph unicode="b" horiz-adv-x="556" d="M152 133Q167 113 182 96T217 65T258 45T308 38Q347 38 375 54T423 100T451 168T460 252Q460 303 450 345T420 417T370 465T299 482Q277 482 254 473T211 449T175 418T152 389V133ZM92 722H152V452Q171 472 189 487T226 511T267 525T315 530Q360 530 398 510T463 454T505 369T520 263Q520 129 467 60T311 -10Q257 -10 215 8T144 68L134 0H92V722Z"  />
<glyph unicode="c" horiz-adv-x="500" d="M395 374Q375 419 344 450T260 482Q223 482 193 470T142 432T108 363T96 260Q96 210 107 169T139 99T190 54T260 38Q288 38 310 45T350 67T384 101T416 146L464 123Q447 95 427 71T383 29T328 1T260 -10Q205 -10 164 10T94 66T51 151T36 260Q36 327 52 377T97 462T168 513T260 530Q334 530 380 492T450 389L395 374Z"  />
<glyph unicode="d" horiz-adv-x="556" d="M404 389Q396 402 381 418T345 448T302 472T257 482Q216 482 186 465T136 418T106 345T96 252Q96 207 105 168T133 100T180 55T248 38Q303 38 339 65T404 133V389ZM464 0H422L412 68Q383 27 341 9T245 -10Q143 -10 90 59T36 263Q36 320 51 369T93 454T158 510T241 530Q293 530 329 511T404 452V722H464V0Z"  />
<glyph unicode="e" horiz-adv-x="500" d="M398 306Q389 387 353 434T248 482Q208 482 180 465T133 421T105 363T96 306H398ZM96 258Q96 214 105 174T135 104T187 56T263 38Q288 38 307 43T344 60T378 92T415 143L464 117Q443 82 422 58T377 19T324 -3T258 -10Q156 -10 96 56T36 260Q36 320 51 370T93 455T160 510T250 530Q303 530 342 510T407 454T445 368T458 258H96Z"  />
<glyph unicode="f" horiz-adv-x="278" d="M156 472V0H96V472H10V520H96V594Q96 662 125 697T221 732Q238 732 253 730T286 724V674Q272 679 258 681T227 684Q192 684 174 665T156 601V520H262V472H156Z"  />
<glyph unicode="g" horiz-adv-x="500" d="M234 38Q190 38 161 31T113 11T88 -17T80 -50Q80 -88 118 -112T238 -136Q336 -136 380 -112T424 -47Q424 -31 416 -16T387 12T329 31T234 38ZM105 349Q105 315 116 291T145 250T188 227T240 219Q303 219 339 250T375 349Q375 418 339 450T240 482Q177 482 141 446T105 349ZM481 486Q461 486 438 482T398 462Q415 441 425 416T435 353Q435 305 419 271T376 214T312 182T234 171Q209 171 190 175T150 187Q125 178 114 165T102 137Q102 126 107 118T130 104T178 95T263 92Q380 92 432 57T484 -43Q484 -72 472 -97T433 -142T360 -172T247 -184Q180 -184 136 -174T67 -146T31 -107T20 -61Q20 -27 38 1T111 49V51Q82 57 62 71T42 119Q42 135 49 150T67 176T92 196T120 207Q85 231 65 266T45 343Q45 429 100 479T251 530Q289 530 318 521T372 494Q418 540 481 540V486Z"  />
<glyph unicode="h" horiz-adv-x="556" d="M82 0V722H142V438Q184 482 223 506T320 530Q401 530 437 485T474 355V0H414V349Q414 414 391 448T308 482Q284 482 265 475T226 455T187 424T142 383V0H82Z"  />
<glyph unicode="i" horiz-adv-x="222" d="M81 634V722H141V634H81ZM141 0H81V520H141V0Z"  />
<glyph unicode="j" horiz-adv-x="222" d="M81 634V722H141V634H81ZM-20 -129Q-9 -132 1 -134T22 -136Q52 -136 66 -124T81 -82V520H141V-83Q141 -140 113 -162T34 -184Q20 -184 6 -183T-20 -178V-129Z"  />
<glyph unicode="k" horiz-adv-x="500" d="M82 0V722H142V244L383 520H452L283 326L478 0H411L245 284L142 168V0H82Z"  />
<glyph unicode="l" horiz-adv-x="222" d="M81 722H141V0H81V722Z"  />
<glyph unicode="m" horiz-adv-x="833" d="M82 0V520H142V441Q162 462 180 478T218 506T261 524T315 530Q359 530 394 505T441 435Q476 476 516 503T613 530Q682 530 716 494T750 389V0H690V395Q690 439 667 460T600 482Q583 482 561 474T518 451T477 420T446 383V0H386V395Q386 439 363 460T296 482Q279 482 257 474T214 451T173 420T142 383V0H82Z"  />
<glyph unicode="n" horiz-adv-x="556" d="M82 0V520H142V438Q184 483 223 506T320 530Q401 530 437 485T474 355V0H414V349Q414 415 391 448T308 482Q284 482 265 475T226 455T187 424T142 383V0H82Z"  />
<glyph unicode="o" horiz-adv-x="500" d="M250 482Q169 482 133 424T96 260Q96 154 132 96T250 38Q331 38 367 96T404 260Q404 366 368 424T250 482ZM250 530Q311 530 352 508T418 448T453 362T464 260Q464 207 454 159T418 73T352 13T250 -10Q189 -10 148 12T82 72T47 158T36 260Q36 313 46 361T82 447T148 507T250 530Z"  />
<glyph unicode="p" horiz-adv-x="556" d="M152 131Q159 118 175 102T211 72T254 48T299 38Q380 38 420 98T460 268Q460 308 451 346T423 415T376 463T308 482Q283 482 263 475T225 455T189 425T152 387V131ZM92 520H152V440H154Q185 485 222 507T311 530Q362 530 401 508T466 447T506 360T520 257Q520 189 505 139T463 56T398 7T315 -10Q289 -10 268 -6T227 8T189 33T152 68V-184H92V520Z"  />
<glyph unicode="q" horiz-adv-x="556" d="M404 384Q389 404 374 421T339 451T298 471T248 478Q209 478 181 462T133 417T105 350T96 266Q96 216 106 174T136 102T186 55T257 38Q279 38 302 47T345 71T380 101T404 130V384ZM464 -184H404V67Q366 27 330 9T241 -10Q196 -10 158 10T93 65T51 149T36 255Q36 388 89 457T245 526Q299 526 339 505T412 449L422 516H464V-184Z"  />
<glyph unicode="r" horiz-adv-x="333" d="M78 0V520H138V421H140Q161 469 200 499T290 530H317V472H290Q265 472 239 458T190 420T153 364T138 294V0H78Z"  />
<glyph unicode="s" horiz-adv-x="444" d="M69 126Q87 100 105 83T142 56T183 42T230 38Q255 38 276 45T312 66T337 98T346 137Q346 175 324 195T267 228T193 250T119 274T63 316T40 388Q40 425 53 451T89 495T142 521T205 530Q271 530 313 506T384 436L338 404Q312 440 281 461T203 482Q159 482 130 461T100 391Q100 359 122 342T179 314T253 292T327 265T383 217T406 137Q406 102 391 75T351 29T294 0T226 -10Q166 -10 114 15T25 95L69 126Z"  />
<glyph unicode="t" horiz-adv-x="278" d="M88 520V690H148V520H262V472H148V91Q148 38 201 38Q216 38 232 41T262 49V-1Q247 -3 232 -6T201 -10Q137 -10 113 11T88 81V472H10V520H88Z"  />
<glyph unicode="u" horiz-adv-x="556" d="M474 520V0H414V82Q372 38 333 14T236 -10Q155 -10 119 35T82 165V520H142V171Q142 106 165 72T248 38Q272 38 291 45T330 65T369 96T414 137V520H474Z"  />
<glyph unicode="v" horiz-adv-x="444" d="M14 520H78L220 92H222L366 520H430L251 0H192L14 520Z"  />
<glyph unicode="w" horiz-adv-x="667" d="M7 520H68L182 102H184L303 520H362L478 102H480L597 520H659L508 0H449L332 418H330L214 0H152L7 520Z"  />
<glyph unicode="x" horiz-adv-x="444" d="M82 0H10L186 276L30 520H102L222 332L342 520H414L258 276L434 0H362L222 219L82 0Z"  />
<glyph unicode="y" horiz-adv-x="444" d="M221 97H223L368 520H432L238 -37Q225 -75 211 -103T177 -149T133 -175T72 -184Q52 -184 40 -183T16 -178V-129Q30 -131 44 -133T76 -136Q92 -136 108 -129T139 -104T168 -60T193 8L12 520H78L221 97Z"  />
<glyph unicode="z" horiz-adv-x="444" d="M49 520H405V482L105 48H413V0H25V38L325 472H49V520Z"  />
<glyph unicode="{" horiz-adv-x="333" d="M44 343Q79 343 91 364T104 424V619Q104 673 127 702T192 732H254V696H204Q184 696 174 684T164 630V433Q164 383 146 359T92 326V324Q127 316 145 292T164 217V20Q164 -22 174 -34T204 -46H254V-82H192Q150 -82 127 -53T104 31V226Q104 265 92 286T44 307V343Z"  />
<glyph unicode="|" horiz-adv-x="222" d="M84 732H138V-10H84V732Z"  />
<glyph unicode="}" horiz-adv-x="333" d="M289 307Q254 307 242 286T229 226V31Q229 -23 206 -52T141 -82H79V-46H129Q149 -46 159 -34T169 20V217Q169 267 187 291T241 324V326Q206 334 188 358T169 433V630Q169 672 159 684T129 696H79V732H141Q183 732 206 703T229 619V424Q229 385 241 364T289 343V307Z"  />
<glyph unicode="~" horiz-adv-x="600" d="M549 283Q540 267 529 252T501 225T463 206T414 199Q387 199 357 208T295 231Q265 243 236 254T184 265Q168 265 155 259T130 243T108 221T89 195L51 237Q60 252 71 267T99 294T137 313T186 321Q213 321 243 312T305 289Q335 277 364 266T416 255Q432 255 445 261T470 277T492 299T511 325L549 283Z"  />
<glyph unicode="&#xA0;" horiz-adv-x="278" />
<glyph unicode="&#xA1;" horiz-adv-x="222" d="M154 520V430H68V520H154ZM68 -202L86 298H136L154 -202H68Z"  />
<glyph unicode="&#xA2;" horiz-adv-x="556" d="M332 474Q311 482 288 482Q251 482 221 470T170 432T136 363T124 260Q124 194 143 144T199 67L332 474ZM245 44Q264 38 288 38Q316 38 338 45T378 67T412 101T444 146L492 123Q475 95 455 71T411 29T356 1T288 -10Q273 -10 259 -9T230 -3L192 -120H138L182 15Q123 47 94 111T64 260Q64 327 80 377T125 462T196 513T288 530Q318 530 347 522L382 629H436L394 501Q452 464 478 389L423 374Q414 394 403 412T376 446L245 44Z"  />
<glyph unicode="&#xA3;" horiz-adv-x="556" d="M16 52Q48 66 70 89T105 142T125 203T131 269Q131 286 130 302T126 335H15V383H120Q117 420 112 456T106 530Q106 576 120 613T161 676T224 717T308 732Q395 732 450 683T521 549L463 535Q449 601 414 639T307 678Q234 678 200 637T166 527Q166 491 171 455T182 383H328V335H188Q188 322 189 309T191 282Q191 258 189 237T183 196T172 156T155 114Q173 102 194 90T237 68T283 51T328 44Q358 44 381 50T423 72T455 114T479 179L535 167Q518 82 470 36T338 -10Q302 -10 274 -4T221 13T174 38T128 68Q107 39 79 18T16 -10V52Z"  />
<glyph unicode="&#xA4;" horiz-adv-x="556" d="M278 161Q318 161 353 177T415 220T456 284T472 361Q472 401 457 437T415 501T354 545T278 561Q238 561 203 545T141 502T100 438T84 361Q84 320 99 284T141 221T202 177T278 161ZM526 571L472 517Q501 484 513 444T526 361Q526 319 514 279T472 205L526 151L488 113L432 168Q399 140 360 127T278 113Q236 113 197 126T124 168L68 113L30 151L84 205Q55 238 43 278T30 361Q30 403 42 443T84 517L30 571L68 609L124 554Q157 582 196 595T278 609Q320 609 359 596T432 554L488 609L526 571Z"  />
<glyph unicode="&#xA5;" horiz-adv-x="556" d="M483 392H353L307 306V294H483V246H307V0H241V246H65V294H241V306L197 392H65V440H173L28 722H94L272 365L462 722H528L378 440H483V392Z"  />
<glyph unicode="&#xA6;" horiz-adv-x="222" d="M84 732H138V452H84V732ZM84 270H138V-10H84V270Z"  />
<glyph unicode="&#xA7;" horiz-adv-x="500" d="M178 466Q167 466 155 462T134 450T118 431T112 406Q112 392 123 371T153 326T193 278T237 234T278 203T308 190Q340 190 358 210T376 260Q376 272 366 291T338 334T299 380T255 423T213 454T178 466ZM359 609Q341 645 314 666T245 688Q211 688 190 669T168 608Q168 587 187 563T235 511T297 455T359 395T407 333T426 270Q426 239 418 219T395 185T360 166T317 158Q340 131 356 99T372 31Q372 2 360 -19T329 -53T284 -73T232 -80Q186 -80 145 -55T86 13L128 40Q141 8 169 -14T233 -36Q275 -36 298 -18T322 38Q322 60 303 87T255 145T192 207T130 271T82 335T62 396Q62 444 96 471T179 498L181 500Q156 518 137 547T118 616Q118 667 154 699T250 732Q302 732 339 706T399 634L359 609Z"  />
<glyph unicode="&#xA8;" horiz-adv-x="222" d="M222 682V588H156V682H222ZM66 682V588H0V682H66Z"  />
<glyph unicode="&#xA9;" horiz-adv-x="800" d="M598 285Q581 214 532 170T411 126Q360 126 318 144T247 194T202 269T186 362Q186 412 201 455T244 529T314 578T408 596Q444 596 476 586T534 556T576 507T598 441H544Q534 485 499 515T409 546Q370 546 340 532T289 493T257 435T246 363Q246 327 257 293T290 233T342 192T411 176Q465 176 500 208T544 285H598ZM400 40Q467 40 524 65T622 133T687 235T711 361Q711 428 688 486T623 588T524 657T400 682Q333 682 276 657T178 589T113 487T89 361Q89 294 112 236T177 134T276 65T400 40ZM400 732Q477 732 544 703T662 623T742 505T771 361Q771 284 742 217T663 99T545 20T400 -10Q323 -10 256 19T138 99T58 216T29 361Q29 437 58 505T137 623T255 702T400 732Z"  />
<glyph unicode="&#xAA;" horiz-adv-x="300" d="M216 580Q199 575 173 569T123 554T80 530T62 492Q62 474 75 462T112 450Q140 450 169 463T216 496V580ZM27 663Q50 700 80 716T157 732Q214 732 240 710T266 636V480Q266 457 267 445T272 416H228L223 454Q197 431 171 421T106 410Q66 410 39 431T12 491Q12 530 34 553T89 589T157 609T216 623V648Q216 668 203 680T152 692Q120 692 99 680T59 643L27 663Z"  />
<glyph unicode="&#xAB;" horiz-adv-x="500" d="M145 262L269 106H203L82 262L203 414H269L145 262ZM293 262L418 106H352L230 262L352 414H418L293 262Z"  />
<glyph unicode="&#xAC;" horiz-adv-x="600" d="M506 333H40V387H560V133H506V333Z"  />
<glyph unicode="&#xAD;" horiz-adv-x="333" d="M42 233V287H291V233H42Z"  />
<glyph unicode="&#xAE;" horiz-adv-x="800" d="M391 386Q413 386 435 386T474 394T503 416T514 460Q514 483 506 497T484 518T453 528T418 531H322V386H391ZM322 140H262V581H431Q506 581 540 550T574 459Q574 430 565 409T542 373T510 349T472 336L595 140H527L407 336H322V140ZM400 40Q467 40 524 65T622 133T687 235T711 361Q711 428 688 486T623 588T524 657T400 682Q333 682 276 657T178 589T113 487T89 361Q89 294 112 236T177 134T276 65T400 40ZM400 732Q477 732 544 703T662 623T742 505T771 361Q771 284 742 217T663 99T545 20T400 -10Q323 -10 256 19T138 99T58 216T29 361Q29 437 58 505T137 623T255 702T400 732Z"  />
<glyph unicode="&#xAF;" horiz-adv-x="222" d="M-37 661H259V617H-37V661Z"  />
<glyph unicode="&#xB0;" horiz-adv-x="400" d="M200 690Q155 690 128 661T100 586Q100 541 127 512T200 482Q245 482 272 511T300 586Q300 631 273 660T200 690ZM200 732Q231 732 257 721T303 690T334 643T346 586Q346 556 335 529T304 483T258 452T200 440Q169 440 143 451T97 482T66 529T54 586Q54 616 65 643T96 689T142 720T200 732Z"  />
<glyph unicode="&#xB1;" horiz-adv-x="600" d="M40 54H560V0H40V54ZM273 520H327V335H560V281H327V96H273V281H40V335H273V520Z"  />
<glyph unicode="&#xB2;" horiz-adv-x="333" d="M23 608Q34 667 75 699T179 732Q241 732 278 698T315 602Q315 571 303 549T270 508T225 473T176 438Q122 397 96 376T68 336H314V292H16V325Q16 338 19 351T36 380T73 418T139 468Q178 494 202 513T240 548T258 577T263 606Q263 643 241 665T181 688Q136 688 108 667T69 601L23 608Z"  />
<glyph unicode="&#xB3;" horiz-adv-x="333" d="M43 396Q64 358 90 344T162 330Q215 330 242 352T269 413Q269 459 236 479T143 500H100V544H135Q192 544 223 562T254 622Q254 654 229 671T169 688Q149 688 135 686T108 679T84 664T61 638L25 661Q54 701 87 716T165 732Q191 732 216 726T261 706T293 673T306 626Q306 588 294 564T240 524Q279 510 300 485T321 414Q321 380 309 356T276 316T225 293T160 286Q103 286 63 307T2 372L43 396Z"  />
<glyph unicode="&#xB4;" horiz-adv-x="222" d="M236 716L99 578H48L159 716H236Z"  />
<glyph unicode="&#xB5;" horiz-adv-x="556" d="M474 520V0H414V82Q372 38 333 14T236 -10Q176 -10 142 14V-184H82V520H142V171Q142 106 165 72T248 38Q272 38 291 45T330 65T369 96T414 137V520H474Z"  />
<glyph unicode="&#xB6;" horiz-adv-x="500" d="M223 336Q179 336 141 351T76 392T32 452T16 526Q16 621 74 671T239 722H502V678H428V-80H378V678H273V-80H223V336Z"  />
<glyph unicode="&#xB7;" horiz-adv-x="278" d="M139 310Q159 310 174 296T189 260Q189 239 174 225T139 210Q119 210 104 224T89 260Q89 281 104 295T139 310Z"  />
<glyph unicode="&#xB8;" horiz-adv-x="222" d="M14 -152Q26 -157 43 -162T73 -168Q139 -168 139 -127Q139 -106 125 -96T94 -86Q82 -86 70 -88T50 -95L35 -82L95 0H133L90 -50L92 -52Q97 -50 105 -48T123 -46Q159 -46 180 -68T201 -130Q201 -150 191 -164T165 -189T131 -203T96 -208Q71 -208 47 -204T0 -188L14 -152Z"  />
<glyph unicode="&#xB9;" horiz-adv-x="333" d="M73 292V336H146V682L64 662V699L157 732H198V336H275V292H73Z"  />
<glyph unicode="&#xBA;" horiz-adv-x="300" d="M66 571Q66 514 84 485T150 456Q198 456 215 485T233 571Q233 627 216 656T150 686Q102 686 84 657T66 571ZM150 732Q189 732 216 719T259 683T282 632T289 571Q289 539 282 510T259 459T216 424T150 410Q110 410 84 423T41 459T17 510T10 571Q10 602 17 631T40 683T83 718T150 732Z"  />
<glyph unicode="&#xBB;" horiz-adv-x="500" d="M355 258L231 414H297L418 258L297 106H231L355 258ZM207 258L82 414H148L270 258L148 106H82L207 258Z"  />
<glyph unicode="&#xBC;" horiz-adv-x="834" d="M518 148H673V374H669L518 148ZM97 292V336H170V682L88 662V699L181 732H222V336H299V292H97ZM625 732H682L240 -10H181L625 732ZM462 152L658 434H725V148H796V104H725V0H673V104H462V152Z"  />
<glyph unicode="&#xBD;" horiz-adv-x="834" d="M97 292V336H170V682L88 662V699L181 732H222V336H299V292H97ZM613 732H670L228 -10H169L613 732ZM499 316Q510 375 551 407T655 440Q717 440 754 406T791 310Q791 279 779 257T746 216T701 181T652 146Q598 105 572 84T544 44H790V0H492V33Q492 46 495 59T512 88T549 126T615 176Q654 202 678 221T716 256T734 285T739 314Q739 351 717 373T657 396Q612 396 584 375T545 309L499 316Z"  />
<glyph unicode="&#xBE;" horiz-adv-x="834" d="M518 148H673V374H669L518 148ZM641 732H698L256 -10H197L641 732ZM71 396Q92 358 118 344T190 330Q243 330 270 352T297 413Q297 459 264 479T171 500H128V544H163Q220 544 251 562T282 622Q282 654 257 671T197 688Q177 688 163 686T136 679T112 664T89 638L53 661Q82 701 115 716T193 732Q219 732 244 726T289 706T321 673T334 626Q334 588 322 564T268 524Q307 510 328 485T349 414Q349 380 337 356T304 316T253 293T188 286Q131 286 91 307T30 372L71 396ZM462 152L658 434H725V148H796V104H725V0H673V104H462V152Z"  />
<glyph unicode="&#xBF;" horiz-adv-x="389" d="M273 520V430H187V520H273ZM360 -89Q340 -145 300 -178T195 -212Q163 -212 133 -202T80 -171T44 -120T30 -49Q30 -16 42 10T74 60T115 105T156 148T187 196T200 252V300H254V228Q254 202 243 179T213 135T175 91T137 46T108 -4T96 -62Q96 -109 125 -133T196 -158Q221 -158 239 -149T271 -127T294 -96T310 -64L360 -89Z"  />
<glyph unicode="&#xC0;" horiz-adv-x="611" d="M427 290L307 668H305L186 290H427ZM256 722H357L585 0H515L442 236H169L95 0H25L256 722ZM255 891L366 753H315L178 891H255Z"  />
<glyph unicode="&#xC1;" horiz-adv-x="611" d="M427 290L307 668H305L186 290H427ZM256 722H357L585 0H515L442 236H169L95 0H25L256 722ZM428 891L291 753H240L351 891H428Z"  />
<glyph unicode="&#xC2;" horiz-adv-x="611" d="M427 290L307 668H305L186 290H427ZM256 722H357L585 0H515L442 236H169L95 0H25L256 722ZM451 753H385L303 854L221 753H155L269 891H337L451 753Z"  />
<glyph unicode="&#xC3;" horiz-adv-x="611" d="M427 290L307 668H305L186 290H427ZM256 722H357L585 0H515L442 236H169L95 0H25L256 722ZM146 764Q147 781 154 798T172 830T199 852T234 861Q253 861 271 854T308 839Q327 831 344 824T377 817Q397 817 408 832T422 866H460Q457 847 451 830T435 799T409 777T371 769Q355 769 337 776T299 792Q280 800 263 807T231 814Q209 814 198 799T184 764H146Z"  />
<glyph unicode="&#xC4;" horiz-adv-x="611" d="M427 290L307 668H305L186 290H427ZM256 722H357L585 0H515L442 236H169L95 0H25L256 722ZM414 857V763H348V857H414ZM258 857V763H192V857H258Z"  />
<glyph unicode="&#xC5;" horiz-adv-x="611" d="M427 290L307 668H305L186 290H427ZM256 722H357L585 0H515L442 236H169L95 0H25L256 722ZM303 915Q276 915 257 896T237 849Q237 821 256 802T303 783Q330 783 349 802T369 849Q369 877 350 896T303 915ZM303 949Q323 949 341 941T373 920T395 888T403 849Q403 828 395 810T374 778T342 757T303 749Q283 749 265 756T233 777T211 809T203 849Q203 870 211 888T232 919T264 941T303 949Z"  />
<glyph unicode="&#xC6;" horiz-adv-x="944" d="M479 290V666H462L250 290H479ZM420 722H885V668H545V402H788V348H545V54H904V0H479V236H218L92 0H18L420 722Z"  />
<glyph unicode="&#xC7;" horiz-adv-x="611" d="M216 -152Q228 -157 245 -162T275 -168Q341 -168 341 -127Q341 -106 327 -96T296 -86Q284 -86 272 -88T252 -95L237 -82L291 -8Q233 -1 188 28T112 105T65 218T48 361Q48 445 67 513T121 630T208 705T326 732Q374 732 412 716T478 672T526 606T557 523L496 510Q473 590 430 634T320 678Q266 678 228 654T164 586T126 485T114 361Q114 295 126 237T164 136T230 69T327 44Q370 44 400 58T452 97T486 153T509 220L571 209Q561 161 543 121T495 51T425 6T326 -10L292 -50L294 -52Q299 -50 307 -48T325 -46Q361 -46 382 -68T403 -130Q403 -150 393 -164T367 -189T333 -203T298 -208Q273 -208 249 -204T202 -188L216 -152Z"  />
<glyph unicode="&#xC8;" horiz-adv-x="556" d="M100 0V722H512V668H166V402H415V348H166V54H531V0H100ZM260 891L371 753H320L183 891H260Z"  />
<glyph unicode="&#xC9;" horiz-adv-x="556" d="M100 0V722H512V668H166V402H415V348H166V54H531V0H100ZM433 891L296 753H245L356 891H433Z"  />
<glyph unicode="&#xCA;" horiz-adv-x="556" d="M100 0V722H512V668H166V402H415V348H166V54H531V0H100ZM456 753H390L308 854L226 753H160L274 891H342L456 753Z"  />
<glyph unicode="&#xCB;" horiz-adv-x="556" d="M100 0V722H512V668H166V402H415V348H166V54H531V0H100ZM419 857V763H353V857H419ZM263 857V763H197V857H263Z"  />
<glyph unicode="&#xCC;" horiz-adv-x="278" d="M106 722H172V0H106V722ZM84 891L195 753H144L7 891H84Z"  />
<glyph unicode="&#xCD;" horiz-adv-x="278" d="M106 722H172V0H106V722ZM257 891L120 753H69L180 891H257Z"  />
<glyph unicode="&#xCE;" horiz-adv-x="278" d="M106 722H172V0H106V722ZM280 753H214L132 854L50 753H-16L98 891H166L280 753Z"  />
<glyph unicode="&#xCF;" horiz-adv-x="278" d="M106 722H172V0H106V722ZM243 857V763H177V857H243ZM87 857V763H21V857H87Z"  />
<glyph unicode="&#xD0;" horiz-adv-x="667" d="M362 402V348H166V54H306Q427 54 489 134T552 361Q552 508 490 588T306 668H166V402H362ZM100 402V722H304Q388 722 447 693T545 614T600 499T618 361Q618 289 601 224T545 109T448 30T304 0H100V348H10V402H100Z"  />
<glyph unicode="&#xD1;" horiz-adv-x="722" d="M100 722H211L554 120H556V722H622V0H554L168 668H166V0H100V722ZM209 764Q210 781 217 798T235 830T262 852T297 861Q316 861 334 854T371 839Q390 831 407 824T440 817Q460 817 471 832T485 866H523Q520 847 514 830T498 799T472 777T434 769Q418 769 400 776T362 792Q343 800 326 807T294 814Q272 814 261 799T247 764H209Z"  />
<glyph unicode="&#xD2;" horiz-adv-x="667" d="M333 44Q383 44 423 65T492 126T536 226T552 361Q552 437 537 496T493 595T424 657T333 678Q283 678 243 657T174 596T130 496T114 361Q114 285 129 226T173 127T242 65T333 44ZM333 732Q401 732 454 704T543 627T599 509T618 361Q618 281 599 213T544 96T454 18T333 -10Q265 -10 212 18T123 95T67 213T48 361Q48 441 67 509T122 626T212 704T333 732ZM286 891L397 753H346L209 891H286Z"  />
<glyph unicode="&#xD3;" horiz-adv-x="667" d="M333 44Q383 44 423 65T492 126T536 226T552 361Q552 437 537 496T493 595T424 657T333 678Q283 678 243 657T174 596T130 496T114 361Q114 285 129 226T173 127T242 65T333 44ZM333 732Q401 732 454 704T543 627T599 509T618 361Q618 281 599 213T544 96T454 18T333 -10Q265 -10 212 18T123 95T67 213T48 361Q48 441 67 509T122 626T212 704T333 732ZM459 891L322 753H271L382 891H459Z"  />
<glyph unicode="&#xD4;" horiz-adv-x="667" d="M333 44Q383 44 423 65T492 126T536 226T552 361Q552 437 537 496T493 595T424 657T333 678Q283 678 243 657T174 596T130 496T114 361Q114 285 129 226T173 127T242 65T333 44ZM333 732Q401 732 454 704T543 627T599 509T618 361Q618 281 599 213T544 96T454 18T333 -10Q265 -10 212 18T123 95T67 213T48 361Q48 441 67 509T122 626T212 704T333 732ZM482 753H416L334 854L252 753H186L300 891H368L482 753Z"  />
<glyph unicode="&#xD5;" horiz-adv-x="667" d="M333 44Q383 44 423 65T492 126T536 226T552 361Q552 437 537 496T493 595T424 657T333 678Q283 678 243 657T174 596T130 496T114 361Q114 285 129 226T173 127T242 65T333 44ZM333 732Q401 732 454 704T543 627T599 509T618 361Q618 281 599 213T544 96T454 18T333 -10Q265 -10 212 18T123 95T67 213T48 361Q48 441 67 509T122 626T212 704T333 732ZM177 764Q178 781 185 798T203 830T230 852T265 861Q284 861 302 854T339 839Q358 831 375 824T408 817Q428 817 439 832T453 866H491Q488 847 482 830T466 799T440 777T402 769Q386 769 368 776T330 792Q311 800 294 807T262 814Q240 814 229 799T215 764H177Z"  />
<glyph unicode="&#xD6;" horiz-adv-x="667" d="M333 44Q383 44 423 65T492 126T536 226T552 361Q552 437 537 496T493 595T424 657T333 678Q283 678 243 657T174 596T130 496T114 361Q114 285 129 226T173 127T242 65T333 44ZM333 732Q401 732 454 704T543 627T599 509T618 361Q618 281 599 213T544 96T454 18T333 -10Q265 -10 212 18T123 95T67 213T48 361Q48 441 67 509T122 626T212 704T333 732ZM445 857V763H379V857H445ZM289 857V763H223V857H289Z"  />
<glyph unicode="&#xD7;" horiz-adv-x="600" d="M338 260L560 38L522 0L300 222L78 0L40 38L262 260L40 482L78 520L300 298L522 520L560 482L338 260Z"  />
<glyph unicode="&#xD8;" horiz-adv-x="667" d="M198 99Q250 44 333 44Q383 44 423 65T492 126T536 226T552 361Q552 499 503 577L198 99ZM469 622Q416 678 333 678Q283 678 243 657T174 596T130 496T114 361Q114 225 163 144L469 622ZM538 633Q577 584 597 515T618 361Q618 281 599 213T544 96T454 18T333 -10Q282 -10 241 5T166 49L104 -48H41L128 89Q88 140 68 209T48 361Q48 441 67 509T122 626T212 704T333 732Q384 732 426 717T501 672L563 770H626L538 633Z"  />
<glyph unicode="&#xD9;" horiz-adv-x="722" d="M166 722V230Q166 178 178 143T215 85T276 54T361 44Q409 44 445 53T506 85T543 142T556 230V722H622V236Q622 -10 361 -10Q100 -10 100 236V722H166ZM309 890L420 752H369L232 890H309Z"  />
<glyph unicode="&#xDA;" horiz-adv-x="722" d="M166 722V230Q166 178 178 143T215 85T276 54T361 44Q409 44 445 53T506 85T543 142T556 230V722H622V236Q622 -10 361 -10Q100 -10 100 236V722H166ZM481 891L344 753H293L404 891H481Z"  />
<glyph unicode="&#xDB;" horiz-adv-x="722" d="M166 722V230Q166 178 178 143T215 85T276 54T361 44Q409 44 445 53T506 85T543 142T556 230V722H622V236Q622 -10 361 -10Q100 -10 100 236V722H166ZM504 753H438L356 854L274 753H208L322 891H390L504 753Z"  />
<glyph unicode="&#xDC;" horiz-adv-x="722" d="M166 722V230Q166 178 178 143T215 85T276 54T361 44Q409 44 445 53T506 85T543 142T556 230V722H622V236Q622 -10 361 -10Q100 -10 100 236V722H166ZM467 857V763H401V857H467ZM311 857V763H245V857H311Z"  />
<glyph unicode="&#xDD;" horiz-adv-x="556" d="M241 306L20 722H94L272 365L462 722H536L307 306V0H241V306ZM403 891L266 753H215L326 891H403Z"  />
<glyph unicode="&#xDE;" horiz-adv-x="611" d="M166 224H318Q412 224 454 261T496 371Q496 443 454 480T318 518H166V224ZM166 0H100V722H166V572H318Q382 572 428 558T504 517T548 454T562 371Q562 326 548 289T505 225T429 185T318 170H166V0Z"  />
<glyph unicode="&#xDF;" horiz-adv-x="500" d="M76 0V533Q76 618 119 670T252 722Q290 722 322 709T376 671T411 615T424 544Q424 494 401 455T332 394Q400 373 434 323T469 201Q469 104 425 47T298 -10Q277 -10 251 -4T206 13L227 58Q243 50 263 44T301 38Q353 38 381 80T409 194Q409 285 363 322T227 360V408Q293 410 328 441T364 546Q364 606 334 640T243 674Q211 674 191 662T158 631T141 586T136 536V0H76Z"  />
<glyph unicode="&#xE0;" horiz-adv-x="500" d="M356 294Q267 274 214 255T132 216T95 174T86 127Q86 84 112 61T179 38Q221 38 269 61T356 124V294ZM366 0L358 63Q335 45 314 31T270 8T224 -5T169 -10Q108 -10 67 25T26 126Q26 179 47 213T111 269T215 308T359 342V378Q359 430 333 456T240 482Q193 482 156 458T89 388L49 412Q83 475 131 502T242 530Q331 530 373 492T416 367V95Q416 75 417 51T424 0H366ZM202 716L313 578H262L125 716H202Z"  />
<glyph unicode="&#xE1;" horiz-adv-x="500" d="M356 294Q267 274 214 255T132 216T95 174T86 127Q86 84 112 61T179 38Q221 38 269 61T356 124V294ZM366 0L358 63Q335 45 314 31T270 8T224 -5T169 -10Q108 -10 67 25T26 126Q26 179 47 213T111 269T215 308T359 342V378Q359 430 333 456T240 482Q193 482 156 458T89 388L49 412Q83 475 131 502T242 530Q331 530 373 492T416 367V95Q416 75 417 51T424 0H366ZM375 716L238 578H187L298 716H375Z"  />
<glyph unicode="&#xE2;" horiz-adv-x="500" d="M356 294Q267 274 214 255T132 216T95 174T86 127Q86 84 112 61T179 38Q221 38 269 61T356 124V294ZM366 0L358 63Q335 45 314 31T270 8T224 -5T169 -10Q108 -10 67 25T26 126Q26 179 47 213T111 269T215 308T359 342V378Q359 430 333 456T240 482Q193 482 156 458T89 388L49 412Q83 475 131 502T242 530Q331 530 373 492T416 367V95Q416 75 417 51T424 0H366ZM398 578H332L250 679L168 578H102L216 716H284L398 578Z"  />
<glyph unicode="&#xE3;" horiz-adv-x="500" d="M356 294Q267 274 214 255T132 216T95 174T86 127Q86 84 112 61T179 38Q221 38 269 61T356 124V294ZM366 0L358 63Q335 45 314 31T270 8T224 -5T169 -10Q108 -10 67 25T26 126Q26 179 47 213T111 269T215 308T359 342V378Q359 430 333 456T240 482Q193 482 156 458T89 388L49 412Q83 475 131 502T242 530Q331 530 373 492T416 367V95Q416 75 417 51T424 0H366ZM93 589Q94 606 101 623T119 655T146 677T181 686Q200 686 218 679T255 664Q274 656 291 649T324 642Q344 642 355 657T369 691H407Q404 672 398 655T382 624T356 602T318 594Q302 594 284 601T246 617Q227 625 210 632T178 639Q156 639 145 624T131 589H93Z"  />
<glyph unicode="&#xE4;" horiz-adv-x="500" d="M356 294Q267 274 214 255T132 216T95 174T86 127Q86 84 112 61T179 38Q221 38 269 61T356 124V294ZM366 0L358 63Q335 45 314 31T270 8T224 -5T169 -10Q108 -10 67 25T26 126Q26 179 47 213T111 269T215 308T359 342V378Q359 430 333 456T240 482Q193 482 156 458T89 388L49 412Q83 475 131 502T242 530Q331 530 373 492T416 367V95Q416 75 417 51T424 0H366ZM361 682V588H295V682H361ZM205 682V588H139V682H205Z"  />
<glyph unicode="&#xE5;" horiz-adv-x="500" d="M356 294Q267 274 214 255T132 216T95 174T86 127Q86 84 112 61T179 38Q221 38 269 61T356 124V294ZM366 0L358 63Q335 45 314 31T270 8T224 -5T169 -10Q108 -10 67 25T26 126Q26 179 47 213T111 269T215 308T359 342V378Q359 430 333 456T240 482Q193 482 156 458T89 388L49 412Q83 475 131 502T242 530Q331 530 373 492T416 367V95Q416 75 417 51T424 0H366ZM250 740Q223 740 204 721T184 674Q184 646 203 627T250 608Q277 608 296 627T316 674Q316 702 297 721T250 740ZM250 774Q270 774 288 766T320 745T342 713T350 674Q350 653 342 635T321 603T289 582T250 574Q230 574 212 581T180 602T158 634T150 674Q150 695 158 713T179 744T211 766T250 774Z"  />
<glyph unicode="&#xE6;" horiz-adv-x="778" d="M676 306Q667 387 636 434T538 482Q504 482 479 468T437 430T410 374T398 306H676ZM338 294Q255 274 206 255T130 216T95 174T86 127Q86 84 112 61T179 38Q200 38 222 44T266 61T306 88T338 124V294ZM398 258Q398 214 405 174T430 104T474 56T541 38Q566 38 585 43T622 60T656 92T693 143L742 117Q721 82 700 58T655 19T602 -3T536 -10Q483 -10 442 13T370 78Q328 26 277 8T169 -10Q108 -10 67 25T26 126Q26 179 47 213T108 269T206 308T338 342V378Q338 398 332 416T313 449T279 473T228 482Q173 482 141 458T91 386L47 412Q73 475 117 502T224 530Q248 530 271 526T315 512T353 486T382 445Q411 487 451 508T540 530Q592 530 629 510T690 454T725 368T736 258H398Z"  />
<glyph unicode="&#xE7;" horiz-adv-x="500" d="M153 -152Q165 -157 182 -162T212 -168Q278 -168 278 -127Q278 -106 264 -96T233 -86Q221 -86 209 -88T189 -95L174 -82L228 -8Q181 -2 145 20T85 77T49 159T36 260Q36 327 52 377T97 462T168 513T260 530Q334 530 380 492T450 389L395 374Q375 419 344 450T260 482Q223 482 193 470T142 432T108 363T96 260Q96 210 107 169T139 99T190 54T260 38Q288 38 310 45T350 67T384 101T416 146L464 123Q431 68 384 30T263 -10L229 -50L231 -52Q236 -50 244 -48T262 -46Q298 -46 319 -68T340 -130Q340 -150 330 -164T304 -189T270 -203T235 -208Q210 -208 186 -204T139 -188L153 -152Z"  />
<glyph unicode="&#xE8;" horiz-adv-x="500" d="M398 306Q389 387 353 434T248 482Q208 482 180 465T133 421T105 363T96 306H398ZM96 258Q96 214 105 174T135 104T187 56T263 38Q288 38 307 43T344 60T378 92T415 143L464 117Q443 82 422 58T377 19T324 -3T258 -10Q156 -10 96 56T36 260Q36 320 51 370T93 455T160 510T250 530Q303 530 342 510T407 454T445 368T458 258H96ZM202 716L313 578H262L125 716H202Z"  />
<glyph unicode="&#xE9;" horiz-adv-x="500" d="M398 306Q389 387 353 434T248 482Q208 482 180 465T133 421T105 363T96 306H398ZM96 258Q96 214 105 174T135 104T187 56T263 38Q288 38 307 43T344 60T378 92T415 143L464 117Q443 82 422 58T377 19T324 -3T258 -10Q156 -10 96 56T36 260Q36 320 51 370T93 455T160 510T250 530Q303 530 342 510T407 454T445 368T458 258H96ZM375 716L238 578H187L298 716H375Z"  />
<glyph unicode="&#xEA;" horiz-adv-x="500" d="M398 306Q389 387 353 434T248 482Q208 482 180 465T133 421T105 363T96 306H398ZM96 258Q96 214 105 174T135 104T187 56T263 38Q288 38 307 43T344 60T378 92T415 143L464 117Q443 82 422 58T377 19T324 -3T258 -10Q156 -10 96 56T36 260Q36 320 51 370T93 455T160 510T250 530Q303 530 342 510T407 454T445 368T458 258H96ZM398 578H332L250 679L168 578H102L216 716H284L398 578Z"  />
<glyph unicode="&#xEB;" horiz-adv-x="500" d="M398 306Q389 387 353 434T248 482Q208 482 180 465T133 421T105 363T96 306H398ZM96 258Q96 214 105 174T135 104T187 56T263 38Q288 38 307 43T344 60T378 92T415 143L464 117Q443 82 422 58T377 19T324 -3T258 -10Q156 -10 96 56T36 260Q36 320 51 370T93 455T160 510T250 530Q303 530 342 510T407 454T445 368T458 258H96ZM361 682V588H295V682H361ZM205 682V588H139V682H205Z"  />
<glyph unicode="&#xEC;" horiz-adv-x="222" d="M141 0H81V520H141V0ZM63 716L174 578H123L-14 716H63Z"  />
<glyph unicode="&#xED;" horiz-adv-x="222" d="M141 0H81V520H141V0ZM236 716L99 578H48L159 716H236Z"  />
<glyph unicode="&#xEE;" horiz-adv-x="222" d="M141 0H81V520H141V0ZM259 578H193L111 679L29 578H-37L77 716H145L259 578Z"  />
<glyph unicode="&#xEF;" horiz-adv-x="222" d="M141 0H81V520H141V0ZM222 682V588H156V682H222ZM66 682V588H0V682H66Z"  />
<glyph unicode="&#xF0;" horiz-adv-x="500" d="M250 482Q169 482 133 424T96 260Q96 154 132 96T250 38Q331 38 367 96T404 260Q404 366 368 424T250 482ZM227 722Q247 709 264 696T297 669L399 722L427 682L334 633Q373 591 398 546T437 453T458 357T464 260Q464 207 454 159T418 73T352 13T250 -10Q189 -10 148 12T82 72T47 158T36 260Q36 313 46 361T82 447T148 507T250 530Q308 530 349 508L351 510Q323 562 283 607L181 554L153 594L246 643Q213 673 174 696L227 722Z"  />
<glyph unicode="&#xF1;" horiz-adv-x="556" d="M82 0V520H142V438Q184 483 223 506T320 530Q401 530 437 485T474 355V0H414V349Q414 415 391 448T308 482Q284 482 265 475T226 455T187 424T142 383V0H82ZM114 589Q115 606 122 623T140 655T167 677T202 686Q221 686 239 679T276 664Q295 656 312 649T345 642Q365 642 376 657T390 691H428Q425 672 419 655T403 624T377 602T339 594Q323 594 305 601T267 617Q248 625 231 632T199 639Q177 639 166 624T152 589H114Z"  />
<glyph unicode="&#xF2;" horiz-adv-x="500" d="M250 482Q169 482 133 424T96 260Q96 154 132 96T250 38Q331 38 367 96T404 260Q404 366 368 424T250 482ZM250 530Q311 530 352 508T418 448T453 362T464 260Q464 207 454 159T418 73T352 13T250 -10Q189 -10 148 12T82 72T47 158T36 260Q36 313 46 361T82 447T148 507T250 530ZM197 716L308 578H257L120 716H197Z"  />
<glyph unicode="&#xF3;" horiz-adv-x="500" d="M250 482Q169 482 133 424T96 260Q96 154 132 96T250 38Q331 38 367 96T404 260Q404 366 368 424T250 482ZM250 530Q311 530 352 508T418 448T453 362T464 260Q464 207 454 159T418 73T352 13T250 -10Q189 -10 148 12T82 72T47 158T36 260Q36 313 46 361T82 447T148 507T250 530ZM370 716L233 578H182L293 716H370Z"  />
<glyph unicode="&#xF4;" horiz-adv-x="500" d="M250 482Q169 482 133 424T96 260Q96 154 132 96T250 38Q331 38 367 96T404 260Q404 366 368 424T250 482ZM250 530Q311 530 352 508T418 448T453 362T464 260Q464 207 454 159T418 73T352 13T250 -10Q189 -10 148 12T82 72T47 158T36 260Q36 313 46 361T82 447T148 507T250 530ZM393 578H327L245 679L163 578H97L211 716H279L393 578Z"  />
<glyph unicode="&#xF5;" horiz-adv-x="500" d="M250 482Q169 482 133 424T96 260Q96 154 132 96T250 38Q331 38 367 96T404 260Q404 366 368 424T250 482ZM250 530Q311 530 352 508T418 448T453 362T464 260Q464 207 454 159T418 73T352 13T250 -10Q189 -10 148 12T82 72T47 158T36 260Q36 313 46 361T82 447T148 507T250 530ZM88 589Q89 606 96 623T114 655T141 677T176 686Q195 686 213 679T250 664Q269 656 286 649T319 642Q339 642 350 657T364 691H402Q399 672 393 655T377 624T351 602T313 594Q297 594 279 601T241 617Q222 625 205 632T173 639Q151 639 140 624T126 589H88Z"  />
<glyph unicode="&#xF6;" horiz-adv-x="500" d="M250 482Q169 482 133 424T96 260Q96 154 132 96T250 38Q331 38 367 96T404 260Q404 366 368 424T250 482ZM250 530Q311 530 352 508T418 448T453 362T464 260Q464 207 454 159T418 73T352 13T250 -10Q189 -10 148 12T82 72T47 158T36 260Q36 313 46 361T82 447T148 507T250 530ZM356 682V588H290V682H356ZM200 682V588H134V682H200Z"  />
<glyph unicode="&#xF7;" horiz-adv-x="600" d="M300 534Q323 534 340 517T357 477Q357 454 340 437T300 420Q277 420 260 437T243 477Q243 500 260 517T300 534ZM300 100Q323 100 340 83T357 43Q357 20 340 3T300 -14Q277 -14 260 3T243 43Q243 66 260 83T300 100ZM40 233V287H560V233H40Z"  />
<glyph unicode="&#xF8;" horiz-adv-x="500" d="M160 67Q195 38 250 38Q331 38 367 96T404 260Q404 361 373 413L160 67ZM341 452Q305 482 250 482Q169 482 133 424T96 260Q96 160 128 106L341 452ZM405 465Q437 427 450 374T464 260Q464 207 454 159T418 73T352 13T250 -10Q213 -10 184 -2T133 23L70 -80H14L96 54Q63 92 50 146T36 260Q36 313 46 361T82 447T148 507T250 530Q321 530 368 497L431 600H488L405 465Z"  />
<glyph unicode="&#xF9;" horiz-adv-x="556" d="M474 520V0H414V82Q372 38 333 14T236 -10Q155 -10 119 35T82 165V520H142V171Q142 106 165 72T248 38Q272 38 291 45T330 65T369 96T414 137V520H474ZM230 716L341 578H290L153 716H230Z"  />
<glyph unicode="&#xFA;" horiz-adv-x="556" d="M474 520V0H414V82Q372 38 333 14T236 -10Q155 -10 119 35T82 165V520H142V171Q142 106 165 72T248 38Q272 38 291 45T330 65T369 96T414 137V520H474ZM403 716L266 578H215L326 716H403Z"  />
<glyph unicode="&#xFB;" horiz-adv-x="556" d="M474 520V0H414V82Q372 38 333 14T236 -10Q155 -10 119 35T82 165V520H142V171Q142 106 165 72T248 38Q272 38 291 45T330 65T369 96T414 137V520H474ZM426 578H360L278 679L196 578H130L244 716H312L426 578Z"  />
<glyph unicode="&#xFC;" horiz-adv-x="556" d="M474 520V0H414V82Q372 38 333 14T236 -10Q155 -10 119 35T82 165V520H142V171Q142 106 165 72T248 38Q272 38 291 45T330 65T369 96T414 137V520H474ZM389 682V588H323V682H389ZM233 682V588H167V682H233Z"  />
<glyph unicode="&#xFD;" horiz-adv-x="444" d="M221 97H223L368 520H432L238 -37Q225 -75 211 -103T177 -149T133 -175T72 -184Q52 -184 40 -183T16 -178V-129Q30 -131 44 -133T76 -136Q92 -136 108 -129T139 -104T168 -60T193 8L12 520H78L221 97ZM347 716L210 578H159L270 716H347Z"  />
<glyph unicode="&#xFE;" horiz-adv-x="556" d="M152 131Q159 118 175 102T211 72T254 48T299 38Q380 38 420 98T460 268Q460 308 451 346T423 415T376 463T308 482Q283 482 263 475T225 455T189 425T152 387V131ZM92 722H152V440H154Q185 485 222 507T311 530Q362 530 401 508T466 447T506 360T520 257Q520 189 505 139T463 56T398 7T315 -10Q289 -10 268 -6T227 8T189 33T152 68V-184H92V722Z"  />
<glyph unicode="&#xFF;" horiz-adv-x="444" d="M221 97H223L368 520H432L238 -37Q225 -75 211 -103T177 -149T133 -175T72 -184Q52 -184 40 -183T16 -178V-129Q30 -131 44 -133T76 -136Q92 -136 108 -129T139 -104T168 -60T193 8L12 520H78L221 97ZM333 682V588H267V682H333ZM177 682V588H111V682H177Z"  />
<glyph unicode="&#x131;" horiz-adv-x="222" d="M141 0H81V520H141V0Z"  />
<glyph unicode="&#x152;" horiz-adv-x="1000" d="M534 578Q534 626 499 652T392 678Q321 678 269 655T183 591T131 491T114 361Q114 209 179 127T392 44Q464 44 499 70T534 144V578ZM556 0Q506 0 457 -5T370 -10Q283 -10 222 17T123 93T66 210T48 361Q48 437 68 504T129 622T230 702T370 732Q391 732 416 731T465 727T512 724T552 722H941V668H600V402H844V348H600V54H960V0H556Z"  />
<glyph unicode="&#x153;" horiz-adv-x="833" d="M731 306Q722 387 689 434T589 482Q553 482 528 468T486 430T461 374T450 306H731ZM96 260Q96 154 132 96T246 38Q319 38 354 96T390 260Q390 366 355 424T246 482Q168 482 132 424T96 260ZM450 258Q450 214 457 174T482 104T527 56T596 38Q621 38 640 43T677 60T711 92T748 143L797 117Q776 82 755 58T710 19T657 -3T591 -10Q528 -10 486 18T416 104Q395 56 355 23T246 -10Q187 -10 147 12T82 72T47 158T36 260Q36 313 46 361T81 447T146 507T246 530Q314 530 356 498T418 417Q426 437 440 457T475 494T524 520T590 530Q642 530 679 510T742 454T779 368T791 258H450Z"  />
<glyph unicode="&#x160;" horiz-adv-x="556" d="M93 202Q114 119 163 82T299 44Q367 44 405 83T443 188Q443 236 414 265T342 313T248 349T154 389T81 449T52 545Q52 585 65 619T105 679T171 718T260 732Q346 732 406 688T491 559L434 542Q414 602 372 640T260 678Q197 678 158 644T118 545Q118 527 122 511T142 479T186 447T265 411Q341 382 388 358T463 307T499 250T509 181Q509 135 491 100T443 40T373 3T289 -10Q185 -10 124 36T32 183L93 202ZM130 891H196L278 790L360 891H426L312 753H244L130 891Z"  />
<glyph unicode="&#x161;" horiz-adv-x="444" d="M69 126Q87 100 105 83T142 56T183 42T230 38Q255 38 276 45T312 66T337 98T346 137Q346 175 324 195T267 228T193 250T119 274T63 316T40 388Q40 425 53 451T89 495T142 521T205 530Q271 530 313 506T384 436L338 404Q312 440 281 461T203 482Q159 482 130 461T100 391Q100 359 122 342T179 314T253 292T327 265T383 217T406 137Q406 102 391 75T351 29T294 0T226 -10Q166 -10 114 15T25 95L69 126ZM68 716H134L216 615L298 716H364L250 578H182L68 716Z"  />
<glyph unicode="&#x178;" horiz-adv-x="556" d="M241 306L20 722H94L272 365L462 722H536L307 306V0H241V306ZM389 857V763H323V857H389ZM233 857V763H167V857H233Z"  />
<glyph unicode="&#x17D;" horiz-adv-x="556" d="M77 722H505V666L128 54H510V0H46V54L423 668H77V722ZM130 891H196L278 790L360 891H426L312 753H244L130 891Z"  />
<glyph unicode="&#x17E;" horiz-adv-x="444" d="M49 520H405V482L105 48H413V0H25V38L325 472H49V520ZM74 716H140L222 615L304 716H370L256 578H188L74 716Z"  />
<glyph unicode="&#x192;" horiz-adv-x="556" d="M490 681Q473 684 458 684Q412 684 388 660T351 598T334 518T322 435H449V387H317L258 -11Q253 -46 241 -77T207 -132T157 -170T88 -184Q68 -184 49 -181L56 -127Q64 -130 73 -133T91 -136Q120 -136 139 -124T172 -89T193 -34T207 39L258 387H124V435H263Q266 462 270 494T282 560T302 624T332 679T377 717T440 732Q455 732 470 731T499 726L490 681Z"  />
<glyph unicode="&#x2C6;" horiz-adv-x="222" d="M259 578H193L111 679L29 578H-37L77 716H145L259 578Z"  />
<glyph unicode="&#x2C7;" horiz-adv-x="222" d="M-37 716H29L111 615L193 716H259L145 578H77L-37 716Z"  />
<glyph unicode="&#x2DA;" horiz-adv-x="222" d="M111 740Q84 740 65 721T45 674Q45 646 64 627T111 608Q138 608 157 627T177 674Q177 702 158 721T111 740ZM111 774Q131 774 149 766T181 745T203 713T211 674Q211 653 203 635T182 603T150 582T111 574Q91 574 73 581T41 602T19 634T11 674Q11 695 19 713T40 744T72 766T111 774Z"  />
<glyph unicode="&#x2DC;" horiz-adv-x="222" d="M-46 589Q-45 606 -38 623T-20 655T7 677T42 686Q61 686 79 679T116 664Q135 656 152 649T185 642Q205 642 216 657T230 691H268Q265 672 259 655T243 624T217 602T179 594Q163 594 145 601T107 617Q88 625 71 632T39 639Q17 639 6 624T-8 589H-46Z"  />
<glyph unicode="&#x2013;" horiz-adv-x="500" d="M0 238V282H500V238H0Z"  />
<glyph unicode="&#x2014;" horiz-adv-x="1000" d="M1000 238H0V282H1000V238Z"  />
<glyph unicode="&#x2018;" horiz-adv-x="222" d="M60 492V582L123 732H162L104 582H146V492H60Z"  />
<glyph unicode="&#x2019;" horiz-adv-x="222" d="M162 722V632L99 482H60L118 632H76V722H162Z"  />
<glyph unicode="&#x201A;" horiz-adv-x="222" d="M162 90V0L99 -150H60L118 0H76V90H162Z"  />
<glyph unicode="&#x201C;" horiz-adv-x="444" d="M264 492V582L327 732H366L308 582H350V492H264ZM97 492V582L160 732H199L141 582H183V492H97Z"  />
<glyph unicode="&#x201D;" horiz-adv-x="444" d="M180 722V632L117 482H78L136 632H94V722H180ZM347 722V632L284 482H245L303 632H261V722H347Z"  />
<glyph unicode="&#x201E;" horiz-adv-x="444" d="M180 90V0L117 -150H78L136 0H94V90H180ZM347 90V0L284 -150H245L303 0H261V90H347Z"  />
<glyph unicode="&#x2020;" horiz-adv-x="500" d="M236 -80L216 324L234 501L82 483V545L234 528L220 732H280L266 528L418 545V483L266 501L284 324L264 -80H236Z"  />
<glyph unicode="&#x2021;" horiz-adv-x="500" d="M418 483L266 501L284 326L266 151L418 169V107L266 124L280 -80H220L234 124L82 107V169L234 151L216 326L234 501L82 483V545L234 528L220 732H280L266 528L418 545V483Z"  />
<glyph unicode="&#x2022;" horiz-adv-x="500" d="M69 361Q69 398 83 431T121 488T178 527T249 541Q286 541 319 527T377 489T416 431T430 361Q430 323 416 291T377 233T319 194T249 180Q211 180 179 194T122 233T83 290T69 361Z"  />
<glyph unicode="&#x2026;" horiz-adv-x="1000" d="M457 0V90H543V0H457ZM790 0V90H876V0H790ZM124 0V90H210V0H124Z"  />
<glyph unicode="&#x2030;" horiz-adv-x="1000" d="M836 253Q814 253 795 245T762 222T739 188T730 148Q730 127 738 108T761 75T795 52T836 43Q858 43 877 51T910 74T933 108T942 148Q942 169 934 188T911 221T877 244T836 253ZM164 678Q142 678 123 670T90 647T67 613T58 573Q58 552 66 533T89 500T123 477T164 468Q186 468 205 476T238 499T261 533T270 573Q270 594 262 613T239 646T205 669T164 678ZM467 253Q445 253 426 245T393 222T370 188T361 148Q361 127 369 108T392 75T426 52T467 43Q489 43 508 51T541 74T564 108T573 148Q573 169 565 188T542 221T508 244T467 253ZM136 -10H84L492 732H544L136 -10ZM467 297Q498 297 525 285T573 253T605 206T617 148Q617 118 605 91T573 43T526 11T467 -1Q436 -1 409 11T361 43T329 90T317 148Q317 178 329 205T361 253T408 285T467 297ZM164 722Q195 722 222 710T270 678T302 631T314 573Q314 543 302 516T270 468T223 436T164 424Q133 424 106 436T58 468T26 515T14 573Q14 603 26 630T58 678T105 710T164 722ZM836 297Q867 297 894 285T942 253T974 206T986 148Q986 118 974 91T942 43T895 11T836 -1Q805 -1 778 11T730 43T698 90T686 148Q686 178 698 205T730 253T777 285T836 297Z"  />
<glyph unicode="&#x2039;" horiz-adv-x="333" d="M127 262L251 106H185L64 262L185 414H251L127 262Z"  />
<glyph unicode="&#x203A;" horiz-adv-x="333" d="M206 258L82 414H148L269 258L148 106H82L206 258Z"  />
<glyph unicode="&#x20AC;" horiz-adv-x="556" d="M508 545Q496 571 478 595T436 637T385 667T326 678Q281 678 248 657T193 601T160 525T146 440H472L456 392H144Q143 383 143 373Q143 364 143 355Q143 340 143 325T145 294H422L406 246H151Q156 207 170 171T206 106T259 61T330 44Q390 44 433 72T508 152V75Q476 33 429 12T329 -10Q272 -10 229 12T157 70T110 152T85 246H16L32 294H79Q78 308 78 322T77 353Q77 363 77 372Q77 382 78 392H16L33 440H81Q86 500 104 553T152 646T227 709T328 732Q391 732 445 704T532 618L508 545Z"  />
<glyph unicode="&#x2122;" horiz-adv-x="990" d="M374 678H241V310H191V678H54V722H374V678ZM666 394L795 722H880V310H830V678H828L679 310H649L500 678H498V310H448V722H533L666 394Z"  />

</font>
</defs>
</svg>
